NotoNaskhArabic.glyphspackage
{
glyphname = space;
layers = (
{
anchors = (
{
name = bottom;
pos = (111,-94);
},
{
name = stop;
pos = (111,424);
},
{
name = top.far;
pos = (111,252);
},
{
name = top.near;
pos = (111,252);
}
);
layerId = master01;
width = 221;
},
{
anchors = (
{
name = bottom;
pos = (111,-94);
},
{
name = stop;
pos = (111,424);
},
{
name = top.far;
pos = (111,252);
},
{
name = top.near;
pos = (111,252);
}
);
layerId = "26E2967D-790C-4793-AF2A-2D0AD74EDC69";
width = 221;
},
{
anchors = (
{
name = _tail;
pos = (244,69);
}
);
associatedMasterId = master01;
layerId = "0F21020E-E63F-48DA-89FF-535451DC5B25";
name = "26 Jul 23 at 02:06";
shapes = (
{
closed = 1;
nodes = (
(248,-24,l),
(248,4,o),
(256,38,o),
(268,76,c),
(235,92,l),
(172,60,o),
(93,19,o),
(80,4,cs),
(71,-7,o),
(70,-13,o),
(68,-30,cs),
(68,-41,o),
(71,-51,o),
(77,-61,c),
(131,-32,o),
(183,-3,o),
(236,25,c)
);
},
{
pos = (135,0);
ref = "alefMaksura-ar";
}
);
width = 221;
}
);
unicode = (32,160);
}
{
glyphname = exclam;
layers = (
{
layerId = master01;
shapes = (
{
closed = 1;
nodes = (
(130,134,l),
(130,376,o),
(128,437,o),
(119,614,c),
(91,594,o),
(69,576,o),
(51,558,c),
(67,427,o),
(76,291,o),
(85,114,c)
);
},
{
closed = 1;
nodes = (
(153,-26,o),
(167,-2,o),
(167,5,cs),
(167,9,o),
(161,16,o),
(149,26,cs),
(137,36,o),
(118,48,o),
(90,64,c),
(82,52,o),
(74,39,o),
(68,26,cs),
(61,13,o),
(54,0,o),
(46,-14,c),
(76,-32,o),
(95,-44,o),
(125,-66,c)
);
}
);
width = 206;
},
{
layerId = "26E2967D-790C-4793-AF2A-2D0AD74EDC69";
shapes = (
{
closed = 1;
nodes = (
(179,172,l),
(183,295,o),
(185,426,o),
(185,641,c),
(130,621,o),
(89,602,o),
(61,583,c),
(80,459,o),
(96,342,o),
(117,157,c)
);
},
{
closed = 1;
nodes = (
(198,-5,o),
(216,26,o),
(216,35,cs),
(216,41,o),
(208,50,o),
(193,63,cs),
(178,76,o),
(153,93,o),
(118,114,c),
(106,97,o),
(96,80,o),
(87,63,cs),
(79,46,o),
(69,29,o),
(59,12,c),
(94,-8,o),
(129,-31,o),
(162,-57,c)
);
}
);
width = 260;
}
);
unicode = 33;
}
{
glyphname = comma;
kernLeft = period;
kernRight = comma;
layers = (
{
layerId = master01;
shapes = (
{
closed = 1;
nodes = (
(30,-154,l),
(149,-119,o),
(194,-43,o),
(194,42,cs),
(194,98,o),
(158,129,o),
(117,129,cs),
(80,129,o),
(52,108,o),
(52,70,cs),
(52,9,o),
(125,18,o),
(125,-22,c),
(125,-61,o),
(95,-91,o),
(30,-112,c)
);
}
);
width = 250;
},
{
layerId = "26E2967D-790C-4793-AF2A-2D0AD74EDC69";
shapes = (
{
closed = 1;
nodes = (
(45,-154,l),
(175,-119,o),
(224,-43,o),
(224,42,cs),
(224,110,o),
(188,152,o),
(132,152,cs),
(91,152,o),
(60,128,o),
(60,83,cs),
(60,3,o),
(133,14,o),
(133,-24,cs),
(133,-63,o),
(103,-81,o),
(45,-102,c)
);
}
);
width = 294;
}
);
unicode = 44;
}
{
glyphname = period;
layers = (
{
layerId = master01;
shapes = (
{
closed = 1;
nodes = (
(153,-26,o),
(167,-3,o),
(167,5,cs),
(167,15,o),
(141,34,o),
(90,64,c),
(82,52,o),
(74,39,o),
(67,26,cs),
(61,13,o),
(53,0,o),
(46,-14,c),
(66,-26,o),
(93,-43,o),
(125,-66,c)
);
}
);
width = 206;
},
{
layerId = "26E2967D-790C-4793-AF2A-2D0AD74EDC69";
shapes = (
{
closed = 1;
nodes = (
(198,-5,o),
(216,26,o),
(216,35,cs),
(216,54,o),
(154,92,o),
(118,114,c),
(106,97,o),
(96,80,o),
(87,64,cs),
(79,47,o),
(69,30,o),
(59,12,c),
(93,-7,o),
(127,-30,o),
(162,-57,c)
);
}
);
width = 245;
}
);
unicode = 46;
}
{
glyphname = zero;
layers = (
{
layerId = master01;
shapes = (
{
closed = 1;
nodes = (
(437,-10,o),
(514,137,o),
(514,358,cs),
(514,580,o),
(437,724,o),
(281,724,cs),
(115,724,o),
(45,580,o),
(45,359,cs),
(45,137,o),
(115,-10,o),
(280,-10,cs)
);
},
{
closed = 1;
nodes = (
(183,44,o),
(149,160,o),
(149,358,cs),
(149,556,o),
(183,670,o),
(281,670,cs),
(377,670,o),
(410,556,o),
(410,358,cs),
(410,160,o),
(377,44,o),
(280,44,cs)
);
}
);
width = 559;
},
{
layerId = "26E2967D-790C-4793-AF2A-2D0AD74EDC69";
shapes = (
{
closed = 1;
nodes = (
(454,-10,o),
(525,137,o),
(525,358,cs),
(525,580,o),
(454,724,o),
(281,724,cs),
(97,724,o),
(34,580,o),
(34,359,cs),
(34,137,o),
(97,-10,o),
(280,-10,cs)
);
},
{
closed = 1;
nodes = (
(206,55,o),
(189,167,o),
(189,358,cs),
(189,549,o),
(206,659,o),
(281,659,cs),
(354,659,o),
(370,549,o),
(370,358,cs),
(370,167,o),
(354,55,o),
(280,55,cs)
);
}
);
width = 559;
}
);
unicode = 48;
}
{
glyphname = one;
layers = (
{
layerId = master01;
shapes = (
{
closed = 1;
nodes = (
(477,0,l),
(477,42,l),
(428,42,ls),
(383,42,o),
(346,51,o),
(346,114,cs),
(346,718,l),
(282,718,l),
(212,666,ls),
(146,617,o),
(106,599,o),
(66,589,c),
(66,557,o),
(87,535,o),
(116,535,cs),
(156,535,o),
(194,577,o),
(245,639,c),
(245,114,ls),
(245,51,o),
(208,42,o),
(163,42,cs),
(96,42,l),
(96,0,l)
);
}
);
width = 559;
},
{
layerId = "26E2967D-790C-4793-AF2A-2D0AD74EDC69";
shapes = (
{
closed = 1;
nodes = (
(510,0,l),
(510,53,l),
(429,53,ls),
(387,53,o),
(378,76,o),
(378,118,cs),
(378,718,l),
(266,718,l),
(196,666,ls),
(130,617,o),
(82,599,o),
(42,589,c),
(42,544,o),
(68,515,o),
(100,515,cs),
(140,515,o),
(178,557,o),
(229,619,c),
(229,118,ls),
(229,68,o),
(213,53,o),
(179,53,cs),
(97,53,l),
(97,0,l)
);
}
);
width = 559;
}
);
unicode = 49;
}
{
glyphname = two;
layers = (
{
layerId = master01;
shapes = (
{
closed = 1;
nodes = (
(520,0,l),
(520,80,l),
(159,80,l),
(159,84,l),
(308,231,ls),
(362,283,o),
(400,325,o),
(423,355,cs),
(468,415,o),
(491,472,o),
(491,534,cs),
(491,563,o),
(486,589,o),
(477,613,cs),
(447,683,o),
(375,724,o),
(275,724,cs),
(196,724,o),
(123,696,o),
(56,640,c),
(103,581,l),
(169,632,o),
(216,649,o),
(275,649,cs),
(353,649,o),
(401,604,o),
(401,529,cs),
(401,475,o),
(387,438,o),
(347,384,cs),
(328,360,o),
(291,319,o),
(235,262,cs),
(48,73,l),
(48,0,l)
);
}
);
width = 572;
},
{
layerId = "26E2967D-790C-4793-AF2A-2D0AD74EDC69";
shapes = (
{
closed = 1;
nodes = (
(539,0,l),
(539,127,l),
(228,127,l),
(228,134,l),
(320,220,ls),
(381,276,o),
(424,319,o),
(448,350,cs),
(497,411,o),
(519,465,o),
(519,531,cs),
(519,569,o),
(510,602,o),
(491,631,cs),
(453,690,o),
(382,724,o),
(293,724,cs),
(186,724,o),
(124,695,o),
(38,622,c),
(120,525,l),
(177,572,o),
(227,598,o),
(282,598,cs),
(335,598,o),
(369,570,o),
(369,513,cs),
(369,471,o),
(357,443,o),
(323,399,cs),
(307,378,o),
(272,340,o),
(219,286,cs),
(40,105,l),
(40,0,l)
);
}
);
width = 572;
}
);
unicode = 50;
}
{
glyphname = three;
layers = (
{
layerId = master01;
shapes = (
{
closed = 1;
nodes = (
(418,-10,o),
(515,67,o),
(515,203,cs),
(515,297,o),
(459,358,o),
(345,372,c),
(345,376,l),
(440,396,o),
(493,456,o),
(493,547,cs),
(493,656,o),
(411,724,o),
(272,724,cs),
(186,724,o),
(107,696,o),
(49,650,c),
(93,590,l),
(162,635,o),
(210,650,o),
(273,650,cs),
(354,650,o),
(403,609,o),
(403,541,cs),
(403,456,o),
(336,406,o),
(224,406,cs),
(154,406,l),
(154,331,l),
(223,331,ls),
(356,331,o),
(423,289,o),
(423,205,cs),
(423,111,o),
(363,64,o),
(242,64,cs),
(178,64,o),
(105,81,o),
(45,111,c),
(45,29,l),
(104,0,o),
(166,-10,o),
(241,-10,cs)
);
}
);
width = 572;
},
{
layerId = "26E2967D-790C-4793-AF2A-2D0AD74EDC69";
shapes = (
{
closed = 1;
nodes = (
(429,-10,o),
(532,71,o),
(532,208,cs),
(532,302,o),
(472,359,o),
(357,373,c),
(357,376,l),
(455,399,o),
(511,465,o),
(511,554,cs),
(511,661,o),
(420,724,o),
(272,724,cs),
(182,724,o),
(104,701,o),
(39,654,c),
(109,550,l),
(168,588,o),
(214,602,o),
(261,602,cs),
(329,602,o),
(363,575,o),
(363,521,cs),
(363,451,o),
(314,425,o),
(203,425,cs),
(148,425,l),
(148,309,l),
(202,309,ls),
(322,309,o),
(374,284,o),
(374,217,cs),
(374,142,o),
(328,110,o),
(228,110,cs),
(163,110,o),
(93,129,o),
(38,157,c),
(38,29,l),
(98,3,o),
(167,-10,o),
(244,-10,cs)
);
}
);
width = 572;
}
);
unicode = 51;
}
{
glyphname = four;
layers = (
{
layerId = master01;
shapes = (
{
closed = 1;
nodes = (
(448,0,l),
(448,162,l),
(552,162,l),
(552,241,l),
(448,241,l),
(448,718,l),
(357,718,l),
(21,237,l),
(21,162,l),
(363,162,l),
(363,0,l)
);
},
{
closed = 1;
nodes = (
(321,546,ls),
(335,565,o),
(357,607,o),
(364,624,c),
(368,624,l),
(365,563,o),
(363,510,o),
(363,466,cs),
(363,241,l),
(107,241,l)
);
}
);
width = 572;
},
{
layerId = "26E2967D-790C-4793-AF2A-2D0AD74EDC69";
shapes = (
{
closed = 1;
nodes = (
(469,0,l),
(469,148,l),
(555,148,l),
(555,265,l),
(469,265,l),
(469,714,l),
(330,714,l),
(17,253,l),
(17,148,l),
(322,148,l),
(322,0,l)
);
},
{
closed = 1;
nodes = (
(281,463,ls),
(298,488,o),
(312,514,o),
(324,541,c),
(328,541,l),
(326,529,o),
(322,427,o),
(322,386,cs),
(322,265,l),
(150,265,l)
);
}
);
width = 572;
}
);
unicode = 52;
}
{
glyphname = five;
layers = (
{
layerId = master01;
shapes = (
{
closed = 1;
nodes = (
(397,-10,o),
(486,82,o),
(486,218,cs),
(486,359,o),
(387,429,o),
(258,429,cs),
(199,429,o),
(161,420,o),
(141,413,c),
(160,634,l),
(354,634,ls),
(396,634,o),
(404,621,o),
(408,593,cs),
(412,563,l),
(454,563,l),
(449,714,l),
(115,714,l),
(83,359,l),
(107,352,l),
(132,363,o),
(161,374,o),
(230,374,cs),
(322,374,o),
(382,323,o),
(382,218,cs),
(382,91,o),
(321,49,o),
(239,49,cs),
(158,49,o),
(118,93,o),
(118,150,c),
(75,150,o),
(55,128,o),
(55,91,cs),
(55,46,o),
(96,-10,o),
(244,-10,cs)
);
}
);
width = 559;
},
{
layerId = "26E2967D-790C-4793-AF2A-2D0AD74EDC69";
shapes = (
{
closed = 1;
nodes = (
(366,-10,o),
(506,47,o),
(506,220,cs),
(506,363,o),
(405,434,o),
(250,434,cs),
(209,434,o),
(161,427,o),
(140,419,c),
(156,604,l),
(364,604,ls),
(396,604,o),
(404,590,o),
(410,566,cs),
(418,532,l),
(475,532,l),
(470,714,l),
(92,714,l),
(60,368,l),
(106,350,l),
(136,359,o),
(166,368,o),
(217,368,cs),
(303,368,o),
(353,320,o),
(353,220,cs),
(353,97,o),
(296,60,o),
(230,60,cs),
(148,60,o),
(120,123,o),
(120,180,c),
(72,180,o),
(40,157,o),
(40,111,cs),
(40,49,o),
(95,-10,o),
(245,-10,cs)
);
}
);
width = 559;
}
);
unicode = 53;
}
{
glyphname = six;
layers = (
{
layerId = master01;
shapes = (
{
closed = 1;
nodes = (
(438,-10,o),
(525,82,o),
(525,230,cs),
(525,363,o),
(447,447,o),
(318,447,cs),
(241,447,o),
(185,419,o),
(149,363,c),
(143,363,l),
(146,432,o),
(158,488,o),
(178,532,cs),
(216,614,o),
(285,652,o),
(384,652,cs),
(417,652,o),
(445,648,o),
(470,640,c),
(470,715,l),
(449,721,o),
(420,724,o),
(382,724,cs),
(164,724,o),
(55,584,o),
(55,305,cs),
(55,240,o),
(65,184,o),
(85,136,cs),
(125,41,o),
(200,-10,o),
(298,-10,cs)
);
},
{
closed = 1;
nodes = (
(267,64,o),
(241,72,o),
(218,88,cs),
(172,121,o),
(144,182,o),
(144,247,cs),
(144,269,o),
(151,291,o),
(165,312,cs),
(194,353,o),
(243,378,o),
(300,378,cs),
(389,378,o),
(438,325,o),
(438,230,cs),
(438,125,o),
(387,64,o),
(297,64,cs)
);
}
);
width = 572;
},
{
layerId = "26E2967D-790C-4793-AF2A-2D0AD74EDC69";
shapes = (
{
closed = 1;
nodes = (
(448,-10,o),
(539,85,o),
(539,238,cs),
(539,379,o),
(463,464,o),
(335,464,cs),
(264,464,o),
(212,436,o),
(180,381,c),
(174,381,l),
(177,437,o),
(186,481,o),
(203,511,cs),
(235,572,o),
(299,604,o),
(403,604,cs),
(431,604,o),
(460,601,o),
(489,594,c),
(489,715,l),
(466,720,o),
(434,722,o),
(393,722,cs),
(155,722,o),
(35,586,o),
(35,303,cs),
(35,237,o),
(46,181,o),
(67,134,cs),
(110,40,o),
(190,-10,o),
(296,-10,cs)
);
},
{
closed = 1;
nodes = (
(270,111,o),
(249,119,o),
(232,133,cs),
(203,158,o),
(185,200,o),
(185,249,cs),
(185,270,o),
(193,290,o),
(206,306,cs),
(226,331,o),
(259,348,o),
(296,348,cs),
(361,348,o),
(393,306,o),
(393,236,cs),
(393,156,o),
(357,111,o),
(293,111,cs)
);
}
);
width = 572;
}
);
unicode = 54;
}
{
glyphname = seven;
layers = (
{
layerId = master01;
shapes = (
{
closed = 1;
nodes = (
(233,0,l),
(523,646,l),
(523,714,l),
(44,714,l),
(44,634,l),
(429,634,l),
(136,0,l)
);
}
);
width = 572;
},
{
layerId = "26E2967D-790C-4793-AF2A-2D0AD74EDC69";
shapes = (
{
closed = 1;
nodes = (
(269,0,l),
(539,619,l),
(539,714,l),
(27,714,l),
(27,587,l),
(379,587,l),
(111,0,l)
);
}
);
width = 572;
}
);
unicode = 55;
}
{
glyphname = eight;
layers = (
{
layerId = master01;
shapes = (
{
closed = 1;
nodes = (
(419,-10,o),
(513,64,o),
(513,191,cs),
(513,278,o),
(446,336,o),
(347,383,c),
(428,423,o),
(482,464,o),
(482,552,cs),
(482,652,o),
(410,724,o),
(285,724,cs),
(131,724,o),
(69,637,o),
(69,545,cs),
(69,461,o),
(122,405,o),
(198,362,c),
(111,320,o),
(46,275,o),
(46,179,cs),
(46,74,o),
(123,-10,o),
(273,-10,cs)
);
},
{
closed = 1;
nodes = (
(189,36,o),
(143,92,o),
(143,175,cs),
(143,250,o),
(183,304,o),
(246,338,c),
(375,282,o),
(422,237,o),
(422,169,cs),
(422,92,o),
(365,36,o),
(278,36,cs)
);
},
{
closed = 1;
nodes = (
(209,447,o),
(163,485,o),
(163,557,cs),
(163,626,o),
(204,677,o),
(279,677,cs),
(363,677,o),
(393,615,o),
(393,554,cs),
(393,484,o),
(373,443,o),
(298,406,c)
);
}
);
width = 559;
},
{
layerId = "26E2967D-790C-4793-AF2A-2D0AD74EDC69";
shapes = (
{
closed = 1;
nodes = (
(434,-10,o),
(529,63,o),
(529,189,cs),
(529,270,o),
(483,329,o),
(363,387,c),
(446,430,o),
(498,469,o),
(498,549,cs),
(498,650,o),
(426,724,o),
(285,724,cs),
(113,724,o),
(53,635,o),
(53,542,cs),
(53,464,o),
(97,407,o),
(177,361,c),
(89,317,o),
(30,268,o),
(30,182,c),
(30,76,o),
(106,-10,o),
(273,-10,cs)
);
},
{
closed = 1;
nodes = (
(210,47,o),
(165,100,o),
(165,178,cs),
(165,248,o),
(199,292,o),
(244,321,c),
(347,274,o),
(390,237,o),
(390,172,cs),
(390,99,o),
(346,47,o),
(278,47,c)
);
},
{
closed = 1;
nodes = (
(232,453,o),
(194,485,o),
(194,554,cs),
(194,618,o),
(224,666,o),
(279,666,cs),
(340,666,o),
(372,608,o),
(372,551,c),
(372,485,o),
(351,449,o),
(302,421,c)
);
}
);
width = 559;
}
);
unicode = 56;
}
{
glyphname = nine;
layers = (
{
layerId = master01;
shapes = (
{
closed = 1;
nodes = (
(421,-11,o),
(498,178,o),
(498,388,c),
(498,623,o),
(400,724,o),
(265,724,cs),
(131,724,o),
(51,622,o),
(51,478,cs),
(51,343,o),
(132,275,o),
(248,275,cs),
(318,275,o),
(366,308,o),
(395,343,c),
(388,142,o),
(339,44,o),
(228,44,cs),
(165,44,o),
(130,81,o),
(112,123,c),
(97,118,o),
(82,100,o),
(82,75,cs),
(82,33,o),
(114,-11,o),
(227,-11,c)
);
},
{
closed = 1;
nodes = (
(193,334,o),
(154,378,o),
(154,488,cs),
(154,605,o),
(195,669,o),
(265,669,cs),
(342,669,o),
(393,593,o),
(396,415,c),
(378,372,o),
(335,334,o),
(270,334,cs)
);
}
);
width = 559;
},
{
layerId = "26E2967D-790C-4793-AF2A-2D0AD74EDC69";
shapes = (
{
closed = 1;
nodes = (
(432,-10,o),
(514,168,o),
(514,388,cs),
(514,623,o),
(409,724,o),
(264,724,cs),
(121,724,o),
(35,626,o),
(35,482,cs),
(35,347,o),
(116,275,o),
(231,275,cs),
(298,275,o),
(343,304,o),
(373,343,c),
(366,151,o),
(320,53,o),
(232,53,cs),
(165,53,o),
(131,100,o),
(112,160,c),
(78,153,o),
(63,132,o),
(63,103,cs),
(63,46,o),
(106,-10,o),
(227,-10,cs)
);
},
{
closed = 1;
nodes = (
(212,347,o),
(180,396,o),
(180,488,cs),
(180,600,o),
(213,657,o),
(270,657,cs),
(331,657,o),
(371,584,o),
(373,414,c),
(354,374,o),
(320,347,o),
(274,347,cs)
);
}
);
width = 559;
}
);
unicode = 57;
}
{
glyphname = colon;
layers = (
{
layerId = master01;
shapes = (
{
closed = 1;
nodes = (
(153,328,o),
(167,352,o),
(167,358,cs),
(167,368,o),
(141,388,o),
(90,417,c),
(82,405,o),
(74,392,o),
(68,379,cs),
(61,366,o),
(54,353,o),
(46,340,c),
(66,327,o),
(93,310,o),
(125,288,c)
);
},
{
closed = 1;
nodes = (
(153,-26,o),
(167,-3,o),
(167,5,cs),
(167,15,o),
(141,34,o),
(90,64,c),
(82,52,o),
(74,39,o),
(68,26,cs),
(61,13,o),
(54,0,o),
(46,-14,c),
(70,-29,o),
(97,-46,o),
(125,-66,c)
);
}
);
width = 206;
},
{
layerId = "26E2967D-790C-4793-AF2A-2D0AD74EDC69";
shapes = (
{
closed = 1;
nodes = (
(198,332,o),
(216,363,o),
(216,372,cs),
(216,391,o),
(154,429,o),
(118,451,c),
(106,434,o),
(96,417,o),
(87,400,cs),
(79,383,o),
(69,366,o),
(59,349,c),
(94,329,o),
(129,306,o),
(162,280,c)
);
},
{
closed = 1;
nodes = (
(198,-5,o),
(216,26,o),
(216,35,cs),
(216,50,o),
(183,76,o),
(118,114,c),
(106,97,o),
(96,80,o),
(87,64,cs),
(79,47,o),
(69,30,o),
(59,12,c),
(93,-7,o),
(127,-30,o),
(162,-57,c)
);
}
);
width = 274;
}
);
unicode = 58;
}
{
glyphname = guillemetleft;
layers = (
{
layerId = master01;
shapes = (
{
closed = 1;
nodes = (
(354,91,o),
(370,99,o),
(385,116,c),
(365,138,o),
(346,161,o),
(328,184,cs),
(280,243,l),
(368,378,l),
(335,409,l),
(216,236,l),
(246,192,o),
(275,148,o),
(305,105,cs),
(312,95,o),
(323,91,o),
(336,91,cs)
);
},
{
closed = 1;
nodes = (
(196,91,o),
(212,99,o),
(227,116,c),
(212,132,o),
(193,155,o),
(170,184,cs),
(122,243,l),
(209,378,l),
(177,409,l),
(59,236,l),
(88,192,o),
(117,148,o),
(146,105,cs),
(153,95,o),
(165,91,o),
(178,91,cs)
);
}
);
width = 414;
},
{
layerId = "26E2967D-790C-4793-AF2A-2D0AD74EDC69";
shapes = (
{
closed = 1;
nodes = (
(412,116,o),
(436,127,o),
(456,149,c),
(425,181,o),
(392,217,o),
(357,258,cs),
(329,291,l),
(423,425,l),
(379,473,l),
(240,281,l),
(288,197,o),
(318,149,o),
(329,136,cs),
(341,123,o),
(359,116,o),
(382,116,cs)
);
},
{
closed = 1;
nodes = (
(229,91,o),
(254,102,o),
(274,124,c),
(243,155,o),
(210,192,o),
(175,233,cs),
(146,266,l),
(241,400,l),
(197,448,l),
(59,255,l),
(106,173,o),
(135,125,o),
(147,111,cs),
(159,98,o),
(176,91,o),
(199,91,cs)
);
}
);
width = 485;
}
);
unicode = 171;
}
{
glyphname = "number-ar";
layers = (
{
anchors = (
{
name = digits;
pos = (310,100);
}
);
layerId = master01;
shapes = (
{
closed = 1;
nodes = (
(599,-28,ls),
(877,-28,o),
(1037,-23,o),
(1079,-13,c),
(1093,10,o),
(1103,35,o),
(1108,64,c),
(1061,53,o),
(1018,48,o),
(979,48,cs),
(952,48,o),
(917,52,o),
(917,70,cs),
(917,77,o),
(926,87,o),
(942,99,cs),
(956,110,o),
(987,129,o),
(1021,149,cs),
(1037,160,o),
(1044,177,o),
(1044,200,cs),
(1044,209,o),
(1043,219,o),
(1039,228,c),
(958,187,o),
(917,157,o),
(897,121,cs),
(884,99,o),
(880,75,o),
(879,45,c),
(507,45,ls),
(285,45,o),
(128,51,o),
(35,62,c),
(34,52,ls),
(34,12,o),
(55,-11,o),
(97,-16,cs),
(147,-24,o),
(274,-28,o),
(477,-28,cs)
);
}
);
width = 1138;
},
{
anchors = (
{
name = digits;
pos = (340,100);
}
);
layerId = "26E2967D-790C-4793-AF2A-2D0AD74EDC69";
shapes = (
{
closed = 1;
nodes = (
(870,-45,ls),
(1000,-45,o),
(1118,-38,o),
(1225,-25,c),
(1236,-6,o),
(1259,52,o),
(1266,90,c),
(1218,79,o),
(1169,74,o),
(1120,74,cs),
(1084,74,o),
(1067,81,o),
(1067,96,cs),
(1067,103,o),
(1079,112,o),
(1104,124,cs),
(1145,143,o),
(1170,156,o),
(1180,163,cs),
(1201,177,o),
(1213,208,o),
(1213,239,cs),
(1213,263,o),
(1208,282,o),
(1197,296,c),
(1148,272,o),
(1067,218,o),
(1042,177,cs),
(1024,146,o),
(1014,108,o),
(1014,71,c),
(385,71,ls),
(256,71,o),
(134,77,o),
(19,89,c),
(18,72,ls),
(18,19,o),
(41,-18,o),
(81,-25,cs),
(177,-42,o),
(277,-44,o),
(393,-45,cs)
);
}
);
width = 1286;
}
);
unicode = 1536;
}
{
category = Letter;
glyphname = "year-ar";
layers = (
{
layerId = master01;
shapes = (
{
closed = 1;
nodes = (
(120,-230,o),
(132,-224,o),
(144,-210,cs),
(156,-197,o),
(171,-173,o),
(189,-140,cs),
(223,-79,o),
(252,-50,o),
(281,-50,cs),
(287,-50,o),
(294,-53,o),
(300,-59,cs),
(306,-65,o),
(318,-80,o),
(334,-104,cs),
(360,-140,o),
(385,-158,o),
(410,-158,cs),
(431,-158,o),
(457,-118,o),
(477,-96,cs),
(484,-88,o),
(491,-82,o),
(496,-82,cs),
(499,-82,o),
(505,-83,o),
(513,-87,cs),
(623,-133,o),
(743,-152,o),
(889,-152,cs),
(954,-152,o),
(1025,-146,o),
(1102,-135,cs),
(1258,-112,o),
(1440,-64,o),
(1526,-37,cs),
(1543,-32,o),
(1554,-29,o),
(1561,-29,cs),
(1563,-29,o),
(1564,-30,o),
(1564,-33,cs),
(1564,-47,o),
(1544,-75,o),
(1504,-115,c),
(1531,-139,l),
(1585,-86,o),
(1612,-39,o),
(1612,2,cs),
(1612,22,o),
(1596,42,o),
(1572,42,cs),
(1561,42,o),
(1547,40,o),
(1530,35,cs),
(1208,-47,o),
(1053,-68,o),
(906,-68,cs),
(746,-68,o),
(616,-46,o),
(517,-1,cs),
(509,2,o),
(503,4,o),
(500,4,cs),
(478,4,o),
(456,-76,o),
(425,-76,cs),
(397,-76,o),
(373,-56,o),
(352,-16,cs),
(330,26,o),
(314,43,o),
(293,43,cs),
(257,43,o),
(220,12,o),
(184,-51,cs),
(161,-91,o),
(145,-117,o),
(135,-129,cs),
(125,-141,o),
(116,-147,o),
(108,-147,cs),
(86,-147,o),
(76,-110,o),
(76,-79,cs),
(76,-60,o),
(84,-34,o),
(99,-2,c),
(67,15,l),
(44,-31,o),
(32,-72,o),
(32,-107,cs),
(32,-184,o),
(59,-230,o),
(109,-230,cs)
);
}
);
width = 1644;
},
{
annotations = (
{
pos = (1451.977,-203.35);
type = Text;
}
);
layerId = "26E2967D-790C-4793-AF2A-2D0AD74EDC69";
shapes = (
{
closed = 1;
nodes = (
(120,-227,o),
(132,-220,o),
(144,-207,cs),
(155,-194,o),
(171,-170,o),
(189,-136,cs),
(223,-75,o),
(252,-47,o),
(281,-47,cs),
(288,-47,o),
(295,-50,o),
(302,-58,cs),
(309,-66,o),
(320,-80,o),
(334,-102,cs),
(359,-139,o),
(384,-158,o),
(410,-158,cs),
(436,-158,o),
(457,-131,o),
(478,-99,cs),
(487,-86,o),
(493,-79,o),
(496,-79,cs),
(499,-79,o),
(505,-81,o),
(513,-84,cs),
(613,-128,o),
(738,-150,o),
(889,-150,cs),
(956,-150,o),
(1029,-144,o),
(1110,-132,cs),
(1272,-107,o),
(1465,-53,o),
(1526,-33,cs),
(1541,-29,o),
(1553,-26,o),
(1559,-26,cs),
(1562,-26,o),
(1563,-28,o),
(1563,-30,cs),
(1563,-49,o),
(1525,-91,o),
(1504,-112,c),
(1542,-146,l),
(1597,-92,o),
(1625,-37,o),
(1625,21,cs),
(1625,53,o),
(1603,77,o),
(1571,77,cs),
(1554,77,o),
(1516,70,o),
(1458,54,cs),
(1246,-3,o),
(1062,-31,o),
(906,-31,cs),
(745,-31,o),
(615,-9,o),
(517,35,cs),
(509,39,o),
(503,41,o),
(500,41,cs),
(478,41,o),
(456,-39,o),
(425,-39,cs),
(397,-39,o),
(373,-20,o),
(352,17,cs),
(331,55,o),
(314,73,o),
(293,73,cs),
(256,73,o),
(219,41,o),
(184,-17,cs),
(161,-55,o),
(145,-79,o),
(135,-91,cs),
(125,-102,o),
(116,-108,o),
(108,-108,cs),
(94,-108,o),
(84,-91,o),
(84,-66,cs),
(84,-38,o),
(93,-7,o),
(110,27,c),
(65,50,l),
(32,-23,o),
(23,-58,o),
(23,-95,cs),
(23,-176,o),
(57,-227,o),
(109,-227,cs)
);
}
);
width = 1648;
}
);
script = arabic;
subCategory = Other;
unicode = 1537;
}
{
glyphname = "footnotemarker-ar";
layers = (
{
anchors = (
{
name = digits;
pos = (561,100);
}
);
layerId = master01;
shapes = (
{
closed = 1;
nodes = (
(254,40,l),
(267,60,o),
(280,88,o),
(280,114,cs),
(280,169,o),
(236,214,o),
(184,214,cs),
(114,214,o),
(51,150,o),
(51,82,cs),
(51,-8,o),
(131,-30,o),
(211,-30,cs),
(255,-30,o),
(433,-32,o),
(624,-31,cs),
(850,-30,o),
(1092,-26,o),
(1147,-11,cs),
(1189,-1,o),
(1203,29,o),
(1203,71,c),
(1078,57,o),
(840,49,o),
(621,47,cs),
(399,44,o),
(196,46,o),
(149,52,cs),
(115,59,o),
(87,71,o),
(87,96,cs),
(87,126,o),
(135,152,o),
(176,148,cs),
(206,145,o),
(232,126,o),
(232,80,cs),
(232,69,o),
(227,54,o),
(218,37,c)
);
}
);
width = 1233;
},
{
anchors = (
{
name = digits;
pos = (573,100);
}
);
layerId = "26E2967D-790C-4793-AF2A-2D0AD74EDC69";
shapes = (
{
closed = 1;
nodes = (
(263,62,l),
(278,81,o),
(288,114,o),
(288,140,cs),
(288,208,o),
(243,257,o),
(184,257,cs),
(101,257,o),
(39,191,o),
(39,103,cs),
(39,10,o),
(99,-43,o),
(230,-43,cs),
(277,-43,o),
(464,-44,o),
(665,-42,cs),
(917,-40,o),
(1189,-34,o),
(1267,-17,cs),
(1329,-2,o),
(1327,52,o),
(1320,99,c),
(1174,78,o),
(905,71,o),
(662,69,cs),
(409,68,o),
(184,70,o),
(149,76,cs),
(114,82,o),
(93,94,o),
(93,117,cs),
(93,145,o),
(127,164,o),
(168,164,cs),
(203,164,o),
(224,143,o),
(224,106,cs),
(224,94,o),
(218,77,o),
(212,55,c)
);
}
);
width = 1344;
}
);
unicode = 1538;
}
{
glyphname = "pagenumber-ar";
layers = (
{
layerId = master01;
shapes = (
{
closed = 1;
nodes = (
(773,-148,l),
(807,-159,o),
(841,-165,o),
(878,-165,cs),
(911,-165,o),
(954,-155,o),
(989,-131,cs),
(1024,-107,o),
(1050,-71,o),
(1050,-19,cs),
(1050,-1,o),
(1045,18,o),
(1037,33,cs),
(1020,65,o),
(988,87,o),
(950,87,cs),
(928,87,o),
(901,72,o),
(871,45,cs),
(841,17,o),
(809,-24,o),
(775,-74,c),
(762,-70,o),
(749,-65,o),
(737,-59,c),
(746,-45,o),
(754,-25,o),
(765,1,c),
(758,8,o),
(749,10,o),
(741,10,cs),
(727,10,o),
(716,3,o),
(710,-8,cs),
(698,-27,o),
(689,-44,o),
(667,-62,cs),
(645,-81,o),
(611,-90,o),
(557,-90,cs),
(264,-90,ls),
(179,-90,o),
(128,-82,o),
(24,-65,c),
(24,-110,o),
(42,-136,o),
(87,-145,cs),
(152,-158,o),
(202,-162,o),
(264,-162,cs),
(533,-162,ls),
(608,-162,o),
(654,-149,o),
(695,-116,c),
(708,-123,o),
(722,-129,o),
(736,-135,c),
(728,-148,o),
(720,-162,o),
(713,-176,c),
(743,-194,l)
);
},
{
closed = 1;
nodes = (
(864,-89,o),
(841,-87,o),
(818,-83,c),
(840,-52,o),
(861,-29,o),
(878,-13,cs),
(896,4,o),
(912,12,o),
(926,12,cs),
(956,12,o),
(985,-3,o),
(1012,-44,c),
(967,-79,o),
(925,-89,o),
(885,-89,cs)
);
}
);
width = 1082;
},
{
layerId = "26E2967D-790C-4793-AF2A-2D0AD74EDC69";
shapes = (
{
closed = 1;
nodes = (
(969,-161,l),
(1005,-170,o),
(1042,-175,o),
(1081,-175,cs),
(1111,-175,o),
(1141,-167,o),
(1170,-152,cs),
(1227,-121,o),
(1264,-65,o),
(1264,-4,cs),
(1264,18,o),
(1259,39,o),
(1249,60,cs),
(1228,101,o),
(1191,128,o),
(1148,128,cs),
(1110,128,o),
(1068,90,o),
(1021,23,cs),
(1009,7,o),
(993,-17,o),
(974,-49,c),
(957,-45,o),
(941,-40,o),
(927,-34,c),
(934,-17,o),
(944,7,o),
(957,36,c),
(947,43,o),
(937,47,o),
(926,47,cs),
(908,47,o),
(893,38,o),
(880,20,cs),
(862,-8,o),
(848,-25,o),
(838,-33,cs),
(815,-51,o),
(784,-53,o),
(726,-53,cs),
(308,-53,ls),
(201,-53,o),
(153,-51,o),
(21,-28,c),
(6,-86,o),
(28,-136,o),
(83,-147,cs),
(155,-161,o),
(202,-163,o),
(285,-163,cs),
(724,-163,ls),
(792,-163,o),
(851,-150,o),
(872,-126,c),
(887,-133,o),
(902,-140,o),
(917,-145,c),
(912,-153,o),
(908,-162,o),
(903,-171,c),
(946,-198,l)
);
},
{
closed = 1;
nodes = (
(1068,-60,o),
(1053,-60,o),
(1038,-59,c),
(1050,-43,o),
(1061,-30,o),
(1071,-20,cs),
(1098,6,o),
(1122,20,o),
(1145,20,cs),
(1169,20,o),
(1188,7,o),
(1213,-18,c),
(1176,-46,o),
(1133,-60,o),
(1083,-60,cs)
);
}
);
width = 1280;
}
);
unicode = 1539;
}
{
glyphname = "samvat-ar";
layers = (
{
anchors = (
{
name = digits;
pos = (630,100);
}
);
layerId = master01;
shapes = (
{
closed = 1;
nodes = (
(1707,-104,o),
(1715,-78,o),
(1715,-59,cs),
(1715,-46,o),
(1713,-38,o),
(1704,-34,cs),
(1625,-3,o),
(1583,14,o),
(1583,92,cs),
(1583,128,o),
(1616,193,o),
(1654,193,cs),
(1679,193,o),
(1706,174,o),
(1745,152,cs),
(1789,125,o),
(1851,111,o),
(1911,111,cs),
(1963,111,o),
(2022,119,o),
(2033,137,cs),
(2036,143,o),
(2039,148,o),
(2041,154,c),
(2069,141,o),
(2095,130,o),
(2128,122,cs),
(2161,115,o),
(2201,111,o),
(2254,111,c),
(2269,140,o),
(2292,209,o),
(2292,234,cs),
(2292,292,o),
(2263,381,o),
(2253,450,c),
(2223,433,o),
(2187,402,o),
(2187,366,cs),
(2187,351,o),
(2195,329,o),
(2207,299,cs),
(2219,269,o),
(2233,232,o),
(2245,189,c),
(2172,189,o),
(2122,204,o),
(2069,229,c),
(2082,272,o),
(2095,319,o),
(2112,355,c),
(2105,360,o),
(2095,363,o),
(2088,363,cs),
(2065,363,o),
(2052,347,o),
(2039,310,cs),
(2033,294,o),
(2008,209,o),
(2001,197,c),
(1977,189,o),
(1955,187,o),
(1922,187,cs),
(1835,187,o),
(1808,203,o),
(1727,251,cs),
(1704,264,o),
(1683,275,o),
(1659,275,cs),
(1651,275,o),
(1642,272,o),
(1633,266,cs),
(1581,236,o),
(1533,145,o),
(1533,78,cs),
(1533,39,o),
(1542,9,o),
(1557,-17,c),
(1456,9,o),
(1301,20,o),
(1148,20,cs),
(843,20,o),
(616,17,o),
(311,17,cs),
(213,17,o),
(126,25,o),
(50,41,c),
(49,-20,o),
(61,-36,o),
(125,-49,cs),
(158,-57,o),
(214,-59,o),
(326,-59,cs),
(615,-59,o),
(882,-58,o),
(1171,-58,cs),
(1236,-58,o),
(1311,-61,o),
(1392,-68,cs),
(1473,-74,o),
(1559,-84,o),
(1646,-98,c),
(1673,-112,o),
(1691,-122,o),
(1701,-126,c)
);
}
);
width = 2322;
},
{
anchors = (
{
name = digits;
pos = (681,100);
}
);
layerId = "26E2967D-790C-4793-AF2A-2D0AD74EDC69";
shapes = (
{
closed = 1;
nodes = (
(1864,-112,o),
(1871,-78,o),
(1871,-52,cs),
(1871,-30,o),
(1867,-17,o),
(1859,-14,cs),
(1786,15,o),
(1742,37,o),
(1742,100,cs),
(1742,143,o),
(1768,182,o),
(1804,182,cs),
(1828,182,o),
(1859,163,o),
(1894,141,cs),
(1937,114,o),
(1982,101,o),
(2029,101,cs),
(2086,101,o),
(2145,113,o),
(2154,128,cs),
(2158,134,o),
(2162,142,o),
(2167,152,c),
(2199,137,o),
(2235,125,o),
(2274,116,cs),
(2320,106,o),
(2363,101,o),
(2405,101,c),
(2424,137,o),
(2447,210,o),
(2447,243,cs),
(2447,269,o),
(2439,311,o),
(2405,484,c),
(2355,459,o),
(2314,414,o),
(2314,382,cs),
(2314,363,o),
(2328,333,o),
(2341,306,cs),
(2334,322,o),
(2378,233,o),
(2389,211,c),
(2316,218,o),
(2255,229,o),
(2203,256,c),
(2222,319,o),
(2236,363,o),
(2245,385,c),
(2234,392,o),
(2222,396,o),
(2210,396,cs),
(2185,396,o),
(2167,383,o),
(2160,366,cs),
(2130,285,o),
(2115,247,o),
(2105,231,c),
(2076,222,o),
(2066,220,o),
(2034,220,cs),
(1992,220,o),
(1950,233,o),
(1908,260,cs),
(1862,289,o),
(1836,300,o),
(1809,300,cs),
(1793,300,o),
(1774,288,o),
(1752,265,cs),
(1707,219,o),
(1673,146,o),
(1673,87,cs),
(1673,59,o),
(1679,33,o),
(1689,9,c),
(1539,33,o),
(1373,44,o),
(1209,44,cs),
(777,44,o),
(743,45,o),
(382,45,cs),
(213,45,o),
(126,53,o),
(50,69,c),
(49,-11,o),
(80,-56,o),
(136,-66,cs),
(167,-71,o),
(222,-73,o),
(397,-73,cs),
(614,-73,o),
(901,-71,o),
(1189,-70,cs),
(1357,-69,o),
(1485,-73,o),
(1573,-78,cs),
(1645,-83,o),
(1717,-91,o),
(1789,-102,c),
(1807,-115,o),
(1828,-126,o),
(1851,-137,c)
);
}
);
width = 2477;
}
);
unicode = 1540;
}
{
glyphname = "numbermark-ar";
layers = (
{
layerId = master01;
shapes = (
{
closed = 1;
nodes = (
(120,843,l),
(398,748,o),
(749,748,o),
(1000,893,c),
(991,919,l),
(710,811,o),
(358,829,o),
(132,913,c),
(96,892,o),
(79,882,o),
(8,825,c),
(24,797,l)
);
}
);
width = 1000;
},
{
layerId = "26E2967D-790C-4793-AF2A-2D0AD74EDC69";
shapes = (
{
closed = 1;
nodes = (
(120,843,l),
(398,748,o),
(749,748,o),
(1000,893,c),
(984,937,l),
(705,833,o),
(356,870,o),
(132,953,c),
(96,932,o),
(63,908,o),
(-3,845,c),
(24,797,l)
);
}
);
width = 1000;
}
);
unicode = 1541;
}
{
glyphname = "ray-ar";
layers = (
{
layerId = master01;
shapes = (
{
closed = 1;
nodes = (
(782,43,o),
(826,62,o),
(889,95,c),
(912,137,o),
(925,177,o),
(925,197,cs),
(925,221,o),
(920,255,o),
(910,299,cs),
(898,357,o),
(890,395,o),
(887,414,c),
(847,392,o),
(822,359,o),
(822,330,cs),
(822,319,o),
(828,297,o),
(841,263,cs),
(856,220,o),
(878,184,o),
(887,153,c),
(838,131,o),
(769,110,o),
(707,110,c),
(699,165,o),
(680,218,o),
(656,254,cs),
(622,308,o),
(577,340,o),
(531,340,cs),
(509,340,o),
(486,330,o),
(464,310,cs),
(420,269,o),
(390,197,o),
(390,129,cs),
(390,51,o),
(439,0,o),
(515,0,cs),
(559,0,o),
(606,4,o),
(657,23,c),
(660,-1,o),
(662,-22,o),
(663,-51,c),
(647,-76,o),
(624,-99,o),
(594,-118,cs),
(535,-157,o),
(456,-179,o),
(387,-179,cs),
(299,-179,o),
(248,-122,o),
(248,-24,cs),
(248,-10,o),
(255,24,o),
(268,76,c),
(235,92,l),
(166,58,o),
(118,31,o),
(91,13,cs),
(76,3,o),
(68,-11,o),
(68,-30,cs),
(68,-41,o),
(71,-51,o),
(77,-61,c),
(122,-37,o),
(166,-13,o),
(210,11,c),
(205,-12,o),
(203,-41,o),
(203,-74,cs),
(203,-194,o),
(270,-262,o),
(384,-262,cs),
(462,-262,o),
(554,-226,o),
(617,-171,cs),
(680,-116,o),
(714,-51,o),
(714,33,c)
);
},
{
closed = 1;
nodes = (
(468,82,o),
(429,108,o),
(429,157,cs),
(429,170,o),
(433,185,o),
(442,200,cs),
(459,231,o),
(488,255,o),
(516,255,cs),
(530,255,o),
(545,249,o),
(561,238,cs),
(594,214,o),
(623,160,o),
(642,98,c),
(604,83,o),
(570,82,o),
(539,82,cs)
);
}
);
width = 993;
},
{
layerId = "26E2967D-790C-4793-AF2A-2D0AD74EDC69";
shapes = (
{
closed = 1;
nodes = (
(781,42,o),
(808,53,o),
(878,86,c),
(899,127,o),
(917,176,o),
(917,207,cs),
(917,220,o),
(914,247,o),
(906,288,cs),
(896,342,o),
(884,397,o),
(875,439,c),
(826,414,o),
(784,370,o),
(784,337,cs),
(784,320,o),
(794,299,o),
(808,274,cs),
(820,252,o),
(845,209,o),
(858,178,c),
(820,162,o),
(770,133,o),
(702,134,c),
(689,190,o),
(671,249,o),
(652,280,cs),
(617,335,o),
(569,366,o),
(520,366,cs),
(496,366,o),
(472,355,o),
(449,333,cs),
(404,290,o),
(374,213,o),
(374,138,cs),
(374,50,o),
(421,0,o),
(503,0,cs),
(546,0,o),
(590,6,o),
(637,23,c),
(640,4,o),
(642,-12,o),
(644,-31,c),
(618,-52,o),
(590,-69,o),
(563,-83,cs),
(498,-117,o),
(433,-134,o),
(372,-134,cs),
(281,-134,o),
(236,-89,o),
(236,0,cs),
(236,25,o),
(244,62,o),
(254,90,c),
(214,110,l),
(159,83,o),
(65,25,o),
(54,13,cs),
(43,2,o),
(37,-16,o),
(37,-35,cs),
(37,-54,o),
(42,-71,o),
(51,-86,c),
(106,-56,o),
(148,-34,o),
(178,-21,c),
(178,-29,o),
(178,-38,o),
(177,-47,cs),
(177,-180,o),
(241,-252,o),
(361,-252,cs),
(444,-252,o),
(543,-216,o),
(608,-162,cs),
(677,-105,o),
(714,-61,o),
(710,32,c)
);
},
{
closed = 1;
nodes = (
(462,110,o),
(427,132,o),
(427,171,cs),
(427,181,o),
(429,190,o),
(433,199,cs),
(443,226,o),
(470,246,o),
(502,246,cs),
(515,246,o),
(528,242,o),
(540,235,cs),
(567,218,o),
(591,180,o),
(612,125,c),
(577,113,o),
(546,110,o),
(520,110,cs)
);
}
);
width = 954;
}
);
unicode = 1544;
}
{
glyphname = "pertenthousand-ar";
layers = (
{
layerId = master01;
shapes = (
{
closed = 1;
nodes = (
(151,71,o),
(235,237,o),
(341,437,cs),
(343,442,o),
(344,447,o),
(344,454,cs),
(344,473,o),
(332,495,o),
(316,506,c),
(236,359,o),
(124,140,o),
(53,-11,c),
(61,-31,o),
(73,-48,o),
(88,-60,c)
);
},
{
closed = 1;
nodes = (
(350,35,o),
(367,63,o),
(367,72,cs),
(367,77,o),
(360,86,o),
(346,98,cs),
(332,111,o),
(309,126,o),
(275,146,c),
(265,130,o),
(256,114,o),
(247,99,cs),
(239,83,o),
(230,67,o),
(221,50,c),
(252,33,o),
(284,11,o),
(317,-14,c)
);
},
{
closed = 1;
nodes = (
(163,362,o),
(180,391,o),
(180,399,cs),
(180,405,o),
(173,413,o),
(159,426,cs),
(145,438,o),
(122,453,o),
(88,473,c),
(78,457,o),
(69,441,o),
(61,426,cs),
(52,410,o),
(44,394,o),
(34,377,c),
(60,363,o),
(92,342,o),
(130,314,c)
);
},
{
closed = 1;
nodes = (
(526,35,o),
(543,63,o),
(543,72,cs),
(543,77,o),
(536,86,o),
(522,98,cs),
(508,111,o),
(484,126,o),
(451,146,c),
(441,130,o),
(431,114,o),
(423,99,cs),
(415,83,o),
(406,67,o),
(396,50,c),
(428,33,o),
(460,11,o),
(493,-14,c)
);
},
{
closed = 1;
nodes = (
(696,35,o),
(713,63,o),
(713,72,cs),
(713,77,o),
(706,86,o),
(692,98,cs),
(678,111,o),
(654,126,o),
(621,146,c),
(611,130,o),
(601,114,o),
(593,99,cs),
(585,83,o),
(576,67,o),
(566,50,c),
(598,33,o),
(630,11,o),
(663,-14,c)
);
}
);
width = 723;
},
{
layerId = "26E2967D-790C-4793-AF2A-2D0AD74EDC69";
shapes = (
{
closed = 1;
nodes = (
(187,111,o),
(297,325,o),
(352,426,cs),
(360,441,o),
(364,456,o),
(364,472,cs),
(363,498,o),
(353,521,o),
(334,533,c),
(255,389,o),
(167,217,o),
(71,17,c),
(78,-11,o),
(91,-33,o),
(111,-49,c)
);
},
{
closed = 1;
nodes = (
(421,74,o),
(442,110,o),
(442,121,cs),
(442,129,o),
(432,141,o),
(411,158,cs),
(390,174,o),
(361,193,o),
(324,214,c),
(311,195,o),
(299,175,o),
(289,155,cs),
(278,135,o),
(267,114,o),
(255,93,c),
(301,67,o),
(313,60,o),
(378,11,c)
);
},
{
closed = 1;
nodes = (
(192,384,o),
(213,421,o),
(213,432,cs),
(213,440,o),
(202,452,o),
(182,469,cs),
(161,486,o),
(132,504,o),
(96,525,c),
(82,505,o),
(70,486,o),
(60,465,cs),
(49,445,o),
(38,424,o),
(26,403,c),
(59,386,o),
(100,359,o),
(149,322,c)
);
},
{
closed = 1;
nodes = (
(629,74,o),
(650,110,o),
(650,121,cs),
(650,129,o),
(640,141,o),
(619,158,cs),
(599,174,o),
(570,193,o),
(533,214,c),
(520,195,o),
(508,175,o),
(497,155,cs),
(486,135,o),
(475,114,o),
(463,93,c),
(510,67,o),
(521,60,o),
(586,11,c)
);
},
{
closed = 1;
nodes = (
(839,74,o),
(860,110,o),
(860,121,cs),
(860,129,o),
(850,141,o),
(829,158,cs),
(808,174,o),
(779,193,o),
(742,214,c),
(729,195,o),
(717,175,o),
(707,155,cs),
(696,135,o),
(685,114,o),
(673,93,c),
(719,67,o),
(731,60,o),
(796,11,c)
);
}
);
width = 889;
}
);
unicode = 1546;
}
{
glyphname = "afghani-ar";
layers = (
{
layerId = master01;
shapes = (
{
ref = "fehDotless-ar.init";
},
{
alignment = 1;
pos = (115,-227);
ref = "dotabove-ar";
},
{
closed = 1;
nodes = (
(238,-279,o),
(246,-246,o),
(246,-195,cs),
(246,-149,o),
(242,-116,o),
(226,-49,c),
(196,-59,o),
(174,-82,o),
(174,-112,cs),
(174,-119,o),
(176,-128,o),
(179,-137,cs),
(193,-190,o),
(201,-247,o),
(201,-310,c),
(209,-313,l)
);
}
);
width = 420;
},
{
layerId = "26E2967D-790C-4793-AF2A-2D0AD74EDC69";
shapes = (
{
ref = "fehDotless-ar.init";
},
{
alignment = 1;
pos = (140,-218);
ref = "dotabove-ar";
},
{
closed = 1;
nodes = (
(241,-295,o),
(258,-252,o),
(258,-201,cs),
(258,-149,o),
(252,-106,o),
(234,-37,c),
(188,-51,o),
(157,-81,o),
(157,-106,cs),
(157,-114,o),
(158,-123,o),
(162,-134,cs),
(180,-190,o),
(189,-252,o),
(189,-321,c),
(205,-328,l)
);
}
);
width = 427;
}
);
unicode = 1547;
}
{
glyphname = "comma-ar";
layers = (
{
layerId = master01;
shapes = (
{
closed = 1;
nodes = (
(135,-60,o),
(163,-32,o),
(169,7,c),
(134,18,o),
(113,28,o),
(113,46,cs),
(113,82,o),
(137,147,o),
(169,182,c),
(142,205,l),
(85,144,o),
(40,56,o),
(40,6,cs),
(40,-27,o),
(65,-60,o),
(102,-60,cs)
);
}
);
width = 212;
},
{
layerId = "26E2967D-790C-4793-AF2A-2D0AD74EDC69";
shapes = (
{
closed = 1;
nodes = (
(183,-51,o),
(217,-15,o),
(227,39,c),
(189,51,o),
(167,62,o),
(167,82,cs),
(167,106,o),
(188,151,o),
(231,199,c),
(181,239,l),
(84,150,o),
(59,99,o),
(59,38,cs),
(59,-14,o),
(92,-51,o),
(139,-51,cs)
);
}
);
width = 261;
}
);
unicode = 1548;
}
{
glyphname = "dateseparator-ar";
layers = (
{
layerId = master01;
shapes = (
{
closed = 1;
nodes = (
(98,-61,o),
(147,15,o),
(228,95,c),
(210,155,l),
(185,129,o),
(157,98,o),
(131,64,cs),
(83,1,o),
(41,-67,o),
(41,-110,cs),
(41,-127,o),
(52,-146,o),
(69,-151,c)
);
}
);
width = 300;
},
{
layerId = "26E2967D-790C-4793-AF2A-2D0AD74EDC69";
shapes = (
{
closed = 1;
nodes = (
(104,-69,o),
(153,7,o),
(233,87,c),
(202,190,l),
(166,153,o),
(135,116,o),
(109,80,cs),
(56,8,o),
(29,-58,o),
(29,-98,cs),
(29,-131,o),
(44,-151,o),
(75,-160,c)
);
}
);
width = 300;
}
);
unicode = 1549;
}
{
glyphname = "verseComma-ar";
layers = (
{
layerId = master01;
shapes = (
{
closed = 1;
nodes = (
(470,0,o),
(570,7,o),
(641,22,cs),
(711,37,o),
(763,61,o),
(795,93,cs),
(810,107,o),
(824,129,o),
(837,156,c),
(811,177,l),
(795,157,o),
(771,139,o),
(737,125,cs),
(661,92,o),
(539,75,o),
(371,72,c),
(374,81,o),
(383,131,o),
(383,153,cs),
(383,247,o),
(333,311,o),
(255,311,cs),
(218,311,o),
(181,299,o),
(150,279,cs),
(102,248,o),
(68,196,o),
(68,139,cs),
(68,88,o),
(88,52,o),
(128,31,cs),
(168,10,o),
(240,0,o),
(342,0,cs)
);
},
{
closed = 1;
nodes = (
(260,73,o),
(203,81,o),
(164,96,cs),
(124,111,o),
(104,132,o),
(104,160,cs),
(104,171,o),
(111,182,o),
(124,194,cs),
(151,217,o),
(194,233,o),
(237,233,cs),
(256,233,o),
(273,228,o),
(290,219,cs),
(322,200,o),
(342,165,o),
(342,119,cs),
(342,109,o),
(339,93,o),
(334,72,c)
);
}
);
width = 854;
},
{
layerId = "26E2967D-790C-4793-AF2A-2D0AD74EDC69";
shapes = (
{
closed = 1;
nodes = (
(456,0,o),
(549,6,o),
(623,20,cs),
(703,35,o),
(759,60,o),
(795,95,cs),
(812,112,o),
(832,141,o),
(854,183,c),
(817,215,l),
(802,197,o),
(774,180,o),
(733,166,cs),
(651,137,o),
(514,118,o),
(387,116,c),
(394,169,o),
(394,205,o),
(375,251,cs),
(352,304,o),
(309,337,o),
(252,337,cs),
(219,337,o),
(186,328,o),
(156,310,cs),
(95,273,o),
(62,209,o),
(62,148,cs),
(62,96,o),
(80,60,o),
(121,36,cs),
(165,11,o),
(236,0,o),
(342,0,cs)
);
},
{
closed = 1;
nodes = (
(250,115,o),
(193,119,o),
(162,126,cs),
(131,133,o),
(116,146,o),
(116,163,cs),
(116,172,o),
(121,181,o),
(130,188,cs),
(151,207,o),
(191,220,o),
(237,220,cs),
(254,220,o),
(271,217,o),
(284,210,cs),
(314,196,o),
(333,167,o),
(333,127,cs),
(333,124,o),
(333,119,o),
(333,115,c)
);
}
);
width = 854;
}
);
unicode = 1550;
}
{
glyphname = "misraComma-ar";
layers = (
{
anchors = (
{
name = bottom;
pos = (365,-342);
},
{
name = top.far;
pos = (229,679);
},
{
name = top.near;
pos = (229,679);
}
);
layerId = master01;
shapes = (
{
closed = 1;
nodes = (
(99,-249,o),
(127,-211,o),
(151,-182,c),
(189,-245,o),
(254,-281,o),
(338,-281,cs),
(378,-281,o),
(416,-272,o),
(452,-255,cs),
(524,-220,o),
(569,-156,o),
(569,-83,cs),
(569,19,o),
(518,76,o),
(425,76,cs),
(337,76,o),
(254,21,o),
(161,-96,c),
(152,-75,o),
(148,-51,o),
(148,-25,cs),
(148,24,o),
(167,70,o),
(202,112,cs),
(243,160,o),
(308,202,o),
(394,236,cs),
(416,245,o),
(431,252,o),
(440,259,cs),
(459,271,o),
(471,287,o),
(471,309,cs),
(471,319,o),
(467,330,o),
(460,340,c),
(395,319,o),
(340,295,o),
(296,267,c),
(190,276,o),
(125,332,o),
(125,416,c),
(171,440,o),
(213,452,o),
(253,452,cs),
(282,452,o),
(297,449,o),
(350,429,c),
(368,460,l),
(310,511,o),
(272,532,o),
(228,532,cs),
(201,532,o),
(176,523,o),
(151,503,cs),
(101,464,o),
(68,395,o),
(68,338,cs),
(68,318,o),
(74,298,o),
(84,280,cs),
(107,239,o),
(152,205,o),
(204,193,c),
(148,137,o),
(112,58,o),
(112,-25,cs),
(112,-69,o),
(118,-106,o),
(129,-137,c),
(100,-178,o),
(70,-224,o),
(38,-275,c),
(67,-297,l)
);
},
{
closed = 1;
nodes = (
(286,-204,o),
(228,-182,o),
(188,-140,c),
(271,-52,o),
(352,-9,o),
(432,-9,cs),
(484,-9,o),
(534,-44,o),
(534,-86,cs),
(534,-109,o),
(526,-129,o),
(511,-146,cs),
(481,-182,o),
(413,-204,o),
(346,-204,cs)
);
}
);
width = 648;
},
{
anchors = (
{
name = bottom;
pos = (365,-322);
},
{
name = top.far;
pos = (239,716);
},
{
name = top.near;
pos = (239,716);
}
);
layerId = "26E2967D-790C-4793-AF2A-2D0AD74EDC69";
shapes = (
{
closed = 1;
nodes = (
(101,-252,o),
(128,-215,o),
(157,-183,c),
(197,-242,o),
(258,-272,o),
(338,-272,cs),
(384,-272,o),
(425,-264,o),
(462,-247,cs),
(535,-214,o),
(578,-150,o),
(578,-75,cs),
(578,36,o),
(519,106,o),
(425,106,cs),
(338,106,o),
(259,59,o),
(172,-47,c),
(167,-33,o),
(165,-17,o),
(165,0,cs),
(165,39,o),
(185,78,o),
(225,115,cs),
(265,153,o),
(332,192,o),
(425,231,cs),
(440,237,o),
(452,244,o),
(461,252,cs),
(481,268,o),
(491,288,o),
(491,314,cs),
(491,338,o),
(487,355,o),
(479,365,c),
(412,344,o),
(352,316,o),
(300,282,c),
(198,294,o),
(144,344,o),
(140,421,c),
(182,444,o),
(214,453,o),
(261,453,cs),
(291,453,o),
(326,445,o),
(367,430,c),
(388,470,l),
(332,532,o),
(282,563,o),
(235,563,cs),
(209,563,o),
(183,553,o),
(157,532,cs),
(106,490,o),
(68,409,o),
(68,349,cs),
(68,328,o),
(74,307,o),
(86,286,cs),
(110,245,o),
(155,213,o),
(204,202,c),
(148,140,o),
(114,66,o),
(114,-11,cs),
(114,-47,o),
(118,-80,o),
(125,-109,c),
(95,-153,o),
(64,-204,o),
(32,-263,c),
(73,-293,l)
);
},
{
closed = 1;
nodes = (
(307,-161,o),
(263,-146,o),
(222,-115,c),
(297,-48,o),
(367,-14,o),
(432,-14,cs),
(482,-14,o),
(525,-43,o),
(525,-77,cs),
(525,-97,o),
(515,-114,o),
(496,-127,cs),
(467,-148,o),
(417,-161,o),
(356,-161,cs)
);
}
);
width = 664;
}
);
unicode = 1551;
}
{
glyphname = "sadabove-ar";
layers = (
{
anchors = (
{
name = _top;
pos = (99,469);
},
{
name = _top3;
pos = (99,469);
},
{
name = _top_two;
pos = (99,469);
},
{
name = top3;
pos = (73,687);
}
);
layerId = master01;
shapes = (
{
closed = 1;
nodes = (
(17,459,o),
(26,465,o),
(33,478,c),
(37,487,o),
(39,503,o),
(39,526,c),
(52,523,o),
(65,521,o),
(80,521,cs),
(139,521,o),
(181,557,o),
(181,611,cs),
(181,635,o),
(155,663,o),
(129,663,cs),
(98,663,o),
(66,635,o),
(33,581,c),
(27,592,o),
(20,609,o),
(12,631,c),
(5,623,o),
(-2,609,o),
(-10,589,c),
(4,558,o),
(11,531,o),
(11,507,cs),
(11,490,o),
(10,473,o),
(7,458,c)
);
},
{
closed = 1;
nodes = (
(65,558,o),
(53,559,o),
(44,563,c),
(66,602,o),
(91,622,o),
(119,622,cs),
(140,622,o),
(155,611,o),
(162,588,c),
(149,568,o),
(122,558,o),
(81,558,cs)
);
}
);
width = 0;
},
{
anchors = (
{
name = _top;
pos = (99,478);
},
{
name = _top3;
pos = (99,478);
},
{
name = _top_two;
pos = (99,478);
},
{
name = top3;
pos = (73,696);
}
);
layerId = "26E2967D-790C-4793-AF2A-2D0AD74EDC69";
shapes = (
{
closed = 1;
nodes = (
(18,458,o),
(31,466,o),
(38,480,c),
(43,490,o),
(45,504,o),
(45,526,c),
(56,524,o),
(68,522,o),
(81,522,cs),
(144,522,o),
(187,560,o),
(187,615,cs),
(187,642,o),
(158,669,o),
(130,669,cs),
(98,669,o),
(66,643,o),
(35,594,c),
(29,606,o),
(23,622,o),
(15,644,c),
(2,630,o),
(-4,617,o),
(-14,592,c),
(0,561,o),
(7,534,o),
(7,511,cs),
(7,489,o),
(5,471,o),
(2,457,c)
);
},
{
closed = 1;
nodes = (
(69,564,o),
(59,565,o),
(51,568,c),
(72,605,o),
(95,622,o),
(120,622,cs),
(138,622,o),
(151,613,o),
(158,592,c),
(145,574,o),
(121,564,o),
(82,564,cs)
);
}
);
width = 0;
}
);
unicode = 1552;
}
{
glyphname = "sallallahouAlayheWassallamcomb-ar";
layers = (
{
anchors = (
{
name = _top;
pos = (109,759);
},
{
name = _top3;
pos = (109,759);
},
{
name = top3;
pos = (83,977);
}
);
layerId = master01;
shapes = (
{
closed = 1;
nodes = (
(27,749,o),
(36,755,o),
(43,768,c),
(47,777,o),
(49,793,o),
(49,816,c),
(62,813,o),
(75,811,o),
(90,811,cs),
(149,811,o),
(191,847,o),
(191,901,cs),
(191,925,o),
(165,953,o),
(139,953,cs),
(108,953,o),
(76,925,o),
(43,871,c),
(37,882,o),
(30,899,o),
(22,921,c),
(15,913,o),
(8,899,o),
(0,879,c),
(14,848,o),
(21,821,o),
(21,797,cs),
(21,780,o),
(20,763,o),
(17,748,c)
);
},
{
closed = 1;
nodes = (
(75,848,o),
(63,849,o),
(54,853,c),
(76,892,o),
(101,912,o),
(129,912,cs),
(150,912,o),
(165,901,o),
(172,878,c),
(159,858,o),
(132,848,o),
(91,848,cs)
);
}
);
width = 191;
},
{
anchors = (
{
name = _top;
pos = (113,759);
},
{
name = _top3;
pos = (113,759);
},
{
name = top3;
pos = (87,977);
}
);
layerId = "26E2967D-790C-4793-AF2A-2D0AD74EDC69";
shapes = (
{
closed = 1;
nodes = (
(32,739,o),
(45,747,o),
(52,761,c),
(57,771,o),
(59,785,o),
(59,807,c),
(70,805,o),
(82,803,o),
(95,803,cs),
(158,803,o),
(201,841,o),
(201,896,cs),
(201,923,o),
(172,950,o),
(144,950,cs),
(112,950,o),
(80,924,o),
(49,875,c),
(43,887,o),
(37,903,o),
(29,925,c),
(16,911,o),
(10,898,o),
(0,873,c),
(14,842,o),
(21,815,o),
(21,792,cs),
(21,770,o),
(19,752,o),
(16,738,c)
);
},
{
closed = 1;
nodes = (
(83,845,o),
(73,846,o),
(65,849,c),
(86,886,o),
(109,903,o),
(134,903,cs),
(152,903,o),
(165,894,o),
(172,873,c),
(159,855,o),
(135,845,o),
(96,845,cs)
);
}
);
width = 201;
}
);
metricLeft = "=0";
metricRight = "=0";
unicode = 1552;
}
{
glyphname = "alayheAssallamcomb-ar";
layers = (
{
anchors = (
{
name = _top;
pos = (103,759);
}
);
layerId = master01;
shapes = (
{
closed = 1;
nodes = (
(39,749,o),
(50,771,o),
(50,812,c),
(59,810,o),
(70,809,o),
(83,809,cs),
(101,809,o),
(119,811,o),
(138,816,cs),
(178,824,o),
(202,835,o),
(202,861,cs),
(202,865,o),
(201,870,o),
(199,874,c),
(186,868,o),
(167,861,o),
(144,854,c),
(133,857,l),
(107,865,o),
(95,881,o),
(95,907,c),
(109,915,o),
(122,918,o),
(134,918,cs),
(146,918,o),
(159,915,o),
(172,910,c),
(181,923,l),
(155,946,o),
(144,951,o),
(129,951,cs),
(99,951,o),
(70,911,o),
(70,877,cs),
(70,868,o),
(72,859,o),
(78,851,c),
(83,845,l),
(81,845,ls),
(70,845,o),
(59,847,o),
(50,860,cs),
(45,866,o),
(36,886,o),
(21,920,c),
(12,908,o),
(5,894,o),
(0,879,c),
(14,848,o),
(21,821,o),
(21,797,cs),
(21,784,o),
(20,767,o),
(17,748,c)
);
}
);
width = 202;
},
{
anchors = (
{
name = _top;
pos = (104,750);
}
);
layerId = "26E2967D-790C-4793-AF2A-2D0AD74EDC69";
shapes = (
{
closed = 1;
nodes = (
(42,740,o),
(56,760,o),
(56,801,c),
(65,799,o),
(73,798,o),
(86,798,cs),
(104,798,o),
(122,800,o),
(141,804,cs),
(181,813,o),
(205,824,o),
(205,850,cs),
(205,854,o),
(204,860,o),
(202,865,c),
(189,858,o),
(170,852,o),
(147,845,c),
(139,848,l),
(113,857,o),
(101,869,o),
(101,894,c),
(115,902,o),
(125,906,o),
(137,906,cs),
(149,906,o),
(162,903,o),
(175,897,c),
(184,914,l),
(158,937,o),
(147,941,o),
(132,941,cs),
(102,941,o),
(73,902,o),
(73,868,cs),
(73,859,o),
(75,850,o),
(81,841,c),
(87,835,l),
(86,835,ls),
(76,835,o),
(63,838,o),
(55,851,cs),
(51,857,o),
(41,877,o),
(26,911,c),
(17,899,o),
(5,885,o),
(0,870,c),
(14,839,o),
(21,812,o),
(21,788,cs),
(21,775,o),
(23,758,o),
(20,738,c)
);
}
);
width = 205;
}
);
metricLeft = "=0";
metricRight = "=0";
unicode = 1553;
}
{
glyphname = "rehHahabove-ar";
layers = (
{
anchors = (
{
name = _top;
pos = (95,738);
},
{
name = _top3;
pos = (95,738);
},
{
name = top3;
pos = (115,973);
}
);
layerId = master01;
shapes = (
{
closed = 1;
nodes = (
(31,752,l),
(32,801,o),
(84,857,o),
(156,857,cs),
(157,857,l),
(181,858,l),
(195,895,l),
(166,893,ls),
(150,892,o),
(130,897,o),
(106,906,cs),
(82,914,o),
(62,918,o),
(47,918,cs),
(20,918,o),
(0,905,o),
(0,885,cs),
(0,877,o),
(3,871,o),
(9,867,c),
(18,876,o),
(31,881,o),
(48,881,cs),
(56,881,o),
(65,879,o),
(73,877,cs),
(93,872,l),
(43,848,o),
(15,805,o),
(15,752,c)
);
},
{
closed = 1;
nodes = (
(223,748,o),
(259,796,o),
(259,857,cs),
(259,868,o),
(252,889,o),
(242,922,cs),
(231,958,l),
(212,950,o),
(203,940,o),
(203,928,cs),
(203,918,o),
(207,907,o),
(214,895,cs),
(221,883,o),
(229,867,o),
(240,845,c),
(228,809,o),
(204,784,o),
(165,784,cs),
(157,784,o),
(143,787,o),
(123,792,c),
(116,776,l),
(130,764,o),
(162,748,o),
(174,748,cs)
);
}
);
width = 259;
},
{
anchors = (
{
name = _top;
pos = (104,740);
},
{
name = _top3;
pos = (104,740);
},
{
name = top3;
pos = (124,975);
}
);
layerId = "26E2967D-790C-4793-AF2A-2D0AD74EDC69";
shapes = (
{
closed = 1;
nodes = (
(41,742,l),
(38,789,o),
(90,847,o),
(161,847,cs),
(162,847,l),
(190,848,l),
(207,896,l),
(171,893,ls),
(155,892,o),
(136,897,o),
(113,906,cs),
(89,914,o),
(68,918,o),
(52,918,cs),
(22,918,o),
(0,902,o),
(0,880,cs),
(0,869,o),
(5,860,o),
(15,854,c),
(23,865,o),
(35,871,o),
(53,871,cs),
(61,871,o),
(68,869,o),
(76,867,cs),
(85,865,l),
(39,839,o),
(13,795,o),
(15,742,c)
);
},
{
closed = 1;
nodes = (
(239,738,o),
(278,787,o),
(278,852,cs),
(278,864,o),
(271,887,o),
(261,919,cs),
(248,960,l),
(224,951,o),
(212,939,o),
(212,923,cs),
(212,913,o),
(215,902,o),
(224,886,cs),
(230,876,o),
(238,860,o),
(249,840,c),
(236,803,o),
(212,784,o),
(179,784,cs),
(171,784,o),
(156,786,o),
(134,792,c),
(124,770,l),
(136,756,o),
(173,738,o),
(188,738,cs)
);
}
);
width = 278;
}
);
metricLeft = "=0";
metricRight = "=0";
unicode = 1554;
}
{
glyphname = "rehDadabove-ar";
layers = (
{
anchors = (
{
name = _top;
pos = (39,452);
},
{
name = _top3;
pos = (39,452);
},
{
name = _top_two;
pos = (39,452);
},
{
name = top3;
pos = (81,728);
}
);
layerId = master01;
shapes = (
{
closed = 1;
nodes = (
(-28,458,o),
(-20,464,o),
(-12,477,c),
(-8,484,o),
(-6,501,o),
(-6,525,c),
(6,522,o),
(20,521,o),
(34,521,cs),
(93,521,o),
(136,555,o),
(136,610,cs),
(136,634,o),
(110,662,o),
(83,662,cs),
(52,662,o),
(20,634,o),
(-12,580,c),
(-19,593,o),
(-27,610,o),
(-34,630,c),
(-42,621,o),
(-49,607,o),
(-55,588,c),
(-42,556,o),
(-35,529,o),
(-35,506,cs),
(-35,496,o),
(-36,479,o),
(-38,457,c)
);
},
{
closed = 1;
nodes = (
(19,557,o),
(7,559,o),
(-1,562,c),
(20,601,o),
(44,621,o),
(73,621,cs),
(96,621,o),
(110,610,o),
(117,588,c),
(103,567,o),
(76,557,o),
(35,557,cs)
);
},
{
closed = 1;
nodes = (
(5,650,o),
(9,655,o),
(13,660,cs),
(17,666,o),
(20,671,o),
(23,675,c),
(11,688,o),
(0,698,o),
(-8,703,c),
(-31,674,l),
(0,647,l)
);
},
{
closed = 1;
nodes = (
(184,461,o),
(220,510,o),
(220,570,cs),
(220,584,o),
(214,606,o),
(203,635,cs),
(198,647,o),
(195,660,o),
(192,672,c),
(174,664,o),
(165,656,o),
(165,641,cs),
(165,632,o),
(168,621,o),
(175,608,cs),
(186,590,o),
(194,573,o),
(201,558,c),
(188,518,o),
(163,498,o),
(126,498,cs),
(118,498,o),
(104,500,o),
(83,504,c),
(78,489,l),
(92,477,o),
(122,461,o),
(135,461,cs)
);
}
);
width = 0;
},
{
anchors = (
{
name = _top;
pos = (39,460);
},
{
name = _top3;
pos = (39,460);
},
{
name = _top_two;
pos = (39,460);
},
{
name = top3;
pos = (81,736);
}
);
layerId = "26E2967D-790C-4793-AF2A-2D0AD74EDC69";
shapes = (
{
closed = 1;
nodes = (
(-31,458,o),
(-17,462,o),
(-8,476,c),
(-3,485,o),
(-1,500,o),
(-1,522,c),
(10,519,o),
(22,518,o),
(34,518,cs),
(97,518,o),
(141,557,o),
(141,613,cs),
(141,641,o),
(112,669,o),
(83,669,cs),
(51,669,o),
(19,643,o),
(-12,593,c),
(-20,609,o),
(-27,626,o),
(-32,642,c),
(-46,631,o),
(-54,613,o),
(-60,589,c),
(-46,556,o),
(-40,530,o),
(-40,509,cs),
(-40,499,o),
(-41,482,o),
(-43,459,c)
);
},
{
closed = 1;
nodes = (
(23,564,o),
(13,565,o),
(6,568,c),
(26,602,o),
(48,618,o),
(73,618,cs),
(92,618,o),
(105,610,o),
(111,592,c),
(98,573,o),
(73,564,o),
(35,564,cs)
);
},
{
closed = 1;
nodes = (
(7,648,o),
(13,653,o),
(17,660,cs),
(22,666,o),
(26,673,o),
(29,679,c),
(17,692,o),
(5,703,o),
(-9,713,c),
(-38,676,l),
(-1,644,l)
);
},
{
closed = 1;
nodes = (
(186,459,o),
(225,509,o),
(225,573,cs),
(225,587,o),
(220,606,o),
(208,640,c),
(202,653,o),
(199,667,o),
(196,682,c),
(171,672,o),
(160,662,o),
(160,644,cs),
(160,633,o),
(163,621,o),
(171,608,cs),
(181,590,o),
(189,575,o),
(196,561,c),
(183,524,o),
(160,505,o),
(126,505,cs),
(118,505,o),
(103,508,o),
(80,513,c),
(72,490,l),
(88,476,o),
(121,459,o),
(135,459,cs)
);
}
);
width = 0;
}
);
unicode = 1555;
}
{
glyphname = "takhallusabove-ar";
layers = (
{
anchors = (
{
name = _top;
pos = (44,501);
},
{
name = _top3;
pos = (44,501);
},
{
name = _top_two;
pos = (44,501);
},
{
name = top3;
pos = (66,629);
}
);
layerId = master01;
shapes = (
{
closed = 1;
nodes = (
(170,507,o),
(196,535,o),
(217,591,c),
(205,602,l),
(185,568,o),
(167,550,o),
(151,550,cs),
(137,550,o),
(121,568,o),
(121,587,cs),
(121,595,l),
(107,601,l),
(92,583,o),
(78,571,o),
(65,565,cs),
(39,554,o),
(-6,550,o),
(-89,550,cs),
(-128,550,l),
(-128,545,ls),
(-128,532,o),
(-120,524,o),
(-102,520,cs),
(-84,516,o),
(-58,514,o),
(-24,514,cs),
(24,514,o),
(63,520,o),
(91,543,c),
(103,519,o),
(119,507,o),
(139,507,cs)
);
}
);
width = 0;
},
{
anchors = (
{
name = _top;
pos = (44,510);
},
{
name = _top3;
pos = (44,510);
},
{
name = _top_two;
pos = (44,510);
},
{
name = top3;
pos = (66,638);
}
);
layerId = "26E2967D-790C-4793-AF2A-2D0AD74EDC69";
shapes = (
{
closed = 1;
nodes = (
(172,506,o),
(200,536,o),
(222,596,c),
(203,614,l),
(182,577,o),
(164,559,o),
(150,559,cs),
(138,559,o),
(125,576,o),
(125,591,cs),
(125,602,l),
(105,611,l),
(88,591,o),
(74,579,o),
(62,574,cs),
(37,563,o),
(-6,559,o),
(-90,559,cs),
(-134,559,l),
(-134,549,ls),
(-134,533,o),
(-124,524,o),
(-104,519,cs),
(-85,515,o),
(-59,513,o),
(-25,513,cs),
(28,513,o),
(63,521,o),
(88,539,c),
(101,518,o),
(117,506,o),
(138,506,cs)
);
}
);
width = 0;
}
);
unicode = 1556;
}
{
glyphname = "tahStop-ar";
layers = (
{
anchors = (
{
name = _top;
pos = (48,428);
},
{
name = _top3;
pos = (48,428);
},
{
name = _top_two;
pos = (48,428);
},
{
name = top3;
pos = (73,650);
}
);
layerId = master01;
shapes = (
{
closed = 1;
nodes = (
(107,437,o),
(147,463,o),
(147,506,cs),
(147,526,o),
(114,552,o),
(90,552,cs),
(66,552,o),
(40,536,o),
(11,504,c),
(10,528,o),
(8,557,o),
(4,591,c),
(14,599,l),
(1,640,l),
(-14,637,o),
(-22,628,o),
(-22,613,cs),
(-22,602,o),
(-19,581,o),
(-13,549,cs),
(-2,489,l),
(-20,468,l),
(-76,479,l),
(-80,467,l),
(-50,447,o),
(-38,437,o),
(39,437,cs)
);
},
{
closed = 1;
nodes = (
(-1,465,l),
(30,504,o),
(58,523,o),
(82,523,cs),
(102,523,o),
(119,512,o),
(131,489,c),
(100,470,o),
(76,464,o),
(43,464,cs)
);
}
);
width = 0;
},
{
anchors = (
{
name = _top;
pos = (48,437);
},
{
name = _top3;
pos = (48,437);
},
{
name = _top_two;
pos = (48,437);
},
{
name = top3;
pos = (73,659);
}
);
layerId = "26E2967D-790C-4793-AF2A-2D0AD74EDC69";
shapes = (
{
closed = 1;
nodes = (
(109,441,o),
(152,469,o),
(152,515,cs),
(152,537,o),
(117,566,o),
(90,566,cs),
(67,566,o),
(42,552,o),
(15,525,c),
(14,546,o),
(12,570,o),
(9,598,c),
(20,605,l),
(4,655,l),
(-16,652,o),
(-27,641,o),
(-27,622,cs),
(-27,610,o),
(-24,588,o),
(-18,557,cs),
(-7,499,l),
(-22,482,l),
(-79,494,l),
(-86,474,l),
(-54,453,o),
(-43,441,o),
(39,441,cs)
);
},
{
closed = 1;
nodes = (
(9,479,l),
(37,511,o),
(61,527,o),
(82,527,cs),
(99,527,o),
(113,518,o),
(124,500,c),
(97,484,o),
(75,478,o),
(43,478,cs)
);
}
);
width = 0;
}
);
unicode = 1557;
}
{
glyphname = "alefLamYehabove-ar";
layers = (
{
anchors = (
{
name = _top;
pos = (0,479);
},
{
name = _top3;
pos = (0,479);
},
{
name = _top_two;
pos = (0,479);
},
{
name = top3;
pos = (0,825);
}
);
layerId = master01;
shapes = (
{
closed = 1;
nodes = (
(40,489,o),
(61,492,o),
(87,494,c),
(130,498,o),
(156,502,o),
(163,506,cs),
(171,510,o),
(175,515,o),
(175,521,cs),
(175,526,o),
(173,530,o),
(169,534,c),
(129,526,o),
(26,518,o),
(-26,518,cs),
(-102,518,o),
(-152,522,o),
(-176,529,c),
(-152,544,o),
(-123,553,o),
(-95,561,c),
(-25,579,l),
(-18,591,o),
(-12,610,o),
(-12,620,cs),
(-12,643,o),
(-13,670,o),
(-15,699,cs),
(-21,799,l),
(-29,794,o),
(-37,787,o),
(-45,778,c),
(-37,708,o),
(-31,651,o),
(-28,604,c),
(-111,590,o),
(-152,571,o),
(-184,543,c),
(-188,537,o),
(-194,516,o),
(-194,512,cs),
(-194,506,o),
(-177,501,o),
(-145,496,cs),
(-112,491,o),
(-73,489,o),
(-28,489,cs)
);
},
{
closed = 1;
nodes = (
(38,572,l),
(41,657,l),
(41,678,l),
(39,747,l),
(49,755,l),
(35,800,l),
(17,796,o),
(11,787,o),
(11,772,c),
(18,675,l),
(21,604,l),
(21,569,l)
);
}
);
width = 0;
},
{
anchors = (
{
name = _top;
pos = (0,488);
},
{
name = _top3;
pos = (0,488);
},
{
name = _top_two;
pos = (0,488);
},
{
name = top3;
pos = (0,833);
}
);
layerId = "26E2967D-790C-4793-AF2A-2D0AD74EDC69";
shapes = (
{
closed = 1;
nodes = (
(42,485,o),
(56,487,o),
(89,490,c),
(140,495,o),
(160,497,o),
(167,502,cs),
(176,506,o),
(182,514,o),
(182,522,cs),
(182,529,o),
(179,535,o),
(173,540,c),
(135,532,o),
(29,524,o),
(-24,524,cs),
(-86,524,o),
(-133,527,o),
(-160,532,c),
(-139,543,o),
(-115,550,o),
(-92,557,c),
(-20,576,l),
(-12,588,o),
(-5,610,o),
(-5,620,cs),
(-5,644,o),
(-6,671,o),
(-8,700,cs),
(-15,809,l),
(-27,801,o),
(-38,791,o),
(-48,781,c),
(-40,712,o),
(-34,656,o),
(-31,609,c),
(-108,595,o),
(-151,577,o),
(-185,548,c),
(-189,542,o),
(-197,518,o),
(-197,513,cs),
(-197,502,o),
(-175,496,o),
(-144,492,cs),
(-112,487,o),
(-73,485,o),
(-26,485,cs)
);
},
{
closed = 1;
nodes = (
(45,569,l),
(48,658,l),
(48,679,l),
(46,745,l),
(57,754,l),
(40,807,l),
(18,803,o),
(8,793,o),
(8,773,c),
(15,676,l),
(18,604,l),
(18,564,l)
);
}
);
width = 0;
}
);
unicode = 1558;
}
{
glyphname = "zainabove-ar";
layers = (
{
anchors = (
{
name = _top;
pos = (0,408);
},
{
name = _top3;
pos = (0,408);
},
{
name = _top_two;
pos = (0,408);
},
{
name = top3;
pos = (1,722);
}
);
layerId = master01;
shapes = (
{
closed = 1;
nodes = (
(-7,416,o),
(8,421,o),
(21,430,cs),
(47,449,o),
(63,485,o),
(63,524,cs),
(63,538,o),
(57,556,o),
(51,574,cs),
(46,589,o),
(37,611,o),
(34,623,c),
(20,616,o),
(12,609,o),
(12,596,cs),
(12,584,o),
(19,567,o),
(37,536,cs),
(41,528,o),
(45,520,o),
(49,512,c),
(34,469,o),
(7,446,o),
(-31,446,cs),
(-41,446,o),
(-53,447,o),
(-67,450,c),
(-72,437,l),
(-59,428,o),
(-34,416,o),
(-22,416,cs)
);
},
{
closed = 1;
nodes = (
(22,652,o),
(30,662,o),
(36,670,c),
(27,678,o),
(19,686,o),
(11,695,c),
(6,689,o),
(-2,680,o),
(-15,667,c),
(-8,660,o),
(1,651,o),
(12,643,c)
);
}
);
width = 0;
},
{
anchors = (
{
name = _top;
pos = (0,417);
},
{
name = _top3;
pos = (0,417);
},
{
name = _top_two;
pos = (0,417);
},
{
name = top3;
pos = (1,730);
}
);
layerId = "26E2967D-790C-4793-AF2A-2D0AD74EDC69";
shapes = (
{
closed = 1;
nodes = (
(-7,427,o),
(7,431,o),
(20,440,cs),
(46,457,o),
(62,490,o),
(62,526,cs),
(62,541,o),
(57,558,o),
(51,575,cs),
(46,590,o),
(37,614,o),
(33,629,c),
(15,620,o),
(3,606,o),
(3,592,cs),
(3,577,o),
(16,558,o),
(30,537,cs),
(35,530,o),
(39,522,o),
(42,515,c),
(31,483,o),
(6,465,o),
(-30,465,cs),
(-41,465,o),
(-54,467,o),
(-67,470,c),
(-72,455,l),
(-51,438,o),
(-31,427,o),
(-23,427,cs)
);
},
{
closed = 1;
nodes = (
(24,663,o),
(32,673,o),
(38,681,c),
(26,692,o),
(18,700,o),
(12,706,c),
(5,698,o),
(-4,689,o),
(-15,678,c),
(-9,671,o),
(1,662,o),
(13,653,c)
);
}
);
width = 0;
}
);
unicode = 1559;
}
{
glyphname = "fathasmall-ar";
layers = (
{
anchors = (
{
name = _top;
pos = (55,733);
},
{
name = _top3;
pos = (55,733);
},
{
name = _top_two;
pos = (55,733);
},
{
name = top3;
pos = (52,857);
}
);
layerId = master01;
shapes = (
{
closed = 1;
nodes = (
(26,757,ls),
(48,765,o),
(74,773,o),
(105,786,cs),
(121,793,o),
(128,804,o),
(128,822,c),
(127,832,l),
(94,819,o),
(54,805,o),
(5,790,c),
(0,748,l)
);
}
);
width = 128;
},
{
anchors = (
{
name = _top;
pos = (58,738);
},
{
name = _top3;
pos = (58,738);
},
{
name = _top_two;
pos = (58,738);
},
{
name = top3;
pos = (55,862);
}
);
layerId = "26E2967D-790C-4793-AF2A-2D0AD74EDC69";
shapes = (
{
closed = 1;
nodes = (
(30,748,ls),
(51,756,o),
(76,764,o),
(109,777,cs),
(125,784,o),
(133,798,o),
(133,818,c),
(131,834,l),
(99,821,o),
(58,806,o),
(6,790,c),
(0,738,l)
);
}
);
width = 133;
}
);
metricLeft = "=0";
metricRight = "=0";
unicode = 1560;
}
{
glyphname = "dammasmall-ar";
layers = (
{
anchors = (
{
name = _top;
pos = (0,438);
},
{
name = _top3;
pos = (0,438);
},
{
name = _top_two;
pos = (0,438);
},
{
name = top3;
pos = (0,627);
}
);
layerId = master01;
shapes = (
{
closed = 1;
nodes = (
(-9,448,o),
(10,462,o),
(32,489,c),
(57,489,o),
(68,496,o),
(70,517,c),
(49,518,l),
(53,528,o),
(55,539,o),
(55,550,cs),
(55,588,o),
(39,603,o),
(23,603,cs),
(-2,603,o),
(-32,573,o),
(-32,542,cs),
(-32,523,o),
(-21,508,o),
(1,496,c),
(-10,487,o),
(-28,479,o),
(-54,473,c),
(-54,457,o),
(-43,448,o),
(-25,448,cs)
);
},
{
closed = 1;
nodes = (
(3,530,o),
(-8,542,o),
(-8,556,cs),
(-8,562,o),
(2,571,o),
(11,571,cs),
(23,571,o),
(30,561,o),
(30,540,cs),
(30,536,o),
(30,533,o),
(27,526,cs),
(25,522,l)
);
}
);
width = 0;
},
{
anchors = (
{
name = _top;
pos = (0,491);
},
{
name = _top3;
pos = (0,491);
},
{
name = _top_two;
pos = (0,491);
},
{
name = top3;
pos = (0,699);
}
);
layerId = "26E2967D-790C-4793-AF2A-2D0AD74EDC69";
shapes = (
{
closed = 1;
nodes = (
(-11,505,o),
(9,517,o),
(35,548,c),
(62,548,o),
(73,555,o),
(75,576,c),
(52,577,l),
(57,590,o),
(59,601,o),
(59,612,cs),
(59,652,o),
(42,668,o),
(25,668,cs),
(-3,668,o),
(-36,636,o),
(-36,602,cs),
(-36,585,o),
(-24,568,o),
(1,555,c),
(-12,546,o),
(-31,539,o),
(-59,532,c),
(-59,514,o),
(-46,505,o),
(-28,505,cs)
);
},
{
closed = 1;
nodes = (
(5,596,o),
(-5,606,o),
(-5,620,cs),
(-5,625,o),
(4,634,o),
(13,634,cs),
(24,634,o),
(31,622,o),
(29,604,cs),
(29,601,o),
(28,598,o),
(26,592,cs),
(25,589,l)
);
}
);
width = 0;
}
);
unicode = 1561;
}
{
glyphname = "kasrasmall-ar";
layers = (
{
anchors = (
{
name = _bottom;
pos = (54,-39);
},
{
name = bottom;
pos = (57,-166);
}
);
layerId = master01;
shapes = (
{
closed = 1;
nodes = (
(21,-132,ls),
(46,-122,o),
(75,-112,o),
(111,-97,cs),
(129,-90,o),
(137,-77,o),
(137,-57,c),
(136,-45,l),
(98,-60,o),
(53,-76,o),
(-3,-93,c),
(-9,-142,l)
);
}
);
width = 128;
},
{
anchors = (
{
name = _bottom;
pos = (57,-35);
},
{
name = bottom;
pos = (57,-166);
}
);
layerId = "26E2967D-790C-4793-AF2A-2D0AD74EDC69";
shapes = (
{
closed = 1;
nodes = (
(25,-134,l),
(49,-125,o),
(78,-115,o),
(115,-101,cs),
(134,-93,o),
(143,-77,o),
(143,-54,c),
(140,-36,l),
(104,-50,o),
(57,-68,o),
(-2,-86,c),
(-9,-145,l)
);
}
);
width = 133;
}
);
metricLeft = "=0";
metricRight = "=0";
unicode = 1562;
}
{
glyphname = "semicolon-ar";
layers = (
{
layerId = master01;
shapes = (
{
closed = 1;
nodes = (
(140,176,o),
(167,203,o),
(173,243,c),
(139,254,o),
(118,264,o),
(118,282,cs),
(118,317,o),
(141,382,o),
(173,417,c),
(146,440,l),
(89,379,o),
(44,292,o),
(44,242,cs),
(44,208,o),
(69,176,o),
(106,176,cs)
);
},
{
closed = 1;
nodes = (
(153,-26,o),
(167,-3,o),
(167,5,cs),
(167,15,o),
(141,34,o),
(90,64,c),
(82,52,o),
(74,39,o),
(67,26,cs),
(61,13,o),
(53,0,o),
(46,-14,c),
(66,-26,o),
(93,-43,o),
(125,-66,c)
);
}
);
width = 212;
},
{
layerId = "26E2967D-790C-4793-AF2A-2D0AD74EDC69";
shapes = (
{
closed = 1;
nodes = (
(182,194,o),
(217,228,o),
(227,284,c),
(189,295,o),
(166,307,o),
(166,326,cs),
(166,351,o),
(188,395,o),
(231,443,c),
(181,483,l),
(84,395,o),
(59,343,o),
(59,283,cs),
(59,231,o),
(92,194,o),
(139,194,cs)
);
},
{
closed = 1;
nodes = (
(214,-8,o),
(232,23,o),
(232,32,cs),
(232,47,o),
(199,73,o),
(134,111,c),
(122,94,o),
(112,78,o),
(104,61,cs),
(95,44,o),
(85,27,o),
(75,9,c),
(109,-10,o),
(143,-33,o),
(178,-60,c)
);
}
);
width = 261;
}
);
unicode = 1563;
}
{
glyphname = "endoftext-ar";
layers = (
{
layerId = master01;
shapes = (
{
closed = 1;
nodes = (
(224,-3,o),
(287,-4,cs),
(341,-4,o),
(389,18,o),
(389,70,cs),
(389,114,o),
(344,137,o),
(297,127,c),
(302,88,o),
(299,58,o),
(272,58,cs),
(250,58,o),
(233,66,o),
(217,84,cs),
(194,112,o),
(184,167,o),
(214,264,c),
(206,311,l),
(155,317,o),
(121,329,o),
(102,357,cs),
(81,388,o),
(78,438,o),
(94,520,c),
(61,527,l),
(47,475,o),
(40,431,o),
(40,394,cs),
(39,302,o),
(85,256,o),
(195,247,c),
(187,302,l),
(168,246,o),
(150,189,o),
(152,130,cs),
(155,35,o)
);
}
);
width = 432;
},
{
layerId = "26E2967D-790C-4793-AF2A-2D0AD74EDC69";
shapes = (
{
closed = 1;
nodes = (
(254,-5,o),
(330,-5,cs),
(397,-5,o),
(461,22,o),
(461,85,cs),
(461,150,o),
(409,180,o),
(337,166,c),
(344,123,o),
(338,100,o),
(318,93,cs),
(289,83,o),
(259,94,o),
(245,111,cs),
(221,141,o),
(214,180,o),
(244,276,c),
(232,346,l),
(175,352,o),
(140,368,o),
(130,383,cs),
(106,418,o),
(107,456,o),
(128,553,c),
(84,562,l),
(68,507,o),
(59,452,o),
(59,408,cs),
(58,298,o),
(113,246,o),
(228,239,c),
(213,342,l),
(194,287,o),
(173,216,o),
(173,143,cs),
(173,38,o)
);
}
);
width = 491;
}
);
metricLeft = "=comma-ar";
metricRight = "=comma-ar";
unicode = 1565;
}
{
glyphname = "question-ar";
layers = (
{
layerId = master01;
shapes = (
{
closed = 1;
nodes = (
(262,143,o),
(273,180,o),
(273,208,cs),
(273,234,o),
(263,257,o),
(243,278,cs),
(204,318,o),
(134,339,o),
(91,366,c),
(113,432,o),
(171,476,o),
(232,476,cs),
(278,476,o),
(303,465,o),
(343,428,c),
(363,445,o),
(373,464,o),
(373,483,cs),
(373,495,o),
(368,506,o),
(359,516,cs),
(331,546,o),
(292,562,o),
(243,562,cs),
(211,562,o),
(180,552,o),
(151,533,cs),
(94,495,o),
(55,425,o),
(55,363,cs),
(55,315,o),
(80,280,o),
(132,252,cs),
(162,235,o),
(182,222,o),
(192,211,cs),
(203,201,o),
(208,189,o),
(208,176,cs),
(208,167,o),
(206,149,o),
(201,122,c),
(239,98,l)
);
},
{
closed = 1;
nodes = (
(245,-30,o),
(258,-7,o),
(258,0,cs),
(258,4,o),
(252,11,o),
(241,21,cs),
(229,31,o),
(209,43,o),
(182,59,c),
(174,47,o),
(166,34,o),
(159,21,cs),
(153,8,o),
(146,-5,o),
(138,-19,c),
(165,-34,o),
(184,-47,o),
(217,-71,c)
);
}
);
width = 425;
},
{
layerId = "26E2967D-790C-4793-AF2A-2D0AD74EDC69";
shapes = (
{
closed = 1;
nodes = (
(268,177,o),
(280,215,o),
(280,244,cs),
(280,278,o),
(265,305,o),
(241,327,cs),
(217,350,o),
(181,369,o),
(97,393,c),
(116,449,o),
(160,477,o),
(231,477,cs),
(278,477,o),
(304,465,o),
(342,428,c),
(365,449,o),
(376,473,o),
(376,502,cs),
(376,523,o),
(369,541,o),
(355,554,cs),
(328,582,o),
(289,597,o),
(242,597,cs),
(210,597,o),
(179,587,o),
(149,566,cs),
(88,526,o),
(45,452,o),
(45,389,cs),
(45,342,o),
(70,304,o),
(120,275,cs),
(148,259,o),
(167,246,o),
(178,236,cs),
(188,226,o),
(193,215,o),
(193,204,cs),
(193,193,o),
(192,180,o),
(188,165,c),
(245,129,l)
);
},
{
closed = 1;
nodes = (
(253,-10,o),
(271,21,o),
(271,30,cs),
(271,36,o),
(264,46,o),
(249,59,cs),
(234,72,o),
(208,88,o),
(173,109,c),
(161,92,o),
(151,76,o),
(143,59,cs),
(134,42,o),
(124,25,o),
(114,7,c),
(148,-12,o),
(182,-35,o),
(217,-62,c)
);
}
);
width = 425;
}
);
unicode = 1567;
}
{
glyphname = "hamza-ar";
layers = (
{
anchors = (
{
name = bottom;
pos = (237,-86);
},
{
name = top.far;
pos = (209,321);
},
{
name = top.near;
pos = (206,326);
}
);
layerId = master01;
shapes = (
{
closed = 1;
nodes = (
(159,-16,o),
(195,-9,o),
(231,-3,cs),
(267,3,o),
(324,9,o),
(372,14,cs),
(397,16,o),
(419,33,o),
(419,62,cs),
(419,74,o),
(414,86,o),
(404,97,c),
(394,96,o),
(382,94,o),
(366,92,cs),
(336,87,o),
(301,81,o),
(269,72,cs),
(259,70,o),
(250,68,o),
(242,65,c),
(223,70,o),
(199,79,o),
(184,87,cs),
(161,100,o),
(146,118,o),
(135,143,c),
(163,180,o),
(209,207,o),
(248,207,cs),
(260,207,o),
(281,203,o),
(289,195,c),
(288,185,o),
(286,178,o),
(281,170,c),
(292,165,o),
(298,162,o),
(311,158,c),
(318,170,o),
(323,188,o),
(323,203,cs),
(323,252,o),
(291,277,o),
(244,277,cs),
(228,277,o),
(213,273,o),
(199,267,cs),
(141,242,o),
(97,172,o),
(97,116,cs),
(97,93,o),
(109,71,o),
(127,53,cs),
(131,49,o),
(138,44,o),
(146,39,c),
(106,25,o),
(79,15,o),
(54,5,c),
(68,-37,l)
);
}
);
width = 437;
},
{
anchors = (
{
name = bottom;
pos = (256,-81);
},
{
name = top.far;
pos = (233,390);
},
{
name = top.near;
pos = (236,385);
}
);
layerId = "26E2967D-790C-4793-AF2A-2D0AD74EDC69";
shapes = (
{
closed = 1;
nodes = (
(156,-21,o),
(207,-14,o),
(255,-10,cs),
(305,-4,o),
(349,-2,o),
(379,1,cs),
(411,4,o),
(431,33,o),
(431,64,cs),
(431,86,o),
(419,109,o),
(408,121,c),
(398,120,o),
(386,118,o),
(374,116,cs),
(350,112,o),
(325,107,o),
(301,102,cs),
(292,100,o),
(282,97,o),
(273,95,c),
(260,95,o),
(233,100,o),
(221,104,cs),
(195,111,o),
(178,121,o),
(159,145,c),
(192,191,o),
(224,205,o),
(255,205,cs),
(265,205,o),
(277,203,o),
(290,198,c),
(288,189,o),
(287,182,o),
(285,174,c),
(295,168,o),
(312,161,o),
(330,156,c),
(347,174,o),
(354,201,o),
(354,221,cs),
(354,276,o),
(312,312,o),
(260,312,cs),
(246,312,o),
(233,309,o),
(220,303,cs),
(156,272,o),
(108,186,o),
(108,118,cs),
(108,99,o),
(114,82,o),
(125,66,cs),
(130,60,o),
(135,54,o),
(141,49,c),
(131,45,o),
(85,25,o),
(68,17,c),
(85,-32,l)
);
}
);
width = 452;
}
);
unicode = (1569,65152);
}
{
glyphname = "alef-ar";
layers = (
{
anchors = (
{
name = bottom;
pos = (127,-70);
},
{
name = bottom.dot;
pos = (127,-75);
},
{
name = top.far;
pos = (120,711);
},
{
name = top.near;
pos = (120,691);
}
);
layerId = master01;
shapes = (
{
closed = 1;
nodes = (
(150,8,l),
(159,230,o),
(159,380,o),
(151,529,c),
(178,552,l),
(162,599,o),
(148,645,o),
(143,671,c),
(91,661,o),
(72,636,o),
(77,582,cs),
(92,428,o),
(100,234,o),
(104,0,c)
);
}
);
width = 238;
},
{
anchors = (
{
name = bottom;
pos = (151,-90);
},
{
name = bottom.dot;
pos = (151,-81);
},
{
name = top.far;
pos = (140,720);
},
{
name = top.near;
pos = (141,699);
}
);
background = {
anchors = (
{
name = bottom.dot;
pos = (151,-58);
}
);
};
layerId = "26E2967D-790C-4793-AF2A-2D0AD74EDC69";
shapes = (
{
closed = 1;
nodes = (
(185,17,l),
(192,245,o),
(193,420,o),
(190,531,c),
(225,557,l),
(209,597,o),
(195,638,o),
(184,680,c),
(124,680,o),
(71,645,o),
(77,595,cs),
(96,404,o),
(107,284,o),
(121,9,c)
);
}
);
width = 284;
}
);
unicode = (1575,65165);
}
{
glyphname = "hah-ar";
layers = (
{
anchors = (
{
name = bottom;
pos = (346,-336);
},
{
name = center;
pos = (375,-6);
},
{
name = top.far;
pos = (342,591);
},
{
name = top.near;
pos = (342,390);
}
);
background = {
anchors = (
{
name = top;
pos = (342,480);
}
);
};
layerId = master01;
shapes = (
{
closed = 1;
nodes = (
(438,-287,o),
(521,-264,o),
(619,-210,c),
(607,-177,l),
(527,-195,o),
(445,-205,o),
(363,-205,cs),
(210,-205,o),
(136,-147,o),
(136,-42,cs),
(136,24,o),
(178,87,o),
(251,138,cs),
(324,189,o),
(429,226,o),
(512,232,c),
(530,232,o),
(549,233,o),
(568,236,c),
(597,313,l),
(531,311,ls),
(469,311,o),
(413,329,o),
(357,346,cs),
(301,363,o),
(246,381,o),
(189,381,cs),
(117,381,o),
(68,347,o),
(68,297,cs),
(68,281,o),
(75,266,o),
(83,259,c),
(131,289,o),
(152,297,o),
(192,297,cs),
(235,297,o),
(309,270,o),
(333,261,c),
(291,245,o),
(252,221,o),
(216,190,cs),
(144,127,o),
(101,41,o),
(101,-42,cs),
(101,-201,o),
(195,-287,o),
(360,-287,cs)
);
}
);
width = 636;
},
{
anchors = (
{
name = bottom;
pos = (373,-337);
},
{
name = center;
pos = (385,-1);
},
{
name = top.far;
pos = (342,596);
},
{
name = top.near;
pos = (342,413);
}
);
layerId = "26E2967D-790C-4793-AF2A-2D0AD74EDC69";
shapes = (
{
closed = 1;
nodes = (
(415,-288,o),
(520,-247,o),
(630,-184,c),
(616,-142,l),
(523,-163,o),
(443,-173,o),
(375,-173,cs),
(247,-173,o),
(156,-119,o),
(156,-29,cs),
(156,27,o),
(190,81,o),
(249,128,cs),
(308,175,o),
(397,213,o),
(464,224,c),
(497,221,o),
(559,222,o),
(585,226,c),
(626,338,l),
(535,336,ls),
(484,336,o),
(433,347,o),
(361,374,cs),
(287,400,o),
(245,410,o),
(201,410,cs),
(119,410,o),
(68,372,o),
(68,312,cs),
(68,290,o),
(79,264,o),
(91,252,c),
(138,281,o),
(160,291,o),
(199,291,cs),
(236,291,o),
(272,277,o),
(318,260,c),
(277,240,o),
(242,215,o),
(212,187,cs),
(143,124,o),
(105,42,o),
(105,-44,cs),
(105,-197,o),
(204,-288,o),
(373,-288,cs)
);
}
);
width = 655;
}
);
unicode = (1581,65185);
}
{
glyphname = "dal-ar";
layers = (
{
anchors = (
{
name = bottom;
pos = (208,-100);
},
{
name = bottom.dot;
pos = (209,-21);
},
{
name = top.far;
pos = (219,587);
},
{
name = top.near;
pos = (220,406);
}
);
layerId = master01;
shapes = (
{
closed = 1;
nodes = (
(228,0,o),
(288,13,o),
(336,39,c),
(359,81,o),
(372,121,o),
(372,141,cs),
(372,171,o),
(357,208,o),
(337,251,cs),
(321,288,o),
(290,354,o),
(273,398,c),
(238,387,o),
(221,365,o),
(221,332,cs),
(221,299,o),
(229,284,o),
(282,188,cs),
(299,157,o),
(313,126,o),
(324,97,c),
(278,83,o),
(232,76,o),
(188,76,cs),
(125,76,o),
(85,89,o),
(52,116,c),
(40,103,o),
(34,85,o),
(34,63,cs),
(34,23,o),
(75,0,o),
(156,0,cs)
);
}
);
width = 414;
},
{
anchors = (
{
name = bottom;
pos = (214,-100);
},
{
name = bottom.dot;
pos = (215,-18);
},
{
name = top.far;
pos = (229,637);
},
{
name = top.near;
pos = (229,456);
}
);
layerId = "26E2967D-790C-4793-AF2A-2D0AD74EDC69";
shapes = (
{
closed = 1;
nodes = (
(238,0,o),
(309,15,o),
(357,39,c),
(373,70,o),
(392,131,o),
(392,149,cs),
(392,185,o),
(377,229,o),
(358,280,cs),
(341,324,o),
(312,398,o),
(297,450,c),
(253,437,o),
(213,393,o),
(213,350,cs),
(213,324,o),
(239,283,o),
(277,229,cs),
(292,208,o),
(309,178,o),
(331,140,c),
(287,126,o),
(243,119,o),
(200,119,cs),
(137,119,o),
(97,132,o),
(64,159,c),
(47,141,o),
(34,106,o),
(34,78,cs),
(34,26,o),
(79,0,o),
(168,0,cs)
);
}
);
width = 435;
}
);
unicode = (1583,65193);
}
{
glyphname = "reh-ar";
layers = (
{
anchors = (
{
name = bar;
pos = (229,-25);
},
{
name = bottom;
pos = (116,-258);
},
{
name = bottom.dot;
pos = (116,-212);
},
{
name = center;
pos = (139,95);
},
{
name = ring;
pos = (204,-146);
},
{
name = top.far;
pos = (201,538);
},
{
name = top.near;
pos = (205,345);
}
);
layerId = master01;
shapes = (
{
closed = 1;
nodes = (
(152,-204,o),
(190,-192,o),
(225,-167,cs),
(293,-118,o),
(335,-23,o),
(335,81,cs),
(335,118,o),
(321,165,o),
(304,212,cs),
(290,251,o),
(267,309,o),
(259,341,c),
(222,323,o),
(201,305,o),
(201,271,cs),
(201,238,o),
(221,193,o),
(267,112,cs),
(279,91,o),
(289,70,o),
(298,49,c),
(260,-65,o),
(188,-126,o),
(88,-126,cs),
(61,-126,o),
(30,-122,o),
(-7,-115,c),
(-20,-148,l),
(12,-173,o),
(79,-204,o),
(111,-204,cs)
);
}
);
width = 386;
},
{
anchors = (
{
name = bar;
pos = (229,-16);
},
{
name = bottom;
pos = (102,-258);
},
{
name = bottom.dot;
pos = (102,-208);
},
{
name = center;
pos = (131,91);
},
{
name = ring;
pos = (226,-126);
},
{
name = top.far;
pos = (199,592);
},
{
name = top.near;
pos = (203,389);
}
);
layerId = "26E2967D-790C-4793-AF2A-2D0AD74EDC69";
shapes = (
{
closed = 1;
nodes = (
(146,-195,o),
(186,-183,o),
(222,-158,cs),
(293,-108,o),
(335,-15,o),
(335,89,cs),
(335,132,o),
(322,180,o),
(305,230,cs),
(291,271,o),
(267,341,o),
(256,383,c),
(207,358,o),
(173,317,o),
(173,278,cs),
(173,235,o),
(209,179,o),
(248,119,cs),
(261,99,o),
(272,78,o),
(282,58,c),
(251,-35,o),
(182,-86,o),
(83,-86,cs),
(52,-86,o),
(18,-81,o),
(-18,-72,c),
(-34,-114,l),
(24,-163,o),
(79,-195,o),
(102,-195,cs)
);
}
);
width = 377;
}
);
unicode = (1585,65197);
}
{
glyphname = "seen-ar";
layers = (
{
anchors = (
{
name = bottom;
pos = (722,-100);
},
{
name = bottom.dot;
pos = (722,-31);
},
{
name = top.digit;
pos = (711,466);
},
{
name = top.far;
pos = (711,466);
},
{
name = top.near;
pos = (719,275);
}
);
layerId = master01;
shapes = (
{
closed = 1;
nodes = (
(297,-262,o),
(344,-250,o),
(389,-226,cs),
(480,-179,o),
(535,-99,o),
(535,-17,cs),
(535,2,l),
(547,1,o),
(559,0,o),
(571,0,cs),
(605,0,o),
(634,2,o),
(658,7,cs),
(683,12,o),
(698,18,o),
(703,27,cs),
(712,43,l),
(784,10,o),
(838,0,o),
(924,0,c),
(943,37,o),
(962,102,o),
(962,123,cs),
(962,154,o),
(955,189,o),
(947,225,cs),
(940,256,o),
(928,308,o),
(923,340,c),
(882,317,o),
(857,285,o),
(857,256,cs),
(857,246,o),
(864,223,o),
(877,188,cs),
(895,143,o),
(907,106,o),
(915,79,c),
(853,79,o),
(805,88,o),
(739,118,c),
(758,183,o),
(773,225,o),
(782,245,c),
(775,250,o),
(767,252,o),
(758,252,cs),
(736,252,o),
(729,245,o),
(718,219,cs),
(711,205,o),
(699,170,o),
(683,115,cs),
(679,102,o),
(675,93,o),
(671,86,c),
(649,80,o),
(620,76,o),
(583,76,cs),
(563,76,o),
(543,79,o),
(523,85,c),
(506,170,o),
(501,198,o),
(498,226,c),
(450,197,o),
(433,171,o),
(433,137,cs),
(433,105,o),
(454,41,o),
(498,-54,c),
(465,-125,o),
(350,-179,o),
(251,-179,cs),
(164,-179,o),
(113,-122,o),
(113,-24,cs),
(113,-6,o),
(117,18,o),
(124,47,c),
(87,56,l),
(71,-10,o),
(68,-35,o),
(68,-74,cs),
(68,-194,o),
(135,-262,o),
(249,-262,cs)
);
}
);
width = 1013;
},
{
anchors = (
{
name = bottom;
pos = (742,-110);
},
{
name = bottom.dot;
pos = (742,-38);
},
{
name = top.digit;
pos = (731,528);
},
{
name = top.far;
pos = (731,528);
},
{
name = top.near;
pos = (735,337);
}
);
layerId = "26E2967D-790C-4793-AF2A-2D0AD74EDC69";
shapes = (
{
closed = 1;
nodes = (
(306,-252,o),
(357,-242,o),
(403,-220,cs),
(495,-177,o),
(552,-96,o),
(552,-7,cs),
(552,2,l),
(563,1,o),
(574,0,o),
(585,0,cs),
(620,0,o),
(649,3,o),
(674,8,cs),
(698,13,o),
(713,20,o),
(718,29,cs),
(729,51,l),
(795,21,o),
(886,0,o),
(968,0,c),
(988,38,o),
(1010,111,o),
(1010,142,cs),
(1010,160,o),
(1005,195,o),
(995,248,cs),
(986,292,o),
(977,338,o),
(968,383,c),
(918,358,o),
(877,313,o),
(877,281,cs),
(877,254,o),
(892,227,o),
(908,197,cs),
(923,168,o),
(938,139,o),
(952,110,c),
(873,118,o),
(816,129,o),
(765,155,c),
(784,214,o),
(799,262,o),
(808,283,c),
(796,290,o),
(783,293,o),
(770,293,cs),
(747,293,o),
(731,284,o),
(724,265,cs),
(714,241,o),
(705,217,o),
(695,192,cs),
(683,161,o),
(674,140,o),
(668,130,c),
(632,119,o),
(623,119,o),
(597,119,cs),
(580,119,o),
(560,121,o),
(537,124,c),
(524,196,o),
(516,244,o),
(513,270,c),
(444,236,o),
(412,194,o),
(412,138,cs),
(412,111,o),
(451,43,o),
(497,-45,c),
(426,-109,o),
(359,-134,o),
(254,-134,cs),
(165,-134,o),
(123,-88,o),
(123,7,cs),
(123,30,o),
(128,57,o),
(137,87,c),
(93,98,l),
(76,35,o),
(68,-13,o),
(68,-47,cs),
(68,-180,o),
(132,-252,o),
(251,-252,cs)
);
}
);
width = 1061;
}
);
unicode = (1587,65201);
}
{
glyphname = "sad-ar";
layers = (
{
anchors = (
{
name = bottom;
pos = (772,-100);
},
{
name = bottom.dot;
pos = (772,-31);
},
{
name = top.far;
pos = (721,586);
},
{
name = top.near;
pos = (729,395);
}
);
layerId = master01;
shapes = (
{
closed = 1;
nodes = (
(297,-262,o),
(344,-250,o),
(389,-226,cs),
(480,-179,o),
(535,-99,o),
(535,-17,cs),
(535,-3,o),
(534,10,o),
(533,24,c),
(592,8,o),
(656,0,o),
(723,0,cs),
(781,0,o),
(836,9,o),
(888,28,cs),
(993,66,o),
(1044,130,o),
(1044,211,cs),
(1044,229,o),
(1034,249,o),
(1014,272,cs),
(974,319,o),
(909,357,o),
(868,357,cs),
(780,357,o),
(675,278,o),
(541,103,c),
(518,111,l),
(507,168,o),
(501,207,o),
(498,226,c),
(450,197,o),
(433,171,o),
(433,137,cs),
(433,105,o),
(454,41,o),
(498,-54,c),
(465,-125,o),
(350,-179,o),
(251,-179,cs),
(164,-179,o),
(113,-122,o),
(113,-24,cs),
(113,-6,o),
(117,18,o),
(124,47,c),
(87,56,l),
(71,-10,o),
(68,-35,o),
(68,-74,cs),
(68,-194,o),
(135,-262,o),
(249,-262,cs)
);
},
{
closed = 1;
nodes = (
(691,76,o),
(643,81,o),
(588,90,c),
(683,204,o),
(778,273,o),
(843,273,cs),
(898,273,o),
(959,232,o),
(1000,162,c),
(908,105,o),
(819,76,o),
(732,76,cs)
);
}
);
width = 1096;
},
{
anchors = (
{
name = bottom;
pos = (792,-110);
},
{
name = bottom.dot;
pos = (792,-38);
},
{
name = top.far;
pos = (741,606);
},
{
name = top.near;
pos = (749,415);
}
);
layerId = "26E2967D-790C-4793-AF2A-2D0AD74EDC69";
shapes = (
{
closed = 1;
nodes = (
(306,-252,o),
(357,-242,o),
(403,-220,cs),
(495,-177,o),
(552,-96,o),
(552,-7,c),
(552,3,o),
(551,13,o),
(551,23,c),
(617,8,o),
(680,0,o),
(741,0,cs),
(801,0,o),
(858,10,o),
(914,30,cs),
(1025,69,o),
(1081,139,o),
(1081,226,cs),
(1081,245,o),
(1069,269,o),
(1045,297,cs),
(997,354,o),
(927,400,o),
(878,400,cs),
(800,400,o),
(694,312,o),
(561,135,c),
(534,144,l),
(521,217,o),
(513,268,o),
(513,270,c),
(444,236,o),
(412,194,o),
(412,144,cs),
(412,106,o),
(450,43,o),
(497,-45,c),
(426,-109,o),
(359,-134,o),
(254,-134,cs),
(165,-134,o),
(123,-88,o),
(123,7,cs),
(123,30,o),
(128,57,o),
(137,87,c),
(93,98,l),
(76,35,o),
(68,-13,o),
(68,-47,cs),
(68,-180,o),
(132,-252,o),
(251,-252,cs)
);
},
{
closed = 1;
nodes = (
(717,110,o),
(675,114,o),
(626,120,c),
(693,197,o),
(783,282,o),
(854,282,cs),
(906,282,o),
(963,248,o),
(1022,179,c),
(925,132,o),
(847,110,o),
(751,110,cs)
);
}
);
width = 1131;
}
);
unicode = (1589,65209);
}
{
glyphname = "tah-ar";
layers = (
{
anchors = (
{
name = bottom;
pos = (392,-100);
},
{
name = bottom.dot;
pos = (392,-31);
},
{
name = top.far;
pos = (511,586);
},
{
name = top.near;
pos = (519,395);
}
);
layerId = master01;
shapes = (
{
closed = 1;
nodes = (
(454,0,o),
(509,9,o),
(561,28,cs),
(666,65,o),
(718,129,o),
(718,211,cs),
(718,230,o),
(707,251,o),
(686,275,cs),
(642,323,o),
(579,357,o),
(542,357,cs),
(476,357,o),
(396,307,o),
(302,207,c),
(301,232,o),
(300,258,o),
(298,286,cs),
(295,321,o),
(279,466,o),
(272,529,c),
(299,552,l),
(281,608,o),
(271,639,o),
(264,671,c),
(217,662,o),
(197,637,o),
(197,592,cs),
(197,540,o),
(219,396,o),
(262,162,c),
(243,139,o),
(224,115,o),
(204,90,c),
(152,98,o),
(102,109,o),
(53,121,c),
(42,86,l),
(82,58,o),
(157,19,o),
(192,12,cs),
(226,6,o),
(315,0,o),
(396,0,cs)
);
},
{
closed = 1;
nodes = (
(356,76,o),
(306,78,o),
(255,83,c),
(354,203,o),
(451,273,o),
(517,273,cs),
(572,273,o),
(633,232,o),
(673,162,c),
(582,105,o),
(493,76,o),
(406,76,cs)
);
}
);
width = 769;
},
{
anchors = (
{
name = bottom;
pos = (402,-110);
},
{
name = bottom.dot;
pos = (402,-38);
},
{
name = top.far;
pos = (501,616);
},
{
name = top.near;
pos = (509,425);
}
);
layerId = "26E2967D-790C-4793-AF2A-2D0AD74EDC69";
shapes = (
{
closed = 1;
nodes = (
(463,0,o),
(520,10,o),
(576,30,cs),
(686,71,o),
(741,138,o),
(741,226,cs),
(741,244,o),
(729,268,o),
(706,297,cs),
(658,354,o),
(587,400,o),
(539,400,cs),
(478,400,o),
(399,346,o),
(304,238,c),
(302,262,o),
(301,282,o),
(300,299,cs),
(288,461,o),
(296,352,o),
(282,533,c),
(314,557,l),
(298,597,o),
(285,638,o),
(273,680,c),
(217,680,o),
(172,637,o),
(172,582,cs),
(172,544,o),
(200,414,o),
(252,175,c),
(239,158,o),
(226,140,o),
(212,123,c),
(173,129,o),
(119,139,o),
(49,156,c),
(34,113,l),
(86,67,o),
(148,24,o),
(175,16,cs),
(209,6,o),
(325,0,o),
(402,0,cs)
);
},
{
closed = 1;
nodes = (
(370,110,o),
(327,112,o),
(283,115,c),
(385,231,o),
(458,282,o),
(514,282,cs),
(567,282,o),
(624,248,o),
(684,179,c),
(589,133,o),
(510,110,o),
(412,110,cs)
);
}
);
width = 792;
}
);
unicode = (1591,65217);
}
{
glyphname = "ain-ar";
layers = (
{
anchors = (
{
name = bottom;
pos = (365,-342);
},
{
name = center;
pos = (371,-24);
},
{
name = top.far;
pos = (229,663);
},
{
name = top.near;
pos = (229,482);
}
);
layerId = master01;
shapes = (
{
closed = 1;
nodes = (
(451,-286,o),
(537,-260,o),
(629,-209,c),
(618,-175,l),
(567,-187,o),
(520,-195,o),
(468,-199,cs),
(439,-202,o),
(408,-203,o),
(375,-203,cs),
(227,-203,o),
(150,-149,o),
(150,-54,cs),
(150,-25,o),
(159,2,o),
(175,29,cs),
(205,76,o),
(260,117,o),
(360,160,cs),
(395,173,o),
(425,186,o),
(444,200,cs),
(464,214,o),
(471,229,o),
(471,246,cs),
(471,257,o),
(467,267,o),
(460,277,c),
(392,255,o),
(334,229,o),
(285,199,c),
(187,215,o),
(130,269,o),
(130,348,c),
(174,372,o),
(217,384,o),
(258,384,cs),
(282,384,o),
(313,378,o),
(353,366,c),
(370,398,l),
(311,446,o),
(280,464,o),
(233,464,cs),
(206,464,o),
(180,455,o),
(156,435,cs),
(106,397,o),
(73,328,o),
(73,271,cs),
(73,249,o),
(78,229,o),
(90,210,cs),
(113,172,o),
(154,141,o),
(195,129,c),
(141,71,o),
(114,5,o),
(114,-70,cs),
(114,-201,o),
(216,-286,o),
(372,-286,cs)
);
}
);
width = 604;
},
{
anchors = (
{
name = bottom;
pos = (365,-342);
},
{
name = center;
pos = (374,-40);
},
{
name = top.far;
pos = (239,666);
},
{
name = top.near;
pos = (239,485);
}
);
layerId = "26E2967D-790C-4793-AF2A-2D0AD74EDC69";
shapes = (
{
closed = 1;
nodes = (
(408,-301,o),
(498,-263,o),
(613,-192,c),
(600,-150,l),
(530,-166,o),
(481,-176,o),
(453,-180,cs),
(424,-184,o),
(396,-186,o),
(369,-186,cs),
(236,-186,o),
(164,-141,o),
(164,-65,cs),
(164,-41,o),
(171,-17,o),
(185,5,cs),
(213,49,o),
(263,82,o),
(379,128,cs),
(415,143,o),
(439,154,o),
(450,162,cs),
(475,179,o),
(486,201,o),
(486,229,cs),
(486,253,o),
(482,270,o),
(475,280,c),
(403,256,o),
(339,227,o),
(281,193,c),
(205,211,o),
(158,261,o),
(154,333,c),
(197,356,o),
(229,365,o),
(276,365,cs),
(306,365,o),
(341,358,o),
(381,342,c),
(402,382,l),
(347,444,o),
(296,475,o),
(250,475,cs),
(223,475,o),
(197,465,o),
(172,444,cs),
(121,402,o),
(83,321,o),
(83,261,cs),
(83,244,o),
(87,227,o),
(95,209,cs),
(111,173,o),
(145,138,o),
(188,118,c),
(138,64,o),
(113,1,o),
(113,-71,cs),
(113,-212,o),
(210,-301,o),
(367,-301,cs)
);
}
);
width = 604;
}
);
unicode = (1593,65225);
}
{
glyphname = "kashida-ar";
layers = (
{
anchors = (
{
name = bottom;
pos = (99,-100);
},
{
name = bottom.dot;
pos = (109,-37);
},
{
name = top.far;
pos = (99,252);
},
{
name = top.near;
pos = (99,252);
}
);
layerId = master01;
shapes = (
{
closed = 1;
nodes = (
(210,0,ls),
(216,0,o),
(219,3,o),
(219,8,cs),
(219,68,ls),
(219,73,o),
(216,76,o),
(210,76,cs),
(0,76,ls),
(-6,76,o),
(-8,73,o),
(-8,68,cs),
(-8,8,ls),
(-8,3,o),
(-6,0,o),
(0,0,cs)
);
}
);
width = 210;
},
{
anchors = (
{
name = bottom;
pos = (99,-135);
},
{
name = bottom.dot;
pos = (119,-33);
},
{
name = top.far;
pos = (99,261);
},
{
name = top.near;
pos = (99,261);
}
);
layerId = "26E2967D-790C-4793-AF2A-2D0AD74EDC69";
shapes = (
{
closed = 1;
nodes = (
(215,9,ls),
(221,9,o),
(224,12,o),
(224,17,cs),
(224,119,ls),
(224,125,o),
(221,127,o),
(215,127,cs),
(0,127,ls),
(-6,127,o),
(-8,125,o),
(-8,119,cs),
(-8,17,ls),
(-8,12,o),
(-6,9,o),
(0,9,cs)
);
}
);
width = 210;
}
);
unicode = 1600;
}
{
glyphname = "kaf-ar";
layers = (
{
anchors = (
{
name = bottom;
pos = (264,-100);
},
{
name = bottom.dot;
pos = (264,-31);
},
{
name = top.far;
pos = (231,438);
},
{
name = top.near;
pos = (231,417);
}
);
layerId = master01;
shapes = (
{
closed = 1;
nodes = (
(309,0,o),
(388,6,o),
(462,17,c),
(483,44,o),
(498,71,o),
(498,108,cs),
(498,147,o),
(485,287,o),
(459,530,c),
(485,552,l),
(473,592,o),
(456,646,o),
(450,671,c),
(402,660,o),
(384,636,o),
(384,592,cs),
(384,552,o),
(402,419,o),
(419,333,cs),
(433,254,o),
(447,175,o),
(460,96,c),
(388,83,o),
(316,76,o),
(245,76,cs),
(173,76,o),
(85,85,o),
(33,97,c),
(25,84,o),
(17,43,o),
(17,20,cs),
(17,14,o),
(41,10,o),
(90,6,cs),
(138,2,o),
(184,0,o),
(226,0,cs)
);
},
{
closed = 1;
nodes = (
(228,194,o),
(296,247,o),
(296,274,cs),
(296,282,o),
(294,288,o),
(287,293,cs),
(270,305,o),
(227,304,o),
(205,315,c),
(209,336,o),
(240,364,o),
(256,364,cs),
(261,364,o),
(265,362,o),
(268,359,c),
(284,366,l),
(279,384,o),
(268,394,o),
(250,394,cs),
(213,394,o),
(172,348,o),
(172,316,cs),
(172,276,o),
(208,269,o),
(271,268,c),
(267,260,o),
(259,253,o),
(249,246,cs),
(226,230,o),
(192,217,o),
(157,214,c),
(157,203,o),
(163,194,o),
(180,194,cs)
);
}
);
width = 558;
},
{
anchors = (
{
name = bottom;
pos = (295,-110);
},
{
name = bottom.dot;
pos = (295,-38);
},
{
name = top.far;
pos = (264,468);
},
{
name = top.near;
pos = (264,447);
}
);
layerId = "26E2967D-790C-4793-AF2A-2D0AD74EDC69";
shapes = (
{
closed = 1;
nodes = (
(358,1,o),
(443,6,o),
(520,17,c),
(543,46,o),
(559,96,o),
(559,130,cs),
(559,187,o),
(548,321,o),
(527,533,c),
(559,557,l),
(544,594,o),
(531,635,o),
(519,680,c),
(459,680,o),
(411,634,o),
(411,577,cs),
(411,547,o),
(437,424,o),
(452,366,cs),
(458,339,o),
(476,267,o),
(508,139,c),
(435,126,o),
(360,119,o),
(283,119,cs),
(212,119,o),
(112,128,o),
(60,140,c),
(46,112,o),
(34,59,o),
(34,20,cs),
(34,15,o),
(62,10,o),
(116,7,cs),
(171,3,o),
(220,1,o),
(264,1,cs)
);
},
{
closed = 1;
nodes = (
(262,225,o),
(331,278,o),
(331,306,cs),
(331,313,o),
(328,320,o),
(321,324,cs),
(304,337,o),
(261,336,o),
(239,346,c),
(244,368,o),
(275,395,o),
(291,395,cs),
(295,395,o),
(299,393,o),
(302,390,c),
(318,397,l),
(314,416,o),
(303,425,o),
(285,425,cs),
(248,425,o),
(206,380,o),
(206,348,cs),
(206,308,o),
(242,300,o),
(305,299,c),
(301,292,o),
(294,285,o),
(283,277,cs),
(260,262,o),
(226,248,o),
(191,245,c),
(191,234,o),
(198,225,o),
(214,225,cs)
);
}
);
width = 618;
}
);
unicode = (1603,65241);
}
{
glyphname = "lam-ar";
layers = (
{
anchors = (
{
name = bar;
pos = (450,335);
},
{
name = bottom;
pos = (268,-328);
},
{
name = bottom.dot;
pos = (268,-273);
},
{
name = top.far;
pos = (228,584);
},
{
name = top.near;
pos = (434,660);
}
);
layerId = master01;
shapes = (
{
closed = 1;
nodes = (
(297,-262,o),
(343,-250,o),
(388,-226,cs),
(478,-179,o),
(533,-99,o),
(533,-17,cs),
(533,42,o),
(524,120,o),
(513,220,cs),
(479,532,l),
(502,552,l),
(490,591,o),
(475,641,o),
(466,671,c),
(421,661,o),
(401,638,o),
(401,593,cs),
(401,527,o),
(442,278,o),
(470,107,cs),
(496,-54,l),
(485,-77,o),
(466,-98,o),
(440,-117,cs),
(388,-156,o),
(315,-179,o),
(251,-179,cs),
(164,-179,o),
(113,-122,o),
(113,-24,cs),
(113,-6,o),
(117,18,o),
(124,47,c),
(87,56,l),
(71,-10,o),
(68,-35,o),
(68,-74,cs),
(68,-194,o),
(135,-262,o),
(249,-262,cs)
);
}
);
width = 595;
},
{
anchors = (
{
name = bar;
pos = (450,345);
},
{
name = bottom;
pos = (268,-311);
},
{
name = bottom.dot;
pos = (268,-256);
},
{
name = top.far;
pos = (228,584);
},
{
name = top.near;
pos = (430,669);
}
);
layerId = "26E2967D-790C-4793-AF2A-2D0AD74EDC69";
shapes = (
{
closed = 1;
nodes = (
(305,-252,o),
(355,-242,o),
(401,-220,cs),
(492,-178,o),
(549,-97,o),
(549,-7,cs),
(549,66,o),
(541,123,o),
(532,221,cs),
(502,533,l),
(534,557,l),
(519,594,o),
(506,635,o),
(494,680,c),
(435,680,o),
(386,634,o),
(386,578,cs),
(386,551,o),
(443,219,o),
(471,72,cs),
(493,-45,l),
(472,-64,o),
(451,-81,o),
(430,-93,cs),
(380,-122,o),
(326,-134,o),
(253,-134,cs),
(165,-134,o),
(123,-88,o),
(123,7,cs),
(123,30,o),
(127,57,o),
(136,87,c),
(92,98,l),
(76,35,o),
(67,-13,o),
(67,-47,cs),
(67,-180,o),
(131,-252,o),
(251,-252,cs)
);
}
);
width = 612;
}
);
unicode = (1604,65245);
}
{
glyphname = "meem-ar";
layers = (
{
anchors = (
{
name = bottom;
pos = (294,-100);
},
{
name = bottom.dot;
pos = (293,-31);
},
{
name = top.far;
pos = (236,552);
},
{
name = top.near;
pos = (237,361);
}
);
layerId = master01;
shapes = (
{
closed = 1;
nodes = (
(113,-295,o),
(135,-282,o),
(154,-268,c),
(148,-219,o),
(139,-162,o),
(126,-97,cs),
(119,-58,o),
(113,-20,o),
(106,20,c),
(180,45,o),
(271,58,o),
(412,58,c),
(450,160,l),
(415,186,o),
(382,224,o),
(339,284,cs),
(305,329,o),
(278,349,o),
(248,349,cs),
(192,349,o),
(139,298,o),
(104,208,c),
(136,192,l),
(170,245,o),
(197,266,o),
(229,266,cs),
(259,266,o),
(295,231,o),
(337,162,c),
(358,131,l),
(241,131,o),
(173,120,o),
(100,98,c),
(83,63,o),
(68,30,o),
(68,5,cs),
(68,-10,o),
(71,-51,o),
(77,-118,cs),
(83,-191,o),
(87,-254,o),
(87,-305,c)
);
}
);
width = 489;
},
{
anchors = (
{
name = bottom;
pos = (298,-110);
},
{
name = bottom.dot;
pos = (298,-38);
},
{
name = top.far;
pos = (228,536);
},
{
name = top.near;
pos = (230,395);
}
);
background = {
anchors = (
{
name = top;
pos = (248,516);
},
{
name = top.dot;
pos = (250,425);
}
);
};
layerId = "26E2967D-790C-4793-AF2A-2D0AD74EDC69";
shapes = (
{
closed = 1;
nodes = (
(107,-316,o),
(140,-297,o),
(175,-272,c),
(163,-213,o),
(151,-155,o),
(139,-97,cs),
(131,-60,o),
(123,-22,o),
(115,15,c),
(162,32,o),
(312,51,o),
(422,51,c),
(468,170,l),
(427,199,o),
(391,241,o),
(348,304,cs),
(308,361,o),
(282,383,o),
(250,383,cs),
(195,383,o),
(137,318,o),
(99,219,c),
(140,198,l),
(172,243,o),
(200,266,o),
(231,266,cs),
(263,266,o),
(287,221,o),
(324,180,cs),
(343,159,l),
(289,159,o),
(102,136,o),
(93,118,cs),
(65,58,o),
(51,18,o),
(51,0,cs),
(51,-24,o),
(55,-70,o),
(62,-138,cs),
(70,-205,o),
(74,-268,o),
(74,-328,c)
);
}
);
width = 502;
}
);
unicode = (1605,65249);
}
{
glyphname = "waw-ar";
layers = (
{
anchors = (
{
name = bottom;
pos = (193,-252);
},
{
name = top.far;
pos = (256,537);
},
{
name = top.near;
pos = (256,346);
}
);
layerId = master01;
shapes = (
{
closed = 1;
nodes = (
(232,-203,o),
(269,-190,o),
(303,-165,cs),
(371,-114,o),
(417,-14,o),
(417,81,cs),
(417,122,o),
(410,164,o),
(394,207,cs),
(363,292,o),
(313,340,o),
(261,340,cs),
(239,340,o),
(216,330,o),
(194,310,cs),
(150,269,o),
(120,197,o),
(120,129,cs),
(120,51,o),
(168,0,o),
(245,0,cs),
(292,0,o),
(340,20,o),
(379,57,c),
(380,49,l),
(343,-65,o),
(270,-125,o),
(170,-125,cs),
(125,-125,o),
(84,-119,o),
(48,-106,c),
(34,-139,l),
(70,-170,o),
(150,-203,o),
(193,-203,cs)
);
},
{
closed = 1;
nodes = (
(198,82,o),
(158,109,o),
(158,157,cs),
(158,170,o),
(163,185,o),
(171,200,cs),
(189,232,o),
(218,255,o),
(246,255,cs),
(260,255,o),
(274,250,o),
(288,240,cs),
(322,217,o),
(354,167,o),
(370,104,c),
(323,85,o),
(302,82,o),
(269,82,cs)
);
}
);
width = 468;
},
{
anchors = (
{
name = bottom;
pos = (195,-245);
},
{
name = top.far;
pos = (269,570);
},
{
name = top.near;
pos = (269,379);
}
);
background = {
anchors = (
{
name = top;
pos = (245,454);
},
{
name = top.dot;
pos = (245,384);
}
);
};
layerId = "26E2967D-790C-4793-AF2A-2D0AD74EDC69";
shapes = (
{
closed = 1;
nodes = (
(240,-195,o),
(282,-183,o),
(321,-157,cs),
(398,-106,o),
(445,-12,o),
(445,89,cs),
(445,131,o),
(437,174,o),
(421,219,cs),
(388,309,o),
(333,366,o),
(276,366,cs),
(252,366,o),
(228,355,o),
(206,333,cs),
(160,290,o),
(130,213,o),
(130,138,cs),
(130,50,o),
(177,0,o),
(260,0,cs),
(306,0,o),
(353,25,o),
(392,65,c),
(393,58,l),
(363,-31,o),
(281,-86,o),
(177,-86,cs),
(139,-86,o),
(103,-81,o),
(67,-72,c),
(51,-114,l),
(101,-156,o),
(170,-195,o),
(195,-195,cs)
);
},
{
closed = 1;
nodes = (
(219,110,o),
(184,131,o),
(184,171,cs),
(184,180,o),
(185,189,o),
(188,198,cs),
(199,226,o),
(226,246,o),
(259,246,cs),
(275,246,o),
(290,240,o),
(305,230,cs),
(336,209,o),
(363,164,o),
(375,127,c),
(342,116,o),
(310,110,o),
(280,110,cs)
);
}
);
width = 497;
}
);
unicode = (1608,65261);
}
{
glyphname = "alefMaksura-ar";
layers = (
{
anchors = (
{
name = bottom;
pos = (274,-315);
},
{
name = bottom.dot;
pos = (274,-268);
},
{
name = tail;
pos = (87,56);
},
{
name = top.digit;
pos = (240,314);
},
{
name = top.far;
pos = (204,234);
},
{
name = top.near;
pos = (148,74);
}
);
layerId = master01;
shapes = (
{
closed = 1;
nodes = (
(293,-262,o),
(342,-251,o),
(394,-229,cs),
(499,-185,o),
(583,-108,o),
(583,-47,cs),
(583,-16,o),
(575,5,o),
(553,21,cs),
(533,34,o),
(500,42,o),
(452,49,cs),
(398,57,o),
(361,69,o),
(342,87,c),
(347,112,o),
(360,137,o),
(380,164,cs),
(421,216,o),
(481,258,o),
(516,258,cs),
(532,258,o),
(539,256,o),
(548,243,c),
(584,253,l),
(572,307,o),
(552,340,o),
(507,340,cs),
(481,340,o),
(452,326,o),
(419,297,cs),
(354,240,o),
(306,152,o),
(306,91,cs),
(306,61,o),
(312,37,o),
(325,18,cs),
(351,-20,o),
(394,-33,o),
(495,-41,cs),
(513,-43,o),
(530,-45,o),
(547,-48,c),
(537,-70,o),
(516,-91,o),
(484,-111,cs),
(421,-151,o),
(322,-179,o),
(251,-179,cs),
(164,-179,o),
(113,-122,o),
(113,-24,cs),
(113,-6,o),
(117,18,o),
(124,47,c),
(87,56,l),
(71,-10,o),
(68,-35,o),
(68,-74,cs),
(68,-194,o),
(135,-262,o),
(249,-262,cs)
);
}
);
width = 618;
},
{
anchors = (
{
name = bottom;
pos = (288,-311);
},
{
name = bottom.dot;
pos = (288,-256);
},
{
name = tail;
pos = (93,98);
},
{
name = top.digit;
pos = (235,260);
},
{
name = top.far;
pos = (214,277);
},
{
name = top.near;
pos = (148,104);
}
);
layerId = "26E2967D-790C-4793-AF2A-2D0AD74EDC69";
shapes = (
{
closed = 1;
nodes = (
(304,-252,o),
(357,-240,o),
(410,-215,cs),
(518,-165,o),
(597,-80,o),
(597,-19,cs),
(597,11,o),
(583,48,o),
(563,63,cs),
(543,79,o),
(518,87,o),
(472,93,cs),
(420,99,o),
(380,107,o),
(354,118,c),
(365,145,o),
(380,170,o),
(400,192,cs),
(441,238,o),
(490,266,o),
(526,266,cs),
(538,266,o),
(548,260,o),
(558,247,c),
(602,256,l),
(589,341,o),
(560,385,o),
(514,385,cs),
(485,385,o),
(453,371,o),
(420,344,cs),
(353,288,o),
(303,194,o),
(303,119,cs),
(303,85,o),
(311,58,o),
(327,36,cs),
(355,-1,o),
(411,-22,o),
(500,-27,cs),
(514,-28,o),
(530,-28,o),
(546,-28,c),
(519,-49,o),
(489,-67,o),
(458,-83,cs),
(393,-115,o),
(322,-134,o),
(263,-134,cs),
(170,-134,o),
(123,-86,o),
(123,7,cs),
(123,30,o),
(128,57,o),
(137,87,c),
(93,98,l),
(76,35,o),
(68,-13,o),
(68,-47,cs),
(68,-180,o),
(132,-252,o),
(251,-252,cs)
);
}
);
width = 636;
}
);
unicode = (1609,65263);
}
{
glyphname = "fathatan-ar";
layers = (
{
anchors = (
{
name = _top.far;
pos = (119,739);
},
{
name = top.far;
pos = (100,963);
},
{
name = top.meem;
pos = (84,978);
}
);
layerId = master01;
shapes = (
{
closed = 1;
nodes = (
(14,748,l),
(90,775,o),
(150,799,o),
(193,821,cs),
(210,829,o),
(219,843,o),
(218,863,c),
(216,874,l),
(138,841,o),
(73,815,o),
(17,796,c)
);
},
{
closed = 1;
nodes = (
(0,829,l),
(71,852,o),
(131,874,o),
(178,897,cs),
(195,905,o),
(202,919,o),
(202,940,c),
(200,952,l),
(134,923,o),
(67,897,o),
(2,875,c)
);
}
);
width = 218;
},
{
anchors = (
{
name = _top.far;
pos = (123,756);
},
{
name = top.far;
pos = (100,965);
},
{
name = top.meem;
pos = (77,967);
}
);
layerId = "26E2967D-790C-4793-AF2A-2D0AD74EDC69";
shapes = (
{
closed = 1;
nodes = (
(17,738,l),
(102,772,o),
(164,801,o),
(202,821,c),
(219,833,o),
(227,848,o),
(227,870,c),
(225,885,l),
(185,864,o),
(123,838,o),
(22,796,c)
);
},
{
closed = 1;
nodes = (
(0,821,l),
(86,855,o),
(147,883,o),
(185,904,c),
(202,916,o),
(211,931,o),
(210,953,c),
(208,968,l),
(168,947,o),
(106,921,o),
(5,878,c)
);
}
);
width = 227;
}
);
metricLeft = "=0";
metricRight = "=0";
unicode = 1611;
}
{
glyphname = "dammatan-ar";
layers = (
{
anchors = (
{
name = _top.far;
pos = (145,748);
},
{
name = top3;
pos = (132,942);
}
);
layerId = master01;
shapes = (
{
closed = 1;
nodes = (
(90,748,o),
(135,774,o),
(161,800,c),
(175,799,ls),
(202,797,o),
(214,806,o),
(215,827,c),
(205,827,o),
(195,827,o),
(184,829,c),
(187,834,o),
(188,843,o),
(188,854,cs),
(188,877,o),
(185,893,o),
(178,903,cs),
(170,913,o),
(163,918,o),
(154,918,cs),
(127,918,o),
(96,887,o),
(96,857,cs),
(96,837,o),
(107,823,o),
(133,809,c),
(117,797,o),
(97,788,o),
(73,782,c),
(76,791,o),
(77,800,o),
(77,808,cs),
(77,832,o),
(68,844,o),
(51,844,cs),
(37,844,o),
(20,831,o),
(0,805,c),
(8,795,l),
(26,804,o),
(37,808,o),
(41,808,cs),
(48,808,o),
(51,803,o),
(51,793,c),
(47,767,l),
(47,764,o),
(68,748,o),
(72,748,cs)
);
},
{
closed = 1;
nodes = (
(134,844,o),
(120,856,o),
(120,871,cs),
(120,877,o),
(130,887,o),
(142,887,cs),
(157,887,o),
(163,870,o),
(163,852,cs),
(163,848,o),
(162,844,o),
(161,839,cs),
(160,834,l)
);
}
);
width = 215;
},
{
anchors = (
{
name = _top.far;
pos = (143,748);
},
{
name = top3;
pos = (135,942);
}
);
layerId = "26E2967D-790C-4793-AF2A-2D0AD74EDC69";
shapes = (
{
closed = 1;
nodes = (
(97,738,o),
(140,763,o),
(167,789,c),
(179,788,ls),
(205,786,o),
(217,803,o),
(218,825,c),
(210,825,o),
(202,825,o),
(194,826,c),
(195,830,o),
(196,838,o),
(196,846,cs),
(196,870,o),
(192,886,o),
(186,896,cs),
(177,908,o),
(168,913,o),
(158,913,cs),
(127,913,o),
(96,880,o),
(96,849,cs),
(96,829,o),
(106,815,o),
(128,802,c),
(117,795,o),
(102,788,o),
(85,783,c),
(86,790,o),
(87,795,o),
(87,801,cs),
(87,827,o),
(76,841,o),
(56,841,cs),
(40,841,o),
(21,827,o),
(0,798,c),
(13,783,l),
(31,792,o),
(44,796,o),
(47,796,cs),
(51,796,o),
(52,795,o),
(52,787,c),
(48,761,l),
(48,756,o),
(71,738,o),
(77,738,cs)
);
},
{
closed = 1;
nodes = (
(141,840,o),
(128,851,o),
(128,864,cs),
(128,869,o),
(137,878,o),
(149,878,cs),
(163,878,o),
(169,863,o),
(169,847,cs),
(169,844,o),
(168,840,o),
(167,835,cs),
(166,831,l)
);
}
);
width = 218;
}
);
metricLeft = "=0";
metricRight = "=0";
unicode = 1612;
}
{
glyphname = "kasratan-ar";
layers = (
{
anchors = (
{
name = _bottom;
pos = (79,6);
},
{
name = bottom;
pos = (106,-129);
},
{
name = bottom3;
pos = (102,-134);
}
);
layerId = master01;
shapes = (
{
closed = 1;
nodes = (
(79,-57,o),
(114,-45,o),
(132,-37,cs),
(163,-25,o),
(179,-20,o),
(175,2,cs),
(174,8,l),
(124,-12,o),
(66,-31,o),
(3,-49,c),
(0,-82,l)
);
},
{
closed = 1;
nodes = (
(64,-117,o),
(91,-108,o),
(121,-97,cs),
(163,-82,o),
(182,-76,o),
(182,-50,cs),
(182,-44,l),
(131,-64,o),
(74,-83,o),
(10,-101,c),
(7,-134,l)
);
}
);
width = 0;
},
{
anchors = (
{
name = _bottom;
pos = (79,15);
},
{
name = bottom;
pos = (96,-119);
},
{
name = bottom3;
pos = (102,-125);
}
);
layerId = "26E2967D-790C-4793-AF2A-2D0AD74EDC69";
shapes = (
{
closed = 1;
nodes = (
(76,-57,o),
(116,-43,o),
(138,-33,cs),
(166,-21,o),
(178,-16,o),
(176,4,cs),
(175,15,l),
(125,-5,o),
(67,-24,o),
(4,-42,c),
(1,-80,l)
);
},
{
closed = 1;
nodes = (
(78,-110,o),
(120,-96,o),
(134,-90,cs),
(167,-77,o),
(183,-72,o),
(183,-49,cs),
(183,-37,l),
(132,-57,o),
(75,-76,o),
(11,-94,c),
(8,-132,l)
);
}
);
width = 0;
}
);
unicode = 1613;
}
{
glyphname = "fatha-ar";
layers = (
{
anchors = (
{
name = _top.far;
pos = (90,442);
},
{
name = top.far;
pos = (77,576);
},
{
name = top.near;
pos = (77,576);
}
);
layerId = master01;
shapes = (
{
closed = 1;
nodes = (
(59,473,o),
(112,493,o),
(148,510,cs),
(164,517,o),
(171,529,o),
(171,545,c),
(170,556,l),
(137,543,o),
(78,523,o),
(-6,495,c),
(-11,452,l)
);
}
);
width = 0;
},
{
anchors = (
{
name = _top.far;
pos = (90,450);
},
{
name = top.far;
pos = (77,584);
},
{
name = top.near;
pos = (77,584);
}
);
layerId = "26E2967D-790C-4793-AF2A-2D0AD74EDC69";
shapes = (
{
closed = 1;
nodes = (
(63,469,o),
(118,492,o),
(152,509,cs),
(167,519,o),
(175,532,o),
(175,551,c),
(174,564,l),
(138,547,o),
(83,526,o),
(-7,492,c),
(-13,442,l)
);
}
);
width = 0;
}
);
unicode = 1614;
}
{
glyphname = "damma-ar";
layers = (
{
anchors = (
{
name = _top.far;
pos = (102,748);
},
{
name = top.far;
pos = (86,944);
},
{
name = top.near;
pos = (86,944);
}
);
layerId = master01;
shapes = (
{
closed = 1;
nodes = (
(53,748,o),
(89,768,o),
(123,802,c),
(135,801,l),
(162,801,o),
(174,808,o),
(175,829,c),
(144,831,l),
(147,839,o),
(149,847,o),
(149,856,cs),
(149,880,o),
(144,898,o),
(135,909,cs),
(130,916,o),
(123,920,o),
(114,920,cs),
(88,920,o),
(56,890,o),
(56,858,cs),
(56,838,o),
(69,822,o),
(93,811,c),
(65,792,o),
(34,780,o),
(0,773,c),
(0,757,o),
(11,748,o),
(28,748,cs)
);
},
{
closed = 1;
nodes = (
(93,846,o),
(80,858,o),
(80,873,cs),
(80,879,o),
(90,888,o),
(102,888,cs),
(117,888,o),
(124,872,o),
(124,854,cs),
(124,850,o),
(123,846,o),
(121,841,cs),
(119,836,l)
);
}
);
width = 175;
},
{
anchors = (
{
name = _top.far;
pos = (107,740);
},
{
name = top.far;
pos = (91,936);
},
{
name = top.near;
pos = (91,936);
}
);
layerId = "26E2967D-790C-4793-AF2A-2D0AD74EDC69";
shapes = (
{
closed = 1;
nodes = (
(60,738,o),
(97,759,o),
(131,792,c),
(140,791,l),
(171,791,o),
(185,800,o),
(185,822,c),
(154,824,l),
(158,833,o),
(159,840,o),
(159,848,cs),
(159,870,o),
(156,886,o),
(147,898,cs),
(140,908,o),
(130,914,o),
(119,914,cs),
(88,914,o),
(56,881,o),
(56,850,cs),
(56,830,o),
(69,815,o),
(92,803,c),
(70,788,o),
(42,774,o),
(0,765,c),
(0,748,o),
(13,738,o),
(33,738,cs)
);
},
{
closed = 1;
nodes = (
(99,841,o),
(90,852,o),
(90,865,cs),
(90,872,o),
(99,878,o),
(107,878,cs),
(116,878,o),
(125,867,o),
(125,848,cs),
(125,845,o),
(125,841,o),
(123,836,cs),
(121,832,l)
);
}
);
width = 185;
}
);
metricLeft = "=0";
metricRight = "=0";
unicode = 1615;
}
{
glyphname = "kasra-ar";
layers = (
{
anchors = (
{
name = _bottom;
pos = (78,-6);
},
{
name = bottom;
pos = (86,-109);
},
{
name = bottom3;
pos = (92,-114);
}
);
layerId = master01;
shapes = (
{
closed = 1;
nodes = (
(59,-88,o),
(112,-68,o),
(148,-51,cs),
(164,-44,o),
(171,-32,o),
(171,-15,c),
(170,-5,l),
(137,-18,o),
(78,-38,o),
(-6,-66,c),
(-11,-109,l)
);
}
);
width = 0;
},
{
anchors = (
{
name = _bottom;
pos = (81,3);
},
{
name = bottom;
pos = (86,-99);
},
{
name = bottom3;
pos = (82,-94);
}
);
layerId = "26E2967D-790C-4793-AF2A-2D0AD74EDC69";
shapes = (
{
closed = 1;
nodes = (
(57,-91,o),
(114,-69,o),
(148,-52,cs),
(164,-43,o),
(172,-29,o),
(174,-8,c),
(173,6,l),
(137,-10,o),
(80,-30,o),
(-11,-62,c),
(-20,-116,l)
);
}
);
width = 0;
}
);
unicode = 1616;
}
{
glyphname = "shadda-ar";
layers = (
{
anchors = (
{
name = _top.far;
pos = (100,738);
},
{
name = top.far;
pos = (97,870);
}
);
layerId = master01;
shapes = (
{
closed = 1;
nodes = (
(68,749,o),
(87,763,o),
(97,788,c),
(107,778,o),
(118,773,o),
(134,773,cs),
(164,774,o),
(189,803,o),
(188,838,cs),
(188,849,o),
(182,879,o),
(168,905,c),
(155,901,o),
(141,886,o),
(141,874,c),
(144,865,l),
(153,844,o),
(159,831,o),
(160,824,c),
(158,818,o),
(149,811,o),
(140,811,cs),
(116,810,o),
(106,823,o),
(98,869,c),
(72,854,l),
(76,819,ls),
(78,800,o),
(65,787,o),
(49,786,cs),
(33,786,o),
(25,796,o),
(25,815,cs),
(25,825,o),
(27,834,o),
(29,842,c),
(11,845,l),
(2,828,o),
(0,812,o),
(0,798,cs),
(1,765,o),
(20,748,o),
(48,749,cs)
);
}
);
width = 188;
},
{
anchors = (
{
name = _top.far;
pos = (105,716);
},
{
name = top.far;
pos = (110,873);
}
);
layerId = "26E2967D-790C-4793-AF2A-2D0AD74EDC69";
shapes = (
{
closed = 1;
nodes = (
(76,739,o),
(95,752,o),
(105,773,c),
(115,766,o),
(126,763,o),
(140,763,cs),
(173,764,o),
(200,794,o),
(199,830,cs),
(199,842,o),
(194,874,o),
(178,901,c),
(153,896,o),
(141,881,o),
(141,866,c),
(144,857,l),
(154,836,o),
(159,824,o),
(160,816,c),
(157,809,o),
(151,806,o),
(146,806,cs),
(123,805,o),
(114,820,o),
(107,869,c),
(73,846,l),
(76,811,ls),
(77,794,o),
(68,781,o),
(55,781,cs),
(44,781,o),
(37,789,o),
(36,807,cs),
(36,818,o),
(37,829,o),
(39,836,c),
(14,841,l),
(3,821,o),
(0,805,o),
(0,789,cs),
(1,757,o),
(20,738,o),
(53,739,cs)
);
}
);
width = 199;
}
);
metricLeft = "=0";
metricRight = "=0";
unicode = 1617;
}
{
glyphname = "sukun-ar";
layers = (
{
anchors = (
{
name = _top.far;
pos = (66,449);
},
{
name = top3;
pos = (66,596);
}
);
layerId = master01;
shapes = (
{
closed = 1;
nodes = (
(92,459,o),
(118,484,o),
(118,515,cs),
(118,553,o),
(93,581,o),
(66,581,cs),
(40,581,o),
(16,553,o),
(16,516,cs),
(16,483,o),
(36,459,o),
(65,459,cs)
);
},
{
closed = 1;
nodes = (
(48,495,o),
(36,505,o),
(36,521,cs),
(36,537,o),
(50,545,o),
(61,545,cs),
(79,545,o),
(98,527,o),
(98,515,cs),
(98,506,o),
(82,495,o),
(66,495,cs)
);
}
);
width = 0;
},
{
anchors = (
{
name = _top.far;
pos = (73,504);
},
{
name = top3;
pos = (73,664);
}
);
layerId = "26E2967D-790C-4793-AF2A-2D0AD74EDC69";
shapes = (
{
closed = 1;
nodes = (
(102,516,o),
(130,543,o),
(130,575,cs),
(130,615,o),
(103,645,o),
(74,645,cs),
(46,645,o),
(19,615,o),
(19,575,cs),
(19,542,o),
(41,516,o),
(72,516,cs)
);
},
{
closed = 1;
nodes = (
(54,554,o),
(49,569,o),
(49,581,cs),
(49,594,o),
(61,602,o),
(69,602,cs),
(84,602,o),
(100,585,o),
(100,574,cs),
(100,566,o),
(87,554,o),
(74,554,cs)
);
}
);
width = 0;
}
);
unicode = 1618;
}
{
glyphname = "madda-ar";
layers = (
{
anchors = (
{
name = _top;
pos = (136,702);
},
{
name = _top.near;
pos = (136,702);
},
{
name = top.far;
pos = (137,846);
},
{
name = top.near;
pos = (137,846);
}
);
layerId = master01;
shapes = (
{
closed = 1;
nodes = (
(50,772,l),
(94,756,o),
(132,748,o),
(168,748,cs),
(195,748,o),
(242,770,o),
(273,800,c),
(264,826,l),
(242,815,o),
(197,805,o),
(172,805,cs),
(153,805,o),
(121,811,o),
(77,821,c),
(57,823,l),
(52,823,o),
(26,805,o),
(-18,770,c),
(-4,746,l)
);
}
);
width = 255;
},
{
anchors = (
{
name = _top;
pos = (136,702);
},
{
name = _top.near;
pos = (136,702);
},
{
name = top.far;
pos = (137,846);
},
{
name = top.near;
pos = (137,846);
}
);
layerId = "26E2967D-790C-4793-AF2A-2D0AD74EDC69";
shapes = (
{
closed = 1;
nodes = (
(50,772,l),
(94,756,o),
(132,748,o),
(168,748,cs),
(195,748,o),
(242,770,o),
(273,800,c),
(264,826,l),
(242,815,o),
(197,805,o),
(172,805,cs),
(153,805,o),
(121,811,o),
(77,821,c),
(57,823,l),
(52,823,o),
(26,805,o),
(-18,770,c),
(-4,746,l)
);
}
);
width = 259;
}
);
metricLeft = "=0";
metricRight = "=0";
unicode = 1619;
}
{
glyphname = "hamzaabove-ar";
layers = (
{
anchors = (
{
name = _top.near;
pos = (74,706);
},
{
name = top.far;
pos = (67,952);
},
{
name = top.near;
pos = (67,950);
}
);
layerId = master01;
shapes = (
{
closed = 1;
nodes = (
(-6,728,l),
(38,752,o),
(72,766,o),
(135,782,c),
(137,826,l),
(113,821,o),
(95,819,o),
(81,819,cs),
(57,819,o),
(39,827,o),
(26,842,c),
(35,865,o),
(56,885,o),
(80,885,cs),
(88,885,o),
(95,877,o),
(95,870,c),
(94,866,l),
(115,860,l),
(121,870,o),
(123,880,o),
(123,891,cs),
(123,918,o),
(108,933,o),
(79,933,cs),
(39,933,o),
(-6,886,o),
(-6,843,cs),
(-6,818,o),
(8,802,o),
(37,797,c),
(-9,772,l)
);
}
);
width = 128;
},
{
anchors = (
{
name = _top.near;
pos = (66,688);
},
{
name = top.far;
pos = (48,954);
},
{
name = top.near;
pos = (48,952);
}
);
layerId = "26E2967D-790C-4793-AF2A-2D0AD74EDC69";
shapes = (
{
closed = 1;
nodes = (
(-6,737,l),
(50,767,o),
(79,776,o),
(134,789,c),
(138,839,l),
(121,835,o),
(106,834,o),
(94,834,cs),
(70,834,o),
(50,841,o),
(37,855,c),
(47,874,o),
(61,883,o),
(77,883,cs),
(86,883,o),
(90,880,o),
(90,873,cs),
(90,870,l),
(113,866,l),
(116,873,o),
(118,882,o),
(118,892,cs),
(118,927,o),
(104,944,o),
(75,944,cs),
(40,944,o),
(-4,894,o),
(-4,854,cs),
(-4,833,o),
(8,818,o),
(32,809,c),
(-9,785,l)
);
}
);
width = 129;
}
);
metricLeft = "=0";
metricRight = "=0";
unicode = 1620;
}
{
glyphname = "alefbelow-ar";
layers = (
{
anchors = (
{
name = _bottom;
pos = (9,-2);
},
{
name = _bottom3;
pos = (9,-2);
},
{
name = _bottom_two;
pos = (9,-2);
},
{
name = bottom3;
pos = (11,-262);
}
);
layerId = master01;
shapes = (
{
closed = 1;
nodes = (
(29,-227,o),
(37,-199,o),
(37,-166,cs),
(37,-121,o),
(37,-95,o),
(22,-18,c),
(1,-26,o),
(-14,-48,o),
(-14,-75,cs),
(-14,-81,o),
(-13,-88,o),
(-11,-97,cs),
(1,-143,o),
(6,-194,o),
(6,-249,c),
(12,-251,l)
);
}
);
width = 0;
},
{
anchors = (
{
name = _bottom;
pos = (9,6);
},
{
name = _bottom3;
pos = (9,6);
},
{
name = _bottom_two;
pos = (9,6);
},
{
name = bottom3;
pos = (11,-253);
}
);
layerId = "26E2967D-790C-4793-AF2A-2D0AD74EDC69";
shapes = (
{
closed = 1;
nodes = (
(31,-225,o),
(41,-195,o),
(41,-161,cs),
(41,-114,o),
(38,-85,o),
(24,-11,c),
(0,-20,o),
(-18,-42,o),
(-18,-69,cs),
(-18,-75,o),
(-17,-84,o),
(-15,-92,cs),
(-3,-139,o),
(6,-190,o),
(6,-246,c),
(12,-247,l)
);
}
);
width = 0;
}
);
unicode = 1622;
}
{
glyphname = "dammainverted-ar";
layers = (
{
anchors = (
{
name = _top;
pos = (75,457);
},
{
name = top3;
pos = (78,685);
}
);
layerId = master01;
shapes = (
{
closed = 1;
nodes = (
(102,466,o),
(139,503,o),
(139,539,cs),
(139,563,o),
(121,583,o),
(94,595,c),
(96,597,ls),
(122,623,o),
(163,632,o),
(206,640,c),
(206,659,o),
(192,670,o),
(171,670,cs),
(143,670,o),
(98,646,o),
(59,606,c),
(45,607,l),
(14,607,o),
(0,599,o),
(-3,575,c),
(9,575,o),
(21,574,o),
(34,572,c),
(31,564,o),
(29,554,o),
(29,542,cs),
(29,495,o),
(46,466,o),
(70,466,cs)
);
},
{
closed = 1;
nodes = (
(67,504,o),
(59,524,o),
(59,545,cs),
(59,553,o),
(60,560,o),
(64,565,c),
(87,560,o),
(110,543,o),
(110,522,cs),
(110,515,o),
(98,504,o),
(84,504,cs)
);
}
);
width = 0;
},
{
anchors = (
{
name = _top;
pos = (75,465);
},
{
name = top3;
pos = (78,694);
}
);
layerId = "26E2967D-790C-4793-AF2A-2D0AD74EDC69";
shapes = (
{
closed = 1;
nodes = (
(103,465,o),
(143,503,o),
(143,542,cs),
(143,566,o),
(122,586,o),
(95,599,c),
(98,601,ls),
(147,634,o),
(169,634,o),
(209,642,c),
(209,663,o),
(195,677,o),
(173,677,cs),
(145,677,o),
(101,653,o),
(59,610,c),
(45,613,l),
(13,613,o),
(-1,602,o),
(-4,576,c),
(8,576,o),
(18,575,o),
(31,573,c),
(28,565,o),
(26,558,o),
(26,546,cs),
(26,497,o),
(46,465,o),
(70,465,cs)
);
},
{
closed = 1;
nodes = (
(69,511,o),
(62,528,o),
(62,547,cs),
(62,554,o),
(63,559,o),
(66,564,c),
(86,560,o),
(106,545,o),
(106,526,cs),
(106,520,o),
(96,511,o),
(83,511,cs)
);
}
);
width = 0;
}
);
unicode = 1623;
}
{
glyphname = "noonghunnaabove-ar";
layers = (
{
anchors = (
{
name = _top.far;
pos = (82,752);
},
{
name = top.far;
pos = (93,920);
}
);
layerId = master01;
shapes = (
{
closed = 1;
nodes = (
(131,752,o),
(165,800,o),
(177,889,c),
(159,892,l),
(146,830,o),
(121,800,o),
(85,800,cs),
(46,800,o),
(22,830,o),
(15,892,c),
(2,892,o),
(-12,877,o),
(-12,860,cs),
(-12,843,o),
(-7,825,o),
(1,806,cs),
(18,771,o),
(46,752,o),
(81,752,cs)
);
}
);
width = 166;
},
{
anchors = (
{
name = _top.far;
pos = (86,741);
},
{
name = top.far;
pos = (97,917);
}
);
layerId = "26E2967D-790C-4793-AF2A-2D0AD74EDC69";
shapes = (
{
closed = 1;
nodes = (
(140,740,o),
(174,790,o),
(186,881,c),
(160,886,l),
(148,824,o),
(124,792,o),
(89,792,cs),
(54,792,o),
(31,826,o),
(24,886,c),
(2,885,o),
(-12,868,o),
(-12,851,cs),
(-12,834,o),
(-7,816,o),
(1,796,c),
(18,760,o),
(48,740,o),
(86,740,cs)
);
}
);
width = 174;
}
);
metricLeft = "=0";
metricRight = "=0";
unicode = 1624;
}
{
glyphname = "fathaHorizont-ar";
layers = (
{
anchors = (
{
name = _top;
pos = (125,453);
},
{
name = top3;
pos = (122,532);
}
);
layerId = master01;
shapes = (
{
closed = 1;
nodes = (
(63,462,o),
(156,468,o),
(208,474,cs),
(218,475,o),
(226,492,o),
(226,507,c),
(132,500,o),
(69,497,o),
(34,497,c),
(26,462,l)
);
}
);
width = 0;
},
{
anchors = (
{
name = _top;
pos = (125,461);
},
{
name = top3;
pos = (122,541);
}
);
layerId = "26E2967D-790C-4793-AF2A-2D0AD74EDC69";
shapes = (
{
closed = 1;
nodes = (
(63,465,o),
(156,472,o),
(208,478,cs),
(218,480,o),
(226,502,o),
(226,518,c),
(132,510,o),
(69,507,o),
(34,507,c),
(26,465,l)
);
}
);
width = 0;
}
);
unicode = 1625;
}
{
glyphname = "vabove-ar";
layers = (
{
anchors = (
{
name = _top.near;
pos = (111,699);
},
{
name = top.far;
pos = (109,971);
},
{
name = top.near;
pos = (109,971);
}
);
layerId = master01;
shapes = (
{
closed = 1;
nodes = (
(109,751,o),
(128,757,o),
(141,765,c),
(152,799,o),
(165,831,o),
(180,861,cs),
(190,880,o),
(195,892,o),
(195,897,cs),
(195,917,o),
(184,927,o),
(172,928,c),
(158,910,o),
(128,843,o),
(121,801,c),
(114,818,o),
(106,835,o),
(96,853,cs),
(78,889,o),
(59,914,o),
(36,914,cs),
(30,914,o),
(23,913,o),
(16,911,cs),
(0,906,l),
(36,857,o),
(60,803,o),
(86,748,c)
);
}
);
width = 195;
},
{
anchors = (
{
name = _top.near;
pos = (111,693);
},
{
name = top.far;
pos = (109,950);
},
{
name = top.near;
pos = (109,950);
}
);
layerId = "26E2967D-790C-4793-AF2A-2D0AD74EDC69";
shapes = (
{
closed = 1;
nodes = (
(109,742,o),
(128,748,o),
(141,756,c),
(152,790,o),
(165,821,o),
(180,852,cs),
(190,871,o),
(195,883,o),
(195,887,cs),
(195,908,o),
(184,918,o),
(172,919,c),
(158,901,o),
(128,833,o),
(121,792,c),
(114,809,o),
(106,826,o),
(96,844,cs),
(78,880,o),
(59,904,o),
(36,904,cs),
(30,904,o),
(23,904,o),
(16,902,cs),
(0,897,l),
(36,848,o),
(60,794,o),
(86,738,c)
);
}
);
width = 195;
}
);
metricLeft = "=0";
metricRight = "=0";
unicode = 1626;
}
{
glyphname = "fathatwodots-ar";
layers = (
{
anchors = (
{
name = bottom;
pos = (25,-430);
},
{
name = top.far;
pos = (9,930);
},
{
name = top.near;
pos = (9,930);
}
);
layerId = master01;
shapes = (
{
closed = 1;
nodes = (
(-53,702,o),
(-6,728,o),
(48,764,cs),
(76,782,o),
(92,784,o),
(92,806,cs),
(92,815,o),
(90,824,o),
(86,834,c),
(77,829,o),
(66,821,o),
(53,811,cs),
(-8,763,o),
(-54,734,o),
(-84,723,c),
(-94,683,l)
);
},
{
closed = 1;
nodes = (
(56,677,o),
(65,688,o),
(75,705,c),
(59,720,o),
(47,731,o),
(38,736,c),
(25,720,l),
(12,702,l),
(49,671,l)
);
},
{
closed = 1;
nodes = (
(-33,779,o),
(-24,791,o),
(-14,807,c),
(-27,820,o),
(-39,831,o),
(-51,839,c),
(-65,821,o),
(-74,809,o),
(-76,805,c),
(-40,774,l)
);
}
);
width = 0;
},
{
anchors = (
{
name = bottom;
pos = (25,-430);
},
{
name = top.far;
pos = (9,930);
},
{
name = top.near;
pos = (9,930);
}
);
layerId = "26E2967D-790C-4793-AF2A-2D0AD74EDC69";
shapes = (
{
closed = 1;
nodes = (
(-54,691,o),
(-4,719,o),
(53,756,cs),
(81,774,o),
(99,777,o),
(99,800,cs),
(99,811,o),
(96,821,o),
(91,833,c),
(79,827,o),
(70,820,o),
(52,807,cs),
(-10,758,o),
(-58,727,o),
(-87,718,c),
(-98,671,l)
);
},
{
closed = 1;
nodes = (
(62,669,o),
(72,682,o),
(82,699,c),
(57,722,o),
(49,728,o),
(38,734,c),
(23,715,l),
(9,696,l),
(51,661,l)
);
},
{
closed = 1;
nodes = (
(-26,772,o),
(-18,783,o),
(-8,802,c),
(-25,819,o),
(-37,829,o),
(-50,837,c),
(-68,815,o),
(-77,802,o),
(-79,799,c),
(-39,764,l)
);
}
);
width = 0;
}
);
unicode = 1630;
}
{
glyphname = "one-ar";
layers = (
{
layerId = master01;
shapes = (
{
closed = 1;
nodes = (
(235,63,o),
(240,126,o),
(240,191,cs),
(240,296,o),
(197,449,o),
(131,568,c),
(97,548,o),
(77,521,o),
(77,495,cs),
(77,486,o),
(79,476,o),
(85,466,cs),
(113,411,o),
(135,361,o),
(149,313,cs),
(178,219,o),
(186,147,o),
(188,9,c),
(226,0,l)
);
}
);
width = 316;
},
{
layerId = "26E2967D-790C-4793-AF2A-2D0AD74EDC69";
shapes = (
{
closed = 1;
nodes = (
(261,69,o),
(267,122,o),
(267,196,cs),
(267,312,o),
(223,477,o),
(156,598,c),
(107,578,o),
(77,543,o),
(77,499,cs),
(77,483,o),
(81,466,o),
(89,449,cs),
(121,382,o),
(142,330,o),
(153,292,cs),
(175,217,o),
(188,122,o),
(189,10,c),
(246,0,l)
);
}
);
width = 343;
}
);
unicode = (1633,1777);
}
{
glyphname = "two-ar";
layers = (
{
layerId = master01;
metricWidth = "=449";
shapes = (
{
closed = 1;
nodes = (
(228,90,o),
(230,128,o),
(230,191,cs),
(230,235,o),
(221,293,o),
(203,365,c),
(221,357,o),
(243,353,o),
(269,353,cs),
(309,353,o),
(341,366,o),
(364,392,cs),
(393,426,o),
(407,482,o),
(407,559,c),
(367,567,l),
(359,480,o),
(326,437,o),
(268,437,cs),
(229,437,o),
(197,445,o),
(171,461,c),
(157,499,o),
(141,533,o),
(121,568,c),
(88,550,o),
(67,521,o),
(67,495,cs),
(67,486,o),
(70,476,o),
(75,466,cs),
(105,409,o),
(128,356,o),
(145,296,cs),
(166,221,o),
(177,134,o),
(178,9,c),
(216,0,l)
);
}
);
width = 449;
},
{
layerId = "26E2967D-790C-4793-AF2A-2D0AD74EDC69";
metricWidth = "=488";
shapes = (
{
closed = 1;
nodes = (
(230,64,o),
(237,130,o),
(237,196,cs),
(237,228,o),
(230,294,o),
(221,336,c),
(234,331,o),
(248,329,o),
(263,329,cs),
(315,329,o),
(353,349,o),
(380,386,cs),
(407,423,o),
(424,477,o),
(431,586,c),
(383,596,l),
(371,494,o),
(330,455,o),
(247,455,cs),
(221,455,o),
(200,460,o),
(183,471,c),
(171,510,o),
(152,552,o),
(127,598,c),
(75,577,o),
(46,542,o),
(46,500,cs),
(46,483,o),
(51,466,o),
(60,449,cs),
(91,385,o),
(113,332,o),
(124,290,cs),
(146,205,o),
(158,117,o),
(159,10,c),
(215,0,l)
);
}
);
width = 488;
}
);
unicode = 1634;
}
{
glyphname = "three-ar";
layers = (
{
layerId = master01;
shapes = (
{
closed = 1;
nodes = (
(234,62,o),
(238,125,o),
(238,191,cs),
(238,240,o),
(229,297,o),
(212,360,c),
(226,355,o),
(238,353,o),
(248,353,cs),
(280,353,o),
(304,372,o),
(318,399,c),
(335,389,o),
(351,385,o),
(366,385,cs),
(415,385,o),
(452,435,o),
(452,509,cs),
(452,523,o),
(451,540,o),
(448,562,c),
(407,566,l),
(408,560,o),
(409,550,o),
(409,538,cs),
(409,493,o),
(393,468,o),
(365,468,cs),
(357,468,o),
(347,470,o),
(336,474,c),
(336,505,o),
(332,533,o),
(322,568,c),
(292,558,l),
(294,542,o),
(295,527,o),
(295,512,cs),
(295,461,o),
(278,437,o),
(239,437,cs),
(217,437,o),
(199,443,o),
(183,455,c),
(168,494,o),
(150,532,o),
(131,568,c),
(96,548,o),
(77,522,o),
(77,495,cs),
(77,486,o),
(79,476,o),
(85,466,cs),
(115,406,o),
(137,351,o),
(151,303,cs),
(179,206,o),
(187,138,o),
(188,9,c),
(226,0,l)
);
}
);
width = 478;
},
{
layerId = "26E2967D-790C-4793-AF2A-2D0AD74EDC69";
shapes = (
{
closed = 1;
nodes = (
(262,74,o),
(268,124,o),
(268,196,cs),
(268,235,o),
(262,280,o),
(252,331,c),
(256,331,o),
(261,331,o),
(265,330,cs),
(296,330,o),
(322,342,o),
(345,374,c),
(366,362,o),
(382,356,o),
(394,356,cs),
(444,356,o),
(481,413,o),
(481,497,cs),
(481,529,o),
(479,560,o),
(474,591,c),
(424,597,l),
(426,581,o),
(427,565,o),
(427,550,cs),
(427,503,o),
(411,478,o),
(385,478,cs),
(379,478,o),
(373,478,o),
(367,480,c),
(363,515,o),
(353,554,o),
(336,595,c),
(299,582,l),
(302,552,o),
(303,535,o),
(303,531,cs),
(303,481,o),
(285,456,o),
(249,456,cs),
(239,456,o),
(228,458,o),
(216,463,c),
(200,511,o),
(180,556,o),
(157,598,c),
(107,578,o),
(77,543,o),
(77,499,cs),
(77,483,o),
(81,466,o),
(90,449,cs),
(140,343,o),
(151,310,o),
(167,235,cs),
(183,160,o),
(188,98,o),
(190,10,c),
(247,0,l)
);
}
);
width = 507;
}
);
unicode = 1635;
}
{
glyphname = "five-ar";
layers = (
{
layerId = master01;
shapes = (
{
closed = 1;
nodes = (
(200,60,o),
(227,68,o),
(252,85,cs),
(304,119,o),
(335,160,o),
(335,280,cs),
(335,321,o),
(330,360,o),
(319,398,cs),
(297,474,o),
(256,515,o),
(207,515,cs),
(184,515,o),
(160,498,o),
(135,465,cs),
(83,398,o),
(47,290,o),
(47,204,cs),
(47,105,o),
(84,60,o),
(173,60,cs)
);
},
{
closed = 1;
nodes = (
(119,144,o),
(87,171,o),
(87,226,cs),
(87,248,o),
(92,276,o),
(102,308,cs),
(123,372,o),
(158,419,o),
(185,419,cs),
(247,419,o),
(293,339,o),
(293,235,cs),
(293,191,o),
(239,144,o),
(184,144,cs)
);
}
);
width = 382;
},
{
layerId = "26E2967D-790C-4793-AF2A-2D0AD74EDC69";
shapes = (
{
closed = 1;
nodes = (
(242,42,o),
(297,81,o),
(333,152,cs),
(347,178,o),
(355,234,o),
(355,290,cs),
(355,338,o),
(350,383,o),
(338,424,cs),
(314,507,o),
(274,548,o),
(220,548,cs),
(196,548,o),
(170,531,o),
(143,496,cs),
(88,425,o),
(47,303,o),
(47,205,cs),
(47,94,o),
(88,42,o),
(184,42,cs)
);
},
{
closed = 1;
nodes = (
(137,172,o),
(106,196,o),
(106,243,cs),
(106,264,o),
(111,288,o),
(122,315,cs),
(142,370,o),
(173,409,o),
(198,409,cs),
(253,409,o),
(297,343,o),
(297,251,cs),
(297,227,o),
(259,172,o),
(198,172,cs)
);
}
);
width = 402;
}
);
unicode = 1637;
}
{
glyphname = "seven-ar";
layers = (
{
layerId = master01;
shapes = (
{
closed = 1;
nodes = (
(219,10,o),
(237,23,o),
(258,40,c),
(299,200,o),
(344,327,o),
(427,494,c),
(385,566,l),
(330,466,o),
(261,268,o),
(233,108,c),
(206,245,o),
(119,472,o),
(58,566,c),
(28,544,o),
(9,515,o),
(9,490,cs),
(9,482,o),
(11,475,o),
(15,468,cs),
(101,307,o),
(135,233,o),
(204,0,c)
);
}
);
width = 436;
},
{
layerId = "26E2967D-790C-4793-AF2A-2D0AD74EDC69";
shapes = (
{
closed = 1;
nodes = (
(245,17,o),
(267,33,o),
(289,49,c),
(338,214,o),
(383,330,o),
(477,501,c),
(400,595,l),
(345,494,o),
(284,299,o),
(261,144,c),
(218,309,o),
(137,515,o),
(85,596,c),
(39,575,o),
(9,534,o),
(9,491,cs),
(9,477,o),
(12,464,o),
(20,450,cs),
(144,218,o),
(159,186,o),
(222,1,c)
);
}
);
width = 485;
}
);
unicode = 1639;
}
{
glyphname = "nine-ar";
layers = (
{
layerId = master01;
shapes = (
{
closed = 1;
nodes = (
(370,62,l),
(316,169,o),
(291,268,o),
(291,375,cs),
(291,521,o),
(250,585,o),
(173,585,cs),
(154,585,o),
(134,577,o),
(113,560,cs),
(72,526,o),
(42,470,o),
(42,426,cs),
(42,344,o),
(91,300,o),
(187,300,cs),
(205,300,o),
(223,304,o),
(241,312,c),
(243,211,o),
(262,125,o),
(311,-1,c)
);
},
{
closed = 1;
nodes = (
(148,384,o),
(86,412,o),
(86,450,cs),
(86,470,o),
(115,498,o),
(148,498,cs),
(200,498,o),
(226,460,o),
(237,386,c),
(230,385,o),
(222,384,o),
(213,384,cs)
);
}
);
width = 433;
},
{
layerId = "26E2967D-790C-4793-AF2A-2D0AD74EDC69";
shapes = (
{
closed = 1;
nodes = (
(392,91,l),
(328,216,o),
(311,277,o),
(311,394,cs),
(311,532,o),
(265,611,o),
(179,611,cs),
(161,611,o),
(142,602,o),
(121,583,cs),
(79,545,o),
(42,472,o),
(42,424,cs),
(42,326,o),
(95,273,o),
(191,273,cs),
(206,273,o),
(221,276,o),
(238,280,c),
(244,183,o),
(263,104,o),
(304,-1,c)
);
},
{
closed = 1;
nodes = (
(146,393,o),
(101,416,o),
(101,448,cs),
(101,469,o),
(123,492,o),
(151,492,cs),
(195,492,o),
(222,460,o),
(232,396,c),
(222,394,o),
(214,393,o),
(206,393,cs)
);
}
);
width = 456;
}
);
unicode = (1641,1785);
}
{
glyphname = "percent-ar";
layers = (
{
layerId = master01;
shapes = (
{
closed = 1;
nodes = (
(137,41,o),
(256,276,o),
(341,437,cs),
(343,442,o),
(344,447,o),
(344,454,cs),
(344,473,o),
(332,495,o),
(316,506,c),
(230,348,o),
(105,99,o),
(53,-11,c),
(61,-31,o),
(73,-48,o),
(88,-60,c)
);
},
{
closed = 1;
nodes = (
(350,35,o),
(367,63,o),
(367,72,cs),
(367,77,o),
(360,86,o),
(346,98,cs),
(332,111,o),
(309,126,o),
(275,146,c),
(265,130,o),
(256,114,o),
(247,98,cs),
(239,83,o),
(230,67,o),
(221,50,c),
(252,33,o),
(284,11,o),
(317,-14,c)
);
},
{
closed = 1;
nodes = (
(163,361,o),
(180,390,o),
(180,399,cs),
(180,405,o),
(173,413,o),
(159,426,cs),
(145,438,o),
(122,453,o),
(88,473,c),
(78,457,o),
(69,441,o),
(61,426,cs),
(52,410,o),
(44,394,o),
(34,377,c),
(60,363,o),
(92,342,o),
(130,314,c)
);
}
);
width = 401;
},
{
layerId = "26E2967D-790C-4793-AF2A-2D0AD74EDC69";
shapes = (
{
closed = 1;
nodes = (
(187,111,o),
(297,325,o),
(352,426,cs),
(360,441,o),
(364,456,o),
(364,472,cs),
(363,498,o),
(353,521,o),
(334,533,c),
(255,389,o),
(167,217,o),
(71,17,c),
(78,-11,o),
(91,-33,o),
(111,-49,c)
);
},
{
closed = 1;
nodes = (
(421,74,o),
(442,110,o),
(442,121,cs),
(442,129,o),
(432,141,o),
(411,158,cs),
(390,174,o),
(361,193,o),
(324,214,c),
(311,195,o),
(299,175,o),
(289,155,cs),
(278,135,o),
(267,114,o),
(255,93,c),
(301,67,o),
(313,60,o),
(378,11,c)
);
},
{
closed = 1;
nodes = (
(192,384,o),
(213,421,o),
(213,432,cs),
(213,440,o),
(202,452,o),
(182,469,cs),
(161,486,o),
(132,504,o),
(96,525,c),
(82,505,o),
(70,486,o),
(60,465,cs),
(49,445,o),
(38,424,o),
(26,403,c),
(59,386,o),
(100,359,o),
(149,322,c)
);
}
);
width = 471;
}
);
unicode = 1642;
}
{
glyphname = "decimalseparator-ar";
layers = (
{
layerId = master01;
shapes = (
{
closed = 1;
nodes = (
(109,-70,o),
(155,0,o),
(155,84,cs),
(155,104,o),
(147,136,o),
(132,176,cs),
(126,192,o),
(115,211,o),
(107,228,c),
(91,213,o),
(82,205,o),
(80,184,cs),
(79,171,o),
(83,156,o),
(90,138,cs),
(101,112,o),
(120,88,o),
(117,67,c),
(106,11,o),
(88,-17,o),
(51,-17,cs),
(43,-17,o),
(29,-14,o),
(8,-9,c),
(3,-30,l),
(17,-47,o),
(47,-67,o),
(60,-68,cs)
);
}
);
width = 222;
},
{
layerId = "26E2967D-790C-4793-AF2A-2D0AD74EDC69";
shapes = (
{
closed = 1;
nodes = (
(125,-75,o),
(171,0,o),
(171,84,cs),
(171,104,o),
(163,138,o),
(144,176,cs),
(136,192,o),
(123,211,o),
(115,228,c),
(96,216,o),
(83,205,o),
(78,184,cs),
(75,171,o),
(78,156,o),
(85,138,cs),
(96,112,o),
(118,88,o),
(115,67,c),
(102,11,o),
(84,-17,o),
(47,-17,cs),
(39,-17,o),
(28,-14,o),
(7,-9,c),
(2,-37,l),
(16,-54,o),
(63,-75,o),
(76,-75,cs)
);
}
);
width = 250;
}
);
unicode = 1643;
}
{
glyphname = "thousandseparator-ar";
layers = (
{
layerId = master01;
shapes = (
{
closed = 1;
nodes = (
(93,-19,o),
(141,79,o),
(141,159,cs),
(141,202,o),
(115,234,o),
(75,234,cs),
(44,234,o),
(20,216,o),
(20,184,cs),
(20,153,o),
(44,143,o),
(66,143,cs),
(83,143,o),
(83,154,o),
(92,144,c),
(114,119,o),
(56,6,o),
(2,-11,c),
(2,-47,l)
);
}
);
width = 161;
},
{
layerId = "26E2967D-790C-4793-AF2A-2D0AD74EDC69";
shapes = (
{
closed = 1;
nodes = (
(93,-5,o),
(174,113,o),
(161,193,cs),
(154,236,o),
(118,263,o),
(78,263,cs),
(47,263,o),
(13,231,o),
(13,202,cs),
(13,171,o),
(45,152,o),
(67,152,cs),
(84,152,o),
(83,157,o),
(92,152,c),
(122,123,o),
(56,40,o),
(2,23,c),
(2,-33,l)
);
}
);
width = 238;
}
);
unicode = 1644;
}
{
glyphname = "asterisk-ar";
layers = (
{
layerId = master01;
shapes = (
{
closed = 1;
nodes = (
(199,145,l),
(309,59,l),
(312,61,l),
(265,192,l),
(382,271,l),
(380,274,l),
(241,270,l),
(202,404,l),
(197,404,l),
(159,270,l),
(21,274,l),
(19,270,l),
(134,192,l),
(87,61,l),
(90,59,l)
);
}
);
width = 400;
},
{
layerId = "26E2967D-790C-4793-AF2A-2D0AD74EDC69";
shapes = (
{
closed = 1;
nodes = (
(199,155,l),
(308,83,l),
(313,86,l),
(278,213,l),
(383,293,l),
(380,300,l),
(248,306,l),
(203,429,l),
(196,429,l),
(150,306,l),
(21,300,l),
(18,293,l),
(121,213,l),
(85,86,l),
(90,83,l)
);
}
);
width = 400;
}
);
unicode = 1645;
}
{
glyphname = "behDotless-ar";
layers = (
{
anchors = (
{
name = bottom;
pos = (378,-100);
},
{
name = bottom.dot;
pos = (378,-31);
},
{
name = ring;
pos = (382,40);
},
{
name = top.far;
pos = (365,468);
},
{
name = top.near;
pos = (365,277);
}
);
layerId = master01;
shapes = (
{
closed = 1;
nodes = (
(472,0,o),
(600,33,o),
(688,89,c),
(711,134,o),
(723,168,o),
(723,191,cs),
(723,239,o),
(707,309,o),
(686,408,c),
(643,384,o),
(620,352,o),
(620,324,cs),
(620,313,o),
(626,291,o),
(639,257,cs),
(656,211,o),
(668,175,o),
(675,147,c),
(583,103,o),
(459,76,o),
(335,76,cs),
(282,76,o),
(240,82,o),
(208,93,cs),
(144,115,o),
(116,153,o),
(116,231,cs),
(116,247,o),
(118,275,o),
(119,280,c),
(83,280,l),
(74,248,o),
(70,212,o),
(70,170,cs),
(70,56,o),
(157,0,o),
(314,0,cs)
);
}
);
width = 772;
},
{
anchors = (
{
name = bottom;
pos = (378,-110);
},
{
name = bottom.dot;
pos = (378,-38);
},
{
name = ring;
pos = (382,40);
},
{
name = top.far;
pos = (365,498);
},
{
name = top.near;
pos = (365,307);
}
);
layerId = "26E2967D-790C-4793-AF2A-2D0AD74EDC69";
shapes = (
{
closed = 1;
nodes = (
(458,0,o),
(606,37,o),
(694,90,c),
(715,128,o),
(733,180,o),
(733,211,cs),
(733,234,o),
(723,293,o),
(692,443,c),
(642,418,o),
(601,374,o),
(601,342,cs),
(601,324,o),
(611,304,o),
(625,278,cs),
(637,256,o),
(661,212,o),
(675,182,c),
(583,141,o),
(467,119,o),
(351,119,cs),
(299,119,o),
(256,125,o),
(224,135,cs),
(160,157,o),
(131,195,o),
(131,273,cs),
(131,286,o),
(133,317,o),
(134,323,c),
(89,323,l),
(76,277,o),
(70,241,o),
(70,213,cs),
(70,75,o),
(153,0,o),
(314,0,cs)
);
}
);
width = 806;
}
);
unicode = 1646;
}
{
glyphname = "qafDotless-ar";
layers = (
{
anchors = (
{
name = bottom;
pos = (268,-328);
},
{
name = bottom.dot;
pos = (268,-273);
},
{
name = top.far;
pos = (407,515);
},
{
name = top.near;
pos = (408,344);
}
);
background = {
anchors = (
{
name = top;
pos = (409,449);
},
{
name = top.dot;
pos = (413,358);
}
);
};
layerId = master01;
shapes = (
{
closed = 1;
nodes = (
(344,-262,o),
(436,-226,o),
(499,-171,cs),
(562,-116,o),
(596,-43,o),
(596,41,cs),
(596,92,o),
(588,141,o),
(572,186,cs),
(539,278,o),
(476,340,o),
(413,340,cs),
(391,340,o),
(368,330,o),
(346,310,cs),
(302,269,o),
(272,197,o),
(272,129,cs),
(272,51,o),
(321,0,o),
(397,0,cs),
(448,0,o),
(491,20,o),
(534,60,c),
(540,28,o),
(544,-9,o),
(545,-51,c),
(529,-76,o),
(506,-99,o),
(476,-118,cs),
(417,-157,o),
(338,-179,o),
(269,-179,cs),
(168,-179,o),
(113,-125,o),
(113,-24,cs),
(113,-6,o),
(117,18,o),
(124,47,c),
(87,56,l),
(71,-10,o),
(68,-35,o),
(68,-74,cs),
(68,-193,o),
(141,-262,o),
(266,-262,cs)
);
},
{
closed = 1;
nodes = (
(351,82,o),
(311,109,o),
(311,157,cs),
(311,170,o),
(315,185,o),
(323,200,cs),
(341,231,o),
(370,255,o),
(397,255,cs),
(412,255,o),
(427,249,o),
(444,237,cs),
(476,214,o),
(505,164,o),
(523,105,c),
(489,89,o),
(455,82,o),
(421,82,cs)
);
}
);
width = 647;
},
{
anchors = (
{
name = bottom;
pos = (254,-311);
},
{
name = bottom.dot;
pos = (254,-256);
},
{
name = top.far;
pos = (409,549);
},
{
name = top.near;
pos = (413,398);
}
);
background = {
anchors = (
{
name = bottom;
pos = (254,-326);
},
{
name = bottom.dot;
pos = (254,-266);
},
{
name = top;
pos = (257,619);
}
);
};
layerId = "26E2967D-790C-4793-AF2A-2D0AD74EDC69";
shapes = (
{
closed = 1;
nodes = (
(334,-252,o),
(434,-216,o),
(499,-162,cs),
(564,-108,o),
(601,-35,o),
(601,50,cs),
(601,109,o),
(593,162,o),
(576,211,cs),
(542,308,o),
(478,366,o),
(411,366,cs),
(386,366,o),
(363,355,o),
(340,333,cs),
(294,290,o),
(264,213,o),
(264,138,cs),
(264,50,o),
(311,0,o),
(394,0,cs),
(437,0,o),
(479,20,o),
(521,61,c),
(528,31,o),
(532,0,o),
(535,-31,c),
(512,-49,o),
(488,-64,o),
(465,-77,cs),
(396,-115,o),
(327,-134,o),
(263,-134,cs),
(170,-134,o),
(123,-86,o),
(123,7,cs),
(123,30,o),
(128,57,o),
(137,87,c),
(93,98,l),
(76,35,o),
(68,-13,o),
(68,-47,cs),
(68,-180,o),
(132,-252,o),
(251,-252,cs)
);
},
{
closed = 1;
nodes = (
(353,110,o),
(318,131,o),
(318,171,cs),
(318,184,o),
(321,195,o),
(326,206,cs),
(338,229,o),
(363,246,o),
(393,246,cs),
(406,246,o),
(419,242,o),
(432,234,cs),
(459,217,o),
(483,181,o),
(503,125,c),
(472,115,o),
(442,110,o),
(414,110,cs)
);
}
);
width = 652;
}
);
unicode = 1647;
}
{
glyphname = "alefabove-ar";
layers = (
{
anchors = (
{
name = _top.far;
pos = (25,748);
},
{
name = top.far;
pos = (23,1018);
}
);
layerId = master01;
shapes = (
{
closed = 1;
nodes = (
(43,772,o),
(51,800,o),
(51,833,cs),
(51,878,o),
(51,904,o),
(36,981,c),
(15,973,o),
(0,951,o),
(0,924,cs),
(0,918,o),
(1,911,o),
(3,902,cs),
(15,856,o),
(20,805,o),
(20,750,c),
(26,748,l)
);
}
);
width = 51;
},
{
anchors = (
{
name = _top.far;
pos = (29,738);
},
{
name = top.far;
pos = (27,994);
}
);
layerId = "26E2967D-790C-4793-AF2A-2D0AD74EDC69";
shapes = (
{
closed = 1;
nodes = (
(49,760,o),
(59,790,o),
(59,824,cs),
(59,871,o),
(56,900,o),
(42,974,c),
(18,965,o),
(0,943,o),
(0,916,cs),
(0,910,o),
(1,901,o),
(3,893,cs),
(15,846,o),
(24,795,o),
(24,739,c),
(30,738,l)
);
}
);
width = 59;
}
);
metricLeft = "=0";
metricRight = "=0";
unicode = 1648;
}
{
glyphname = "keheh-ar";
layers = (
{
anchors = (
{
name = bottom;
pos = (450,-100);
},
{
name = bottom.dot;
pos = (450,-31);
},
{
name = ring;
pos = (554,483);
},
{
name = top.far;
pos = (355,575);
},
{
name = top.near;
pos = (355,575);
}
);
layerId = master01;
shapes = (
{
closed = 1;
nodes = (
(532,0,o),
(643,57,o),
(643,164,cs),
(643,194,o),
(629,227,o),
(602,262,cs),
(547,331,o),
(447,395,o),
(343,420,c),
(419,455,o),
(525,501,o),
(661,558,cs),
(690,569,o),
(704,590,o),
(704,622,cs),
(704,637,o),
(698,646,o),
(688,654,c),
(573,607,o),
(513,581,o),
(333,488,cs),
(326,484,o),
(307,422,o),
(307,393,cs),
(307,356,o),
(332,328,o),
(368,328,cs),
(376,328,o),
(384,329,o),
(393,331,c),
(440,308,o),
(479,284,o),
(510,259,cs),
(558,221,o),
(587,180,o),
(603,135,c),
(518,89,o),
(431,76,o),
(316,76,cs),
(243,76,o),
(190,83,o),
(159,97,cs),
(128,110,o),
(113,133,o),
(113,164,cs),
(113,179,o),
(114,193,o),
(117,205,c),
(81,205,l),
(72,184,o),
(68,163,o),
(68,141,cs),
(68,112,o),
(75,88,o),
(89,68,cs),
(122,23,o),
(192,0,o),
(308,0,cs)
);
}
);
width = 722;
},
{
anchors = (
{
name = bottom;
pos = (442,-110);
},
{
name = bottom.dot;
pos = (442,-38);
},
{
name = ring;
pos = (601,481);
},
{
name = top.far;
pos = (355,602);
},
{
name = top.near;
pos = (355,602);
}
);
layerId = "26E2967D-790C-4793-AF2A-2D0AD74EDC69";
shapes = (
{
closed = 1;
nodes = (
(520,0,o),
(654,63,o),
(654,173,cs),
(654,206,o),
(641,241,o),
(615,277,cs),
(563,349,o),
(472,410,o),
(373,435,c),
(496,469,o),
(572,498,o),
(669,546,cs),
(703,563,o),
(724,596,o),
(724,630,cs),
(724,650,o),
(717,667,o),
(704,680,c),
(573,626,o),
(501,594,o),
(342,514,cs),
(335,511,o),
(316,418,o),
(316,389,cs),
(316,353,o),
(349,324,o),
(385,324,cs),
(395,324,o),
(404,325,o),
(412,328,c),
(455,302,o),
(488,280,o),
(510,262,cs),
(555,228,o),
(588,191,o),
(604,160,c),
(522,131,o),
(459,119,o),
(337,119,cs),
(281,119,o),
(238,122,o),
(208,129,cs),
(146,143,o),
(124,172,o),
(123,227,cs),
(123,240,o),
(125,252,o),
(126,265,c),
(82,266,l),
(78,254,o),
(68,189,o),
(68,161,cs),
(68,121,o),
(75,89,o),
(90,66,cs),
(120,20,o),
(174,0,o),
(301,0,cs)
);
}
);
width = 741;
}
);
unicode = (1705,64398);
}
{
glyphname = "kafswash-ar";
layers = (
{
anchors = (
{
name = bottom;
pos = (774,-100);
},
{
name = top.far;
pos = (387,558);
},
{
name = top.near;
pos = (387,558);
}
);
layerId = master01;
shapes = (
{
closed = 1;
nodes = (
(502,0,o),
(766,17,o),
(942,44,c),
(957,76,o),
(964,103,o),
(964,125,cs),
(964,154,o),
(956,178,o),
(940,199,cs),
(909,241,o),
(850,264,o),
(784,264,cs),
(743,264,o),
(677,262,o),
(584,257,cs),
(492,252,o),
(427,250,o),
(389,250,cs),
(341,250,o),
(280,266,o),
(280,283,cs),
(280,292,o),
(289,305,o),
(307,320,cs),
(343,350,o),
(427,398,o),
(483,421,cs),
(514,433,o),
(529,458,o),
(529,494,cs),
(529,502,o),
(528,510,o),
(526,519,c),
(452,499,o),
(374,458,o),
(322,411,cs),
(269,365,o),
(244,316,o),
(244,265,cs),
(244,198,o),
(281,172,o),
(371,172,cs),
(419,172,o),
(490,175,o),
(583,181,cs),
(676,186,o),
(744,188,o),
(786,188,cs),
(862,188,o),
(906,164,o),
(926,106,c),
(775,88,o),
(520,76,o),
(271,76,cs),
(173,76,o),
(86,84,o),
(10,100,c),
(9,39,o),
(21,23,o),
(85,10,cs),
(118,2,o),
(174,0,o),
(286,0,cs)
);
}
);
width = 1015;
},
{
anchors = (
{
name = bottom;
pos = (760,-110);
},
{
name = top.far;
pos = (392,637);
},
{
name = top.near;
pos = (392,637);
}
);
layerId = "26E2967D-790C-4793-AF2A-2D0AD74EDC69";
shapes = (
{
closed = 1;
nodes = (
(510,9,o),
(782,26,o),
(956,53,c),
(970,85,o),
(977,112,o),
(977,134,cs),
(977,249,o),
(903,324,o),
(791,324,cs),
(755,324,o),
(687,321,o),
(586,316,cs),
(499,312,o),
(433,310,o),
(389,310,cs),
(364,310,o),
(341,313,o),
(319,320,cs),
(298,326,o),
(287,334,o),
(287,342,cs),
(287,351,o),
(299,362,o),
(324,376,cs),
(352,392,o),
(396,410,o),
(483,444,cs),
(518,458,o),
(538,492,o),
(539,540,cs),
(539,555,o),
(537,571,o),
(534,588,c),
(461,569,o),
(376,528,o),
(319,477,cs),
(263,426,o),
(235,374,o),
(235,325,cs),
(235,239,o),
(275,198,o),
(371,198,cs),
(419,198,o),
(491,201,o),
(585,207,cs),
(679,212,o),
(748,214,o),
(791,214,cs),
(867,214,o),
(901,201,o),
(923,157,c),
(766,138,o),
(500,127,o),
(271,127,cs),
(173,127,o),
(86,135,o),
(10,151,c),
(9,71,o),
(40,26,o),
(96,16,cs),
(127,11,o),
(182,9,o),
(286,9,cs)
);
}
);
width = 1015;
}
);
unicode = 1706;
}
{
glyphname = "noonghunna-ar";
layers = (
{
anchors = (
{
name = bottom;
pos = (268,-328);
},
{
name = bottom.dot;
pos = (268,-273);
},
{
name = ring;
pos = (256,-231);
},
{
name = top.far;
pos = (275,353);
},
{
name = top.near;
pos = (278,180);
}
);
layerId = master01;
shapes = (
{
closed = 1;
nodes = (
(297,-262,o),
(344,-250,o),
(389,-226,cs),
(480,-179,o),
(535,-99,o),
(535,-17,cs),
(535,11,o),
(530,49,o),
(521,97,cs),
(509,160,o),
(501,203,o),
(498,226,c),
(450,197,o),
(433,171,o),
(433,137,cs),
(433,105,o),
(454,41,o),
(498,-54,c),
(465,-125,o),
(350,-179,o),
(251,-179,cs),
(164,-179,o),
(113,-122,o),
(113,-24,cs),
(113,-6,o),
(117,18,o),
(124,47,c),
(87,56,l),
(71,-10,o),
(68,-35,o),
(68,-74,cs),
(68,-194,o),
(135,-262,o),
(249,-262,cs)
);
}
);
width = 586;
},
{
anchors = (
{
name = bottom;
pos = (268,-311);
},
{
name = bottom.dot;
pos = (268,-256);
},
{
name = ring;
pos = (260,-217);
},
{
name = top.far;
pos = (285,383);
},
{
name = top.near;
pos = (285,193);
}
);
layerId = "26E2967D-790C-4793-AF2A-2D0AD74EDC69";
shapes = (
{
closed = 1;
nodes = (
(306,-252,o),
(357,-242,o),
(403,-220,cs),
(495,-177,o),
(552,-96,o),
(552,-7,cs),
(552,29,o),
(545,75,o),
(537,123,cs),
(531,163,o),
(518,230,o),
(513,270,c),
(444,236,o),
(412,194,o),
(412,138,cs),
(412,111,o),
(451,43,o),
(497,-45,c),
(426,-109,o),
(359,-134,o),
(254,-134,cs),
(165,-134,o),
(123,-88,o),
(123,7,cs),
(123,30,o),
(128,57,o),
(137,87,c),
(93,98,l),
(76,35,o),
(68,-13,o),
(68,-47,cs),
(68,-180,o),
(132,-252,o),
(251,-252,cs)
);
}
);
width = 604;
}
);
unicode = (1722,64414);
}
{
glyphname = "hehDoachashmee-ar";
layers = (
{
anchors = (
{
name = bottom;
pos = (299,-100);
},
{
name = top.far;
pos = (296,656);
},
{
name = top.near;
pos = (296,465);
}
);
background = {
anchors = (
{
name = bottom;
pos = (315,-112);
}
);
};
layerId = master01;
shapes = (
{
closed = 1;
nodes = (
(563,39,o),
(580,84,o),
(580,116,cs),
(580,161,o),
(567,205,o),
(542,248,cs),
(492,334,o),
(398,402,o),
(287,433,c),
(264,368,l),
(214,343,o),
(176,268,o),
(176,207,cs),
(176,164,o),
(196,125,o),
(238,90,c),
(205,81,o),
(171,76,o),
(137,76,cs),
(91,76,o),
(54,79,o),
(26,84,c),
(17,50,l),
(77,17,o),
(122,0,o),
(151,0,cs),
(206,0,o),
(258,15,o),
(307,44,c),
(368,13,o),
(442,-8,o),
(529,-18,c)
);
},
{
closed = 1;
nodes = (
(274,148,o),
(240,175,o),
(211,208,c),
(217,227,o),
(224,245,o),
(235,260,cs),
(256,291,o),
(283,309,o),
(304,309,cs),
(333,309,o),
(363,269,o),
(363,231,cs),
(363,187,o),
(346,152,o),
(312,125,c)
);
},
{
closed = 1;
nodes = (
(472,62,o),
(420,75,o),
(370,95,c),
(405,134,o),
(422,178,o),
(422,228,cs),
(422,256,o),
(415,283,o),
(400,308,c),
(475,244,o),
(526,142,o),
(526,55,c)
);
}
);
width = 631;
},
{
anchors = (
{
name = bottom;
pos = (362,-110);
},
{
name = top.far;
pos = (325,686);
},
{
name = top.near;
pos = (325,505);
}
);
background = {
anchors = (
{
name = bottom;
pos = (336,-110);
}
);
};
layerId = "26E2967D-790C-4793-AF2A-2D0AD74EDC69";
shapes = (
{
closed = 1;
nodes = (
(602,48,o),
(619,93,o),
(619,125,cs),
(619,174,o),
(604,224,o),
(576,274,cs),
(520,375,o),
(417,452,o),
(309,479,c),
(280,375,l),
(235,344,o),
(198,269,o),
(198,216,cs),
(198,185,o),
(210,154,o),
(233,123,c),
(212,120,o),
(188,119,o),
(164,119,cs),
(126,119,o),
(90,123,o),
(54,130,c),
(34,90,l),
(68,52,o),
(133,9,o),
(154,9,cs),
(223,9,o),
(281,22,o),
(329,48,c),
(392,15,o),
(475,-7,o),
(568,-9,c)
);
},
{
closed = 1;
nodes = (
(304,169,o),
(274,190,o),
(249,217,c),
(256,236,o),
(264,251,o),
(273,264,cs),
(290,289,o),
(310,301,o),
(333,301,cs),
(356,301,o),
(383,272,o),
(383,240,cs),
(383,203,o),
(363,166,o),
(337,153,c)
);
},
{
closed = 1;
nodes = (
(500,108,o),
(451,116,o),
(417,125,c),
(437,157,o),
(448,194,o),
(448,237,cs),
(448,258,o),
(444,277,o),
(437,296,c),
(490,253,o),
(528,193,o),
(563,100,c)
);
}
);
width = 670;
}
);
metricRight = "=heh-ar";
unicode = (1726,64426);
}
{
glyphname = "yehTail-ar";
layers = (
{
anchors = (
{
name = bottom;
pos = (384,-310);
},
{
name = top.far;
pos = (370,314);
},
{
name = top.near;
pos = (370,314);
}
);
layerId = master01;
shapes = (
{
closed = 1;
nodes = (
(429,-262,o),
(477,-251,o),
(529,-229,cs),
(634,-185,o),
(718,-108,o),
(718,-47,cs),
(718,-15,o),
(710,6,o),
(687,21,cs),
(667,34,o),
(635,42,o),
(587,49,cs),
(533,57,o),
(496,69,o),
(477,87,c),
(483,112,o),
(495,137,o),
(516,164,cs),
(556,216,o),
(616,258,o),
(651,258,cs),
(668,258,o),
(674,256,o),
(684,243,c),
(719,253,l),
(707,307,o),
(687,340,o),
(642,340,cs),
(616,340,o),
(587,326,o),
(554,297,cs),
(489,240,o),
(441,152,o),
(441,91,cs),
(441,61,o),
(447,37,o),
(460,18,cs),
(486,-20,o),
(530,-33,o),
(630,-41,cs),
(648,-43,o),
(666,-45,o),
(683,-48,c),
(672,-70,o),
(651,-91,o),
(619,-111,cs),
(557,-151,o),
(458,-179,o),
(387,-179,cs),
(299,-179,o),
(248,-122,o),
(248,-24,cs),
(248,4,o),
(256,38,o),
(268,76,c),
(235,92,l),
(172,60,o),
(93,19,o),
(80,4,cs),
(71,-7,o),
(70,-13,o),
(68,-30,cs),
(68,-41,o),
(71,-51,o),
(77,-61,c),
(122,-37,o),
(166,-13,o),
(210,11,c),
(205,-14,o),
(203,-42,o),
(203,-74,cs),
(203,-194,o),
(270,-262,o),
(384,-262,cs)
);
}
);
width = 753;
},
{
anchors = (
{
name = bottom;
pos = (409,-310);
},
{
name = top.far;
pos = (355,297);
},
{
name = top.near;
pos = (355,297);
}
);
layerId = "26E2967D-790C-4793-AF2A-2D0AD74EDC69";
shapes = (
{
closed = 1;
nodes = (
(445,-252,o),
(498,-240,o),
(552,-215,cs),
(659,-165,o),
(738,-80,o),
(738,-19,cs),
(738,11,o),
(724,48,o),
(704,63,cs),
(684,79,o),
(660,87,o),
(613,93,cs),
(561,99,o),
(521,107,o),
(495,118,c),
(506,145,o),
(521,170,o),
(542,192,cs),
(582,238,o),
(631,266,o),
(667,266,cs),
(679,266,o),
(689,260,o),
(699,247,c),
(743,256,l),
(730,341,o),
(701,385,o),
(655,385,cs),
(626,385,o),
(594,371,o),
(561,344,cs),
(494,288,o),
(444,194,o),
(444,119,cs),
(444,86,o),
(451,60,o),
(467,38,cs),
(494,0,o),
(548,-21,o),
(637,-27,cs),
(652,-28,o),
(669,-28,o),
(687,-28,c),
(665,-45,o),
(641,-61,o),
(615,-74,cs),
(545,-112,o),
(468,-134,o),
(404,-134,cs),
(313,-134,o),
(268,-89,o),
(268,0,cs),
(268,25,o),
(276,62,o),
(286,90,c),
(246,110,l),
(191,83,o),
(96,25,o),
(86,13,cs),
(75,2,o),
(69,-16,o),
(69,-35,cs),
(69,-54,o),
(73,-71,o),
(83,-86,c),
(138,-56,o),
(180,-34,o),
(210,-21,c),
(209,-29,o),
(209,-38,o),
(209,-47,cs),
(209,-180,o),
(273,-252,o),
(393,-252,cs)
);
}
);
width = 777;
}
);
unicode = 1741;
}
{
glyphname = "yehbarree-ar";
layers = (
{
anchors = (
{
name = bottom;
pos = (428,-100);
},
{
name = top.far;
pos = (243,457);
},
{
name = top.near;
pos = (242,326);
}
);
layerId = master01;
shapes = (
{
closed = 1;
nodes = (
(516,0,o),
(666,18,o),
(720,45,cs),
(744,57,o),
(755,71,o),
(755,89,cs),
(755,100,o),
(751,111,o),
(741,122,c),
(647,94,o),
(521,76,o),
(419,76,cs),
(280,76,o),
(189,88,o),
(114,118,c),
(146,140,o),
(167,153,o),
(195,165,cs),
(218,175,o),
(247,185,o),
(292,198,cs),
(334,211,o),
(359,238,o),
(379,297,c),
(348,314,l),
(335,289,o),
(317,268,o),
(271,253,cs),
(221,236,o),
(192,226,o),
(183,222,cs),
(149,206,o),
(121,187,o),
(101,166,cs),
(88,153,o),
(68,80,o),
(68,52,cs),
(68,45,o),
(84,37,o),
(116,29,cs),
(187,11,o),
(312,0,o),
(406,0,cs)
);
}
);
width = 773;
},
{
anchors = (
{
name = bottom;
pos = (445,-110);
},
{
name = top.far;
pos = (254,484);
},
{
name = top.near;
pos = (254,343);
}
);
layerId = "26E2967D-790C-4793-AF2A-2D0AD74EDC69";
shapes = (
{
closed = 1;
nodes = (
(497,0,o),
(680,21,o),
(729,46,cs),
(756,60,o),
(773,84,o),
(773,112,cs),
(773,132,o),
(766,149,o),
(753,165,c),
(659,137,o),
(533,119,o),
(431,119,cs),
(304,119,o),
(225,128,o),
(144,161,c),
(165,170,o),
(193,180,o),
(227,190,cs),
(257,200,o),
(284,210,o),
(305,219,cs),
(350,239,o),
(383,279,o),
(402,338,c),
(359,357,l),
(346,329,o),
(318,307,o),
(256,289,cs),
(233,282,o),
(216,276,o),
(205,271,cs),
(165,253,o),
(136,235,o),
(117,214,cs),
(104,202,o),
(68,83,o),
(68,59,cs),
(68,50,o),
(85,42,o),
(119,32,cs),
(192,12,o),
(316,0,o),
(418,0,cs)
);
}
);
width = 808;
}
);
unicode = (1746,64430);
}
{
glyphname = "fullstop-ar";
layers = (
{
layerId = master01;
shapes = (
{
closed = 1;
nodes = (
(178,0,ls),
(181,0,o),
(182,1,o),
(183,3,cs),
(223,73,ls),
(224,75,o),
(220,76,o),
(218,76,cs),
(64,76,ls),
(62,76,o),
(62,75,o),
(61,73,cs),
(21,3,ls),
(20,1,o),
(22,0,o),
(24,0,cs)
);
}
);
width = 243;
},
{
layerId = "26E2967D-790C-4793-AF2A-2D0AD74EDC69";
shapes = (
{
closed = 1;
nodes = (
(202,9,ls),
(205,9,o),
(205,10,o),
(207,13,cs),
(270,124,ls),
(271,126,o),
(268,127,o),
(265,127,cs),
(87,127,ls),
(85,127,o),
(85,126,o),
(84,124,cs),
(21,13,ls),
(19,10,o),
(22,9,o),
(24,9,cs)
);
}
);
width = 290;
}
);
unicode = 1748;
}
{
glyphname = "sadLamAlefMaksuraabove-ar";
layers = (
{
anchors = (
{
name = bottom;
pos = (257,-233);
},
{
name = top.far;
pos = (241,1127);
},
{
name = top.near;
pos = (241,1127);
}
);
layerId = master01;
shapes = (
{
closed = 1;
nodes = (
(170,748,o),
(253,745,o),
(253,773,cs),
(253,777,o),
(251,782,o),
(248,786,c),
(218,780,o),
(179,777,o),
(128,777,cs),
(85,777,o),
(38,782,o),
(18,788,c),
(47,807,o),
(114,826,o),
(153,834,cs),
(176,839,l),
(186,829,o),
(200,825,o),
(219,825,cs),
(244,825,o),
(253,829,o),
(268,846,c),
(289,834,o),
(329,825,o),
(370,825,cs),
(392,825,o),
(412,828,o),
(430,835,cs),
(467,848,o),
(491,870,o),
(491,905,cs),
(491,925,o),
(448,959,o),
(424,959,cs),
(390,959,o),
(349,927,o),
(302,863,c),
(283,871,l),
(294,897,l),
(292,899,o),
(289,901,o),
(285,901,cs),
(280,901,o),
(276,898,o),
(273,894,cs),
(262,875,ls),
(255,863,o),
(244,854,o),
(219,854,cs),
(206,854,o),
(193,857,o),
(180,863,c),
(178,971,ls),
(177,1016,o),
(177,1052,o),
(175,1078,c),
(167,1072,o),
(159,1065,o),
(150,1057,c),
(157,956,o),
(162,892,o),
(165,863,c),
(92,850,o),
(0,825,o),
(0,771,cs),
(0,766,o),
(14,761,o),
(42,756,cs),
(70,750,o),
(98,748,o),
(126,748,cs)
);
},
{
closed = 1;
nodes = (
(355,854,o),
(337,856,o),
(319,859,c),
(356,904,o),
(391,928,o),
(416,928,cs),
(433,928,o),
(458,915,o),
(474,886,c),
(440,864,o),
(407,854,o),
(374,854,cs)
);
}
);
width = 491;
},
{
anchors = (
{
name = bottom;
pos = (259,-224);
},
{
name = top.far;
pos = (243,1136);
},
{
name = top.near;
pos = (243,1136);
}
);
layerId = "26E2967D-790C-4793-AF2A-2D0AD74EDC69";
shapes = (
{
closed = 1;
nodes = (
(175,738,o),
(263,735,o),
(263,768,cs),
(263,774,o),
(260,781,o),
(255,787,c),
(225,780,o),
(186,777,o),
(133,777,cs),
(98,777,o),
(60,780,o),
(36,785,c),
(68,801,o),
(124,817,o),
(159,824,cs),
(179,829,l),
(190,819,o),
(204,815,o),
(224,815,cs),
(248,815,o),
(261,820,o),
(274,835,c),
(297,823,o),
(337,815,o),
(375,815,cs),
(398,815,o),
(418,818,o),
(437,825,cs),
(479,840,o),
(501,865,o),
(501,900,cs),
(501,923,o),
(456,959,o),
(429,959,cs),
(393,959,o),
(352,927,o),
(305,864,c),
(295,869,l),
(305,893,l),
(301,898,o),
(296,901,o),
(290,901,cs),
(284,901,o),
(278,898,o),
(274,892,cs),
(263,873,ls),
(255,860,o),
(244,854,o),
(224,854,cs),
(213,854,o),
(201,857,o),
(190,861,c),
(188,966,ls),
(187,1016,o),
(187,1055,o),
(184,1082,c),
(173,1075,o),
(162,1065,o),
(150,1054,c),
(157,957,o),
(161,893,o),
(165,862,c),
(94,849,o),
(0,824,o),
(0,766,cs),
(0,756,o),
(19,751,o),
(46,746,cs),
(74,740,o),
(103,738,o),
(131,738,cs)
);
},
{
closed = 1;
nodes = (
(363,854,o),
(348,855,o),
(334,858,c),
(367,896,o),
(399,918,o),
(421,918,cs),
(438,918,o),
(459,904,o),
(472,883,c),
(442,864,o),
(411,854,o),
(379,854,cs)
);
}
);
width = 501;
}
);
metricLeft = "=0";
metricRight = "=0";
unicode = 1750;
}
{
glyphname = "qafLamAlefMaksuraabove-ar";
layers = (
{
anchors = (
{
name = bottom;
pos = (200,-231);
},
{
name = top.far;
pos = (184,1129);
},
{
name = top.near;
pos = (184,1129);
}
);
layerId = master01;
shapes = (
{
closed = 1;
nodes = (
(164,748,o),
(195,749,o),
(217,752,cs),
(240,754,o),
(252,761,o),
(252,773,cs),
(252,777,o),
(250,781,o),
(246,786,c),
(217,780,o),
(178,777,o),
(128,777,cs),
(85,777,o),
(38,782,o),
(17,788,c),
(33,798,o),
(60,809,o),
(98,820,cs),
(110,824,o),
(136,830,o),
(175,839,c),
(186,829,o),
(200,825,o),
(219,825,cs),
(270,825,o),
(308,829,o),
(343,852,c),
(353,870,o),
(357,883,o),
(357,890,cs),
(357,948,o),
(331,999,o),
(290,999,cs),
(265,999,o),
(243,966,o),
(243,926,cs),
(243,902,o),
(258,883,o),
(280,883,cs),
(299,883,o),
(321,891,o),
(334,903,c),
(339,874,l),
(310,860,o),
(270,854,o),
(219,854,cs),
(206,854,o),
(192,857,o),
(179,863,c),
(175,1078,l),
(165,1071,o),
(157,1064,o),
(149,1057,c),
(152,1024,o),
(154,992,o),
(156,958,cs),
(158,925,o),
(161,894,o),
(164,863,c),
(77,847,o),
(41,830,o),
(9,802,c),
(6,798,o),
(0,777,o),
(0,771,cs),
(0,766,o),
(13,761,o),
(41,756,cs),
(68,750,o),
(97,748,o),
(125,748,cs)
);
},
{
closed = 1;
nodes = (
(268,911,o),
(258,919,o),
(258,933,cs),
(258,952,o),
(269,967,o),
(285,967,cs),
(304,967,o),
(321,948,o),
(329,921,c),
(314,914,o),
(301,911,o),
(289,911,cs)
);
},
{
closed = 1;
nodes = (
(264,1029,o),
(271,1038,o),
(274,1043,c),
(251,1066,l),
(227,1041,l),
(232,1034,o),
(240,1026,o),
(252,1017,c)
);
},
{
closed = 1;
nodes = (
(319,1033,o),
(326,1041,o),
(331,1049,c),
(308,1071,l),
(283,1046,l),
(292,1037,o),
(300,1029,o),
(308,1023,c)
);
}
);
width = 357;
},
{
anchors = (
{
name = bottom;
pos = (204,-224);
},
{
name = top.far;
pos = (188,1136);
},
{
name = top.near;
pos = (188,1136);
}
);
layerId = "26E2967D-790C-4793-AF2A-2D0AD74EDC69";
shapes = (
{
closed = 1;
nodes = (
(169,738,o),
(200,739,o),
(223,742,cs),
(248,744,o),
(262,753,o),
(262,768,cs),
(262,773,o),
(260,779,o),
(253,787,c),
(224,780,o),
(185,777,o),
(133,777,cs),
(98,777,o),
(60,780,o),
(36,785,c),
(52,793,o),
(75,802,o),
(104,810,cs),
(116,814,o),
(141,820,o),
(179,829,c),
(190,819,o),
(204,815,o),
(224,815,cs),
(275,815,o),
(315,819,o),
(351,843,c),
(362,866,o),
(367,877,o),
(367,885,cs),
(367,950,o),
(337,999,o),
(295,999,cs),
(267,999,o),
(243,963,o),
(243,921,cs),
(243,894,o),
(261,873,o),
(285,873,cs),
(303,873,o),
(322,879,o),
(336,889,c),
(338,872,l),
(312,860,o),
(275,854,o),
(224,854,cs),
(212,854,o),
(200,857,o),
(189,861,c),
(185,1082,l),
(170,1073,o),
(159,1063,o),
(149,1054,c),
(152,1020,o),
(154,988,o),
(156,953,cs),
(158,921,o),
(161,892,o),
(164,862,c),
(77,845,o),
(41,828,o),
(9,800,c),
(5,795,o),
(0,773,o),
(0,766,cs),
(0,756,o),
(19,751,o),
(45,746,cs),
(72,740,o),
(102,738,o),
(130,738,cs)
);
},
{
closed = 1;
nodes = (
(276,911,o),
(268,917,o),
(268,928,cs),
(268,945,o),
(277,957,o),
(290,957,cs),
(305,957,o),
(320,942,o),
(328,919,c),
(316,914,o),
(305,911,o),
(294,911,cs)
);
},
{
closed = 1;
nodes = (
(268,1019,o),
(278,1032,o),
(281,1039,c),
(252,1068,l),
(222,1037,l),
(228,1026,o),
(239,1016,o),
(253,1005,c)
);
},
{
closed = 1;
nodes = (
(331,1024,o),
(340,1034,o),
(346,1045,c),
(317,1073,l),
(285,1041,l),
(297,1029,o),
(307,1019,o),
(317,1012,c)
);
}
);
width = 367;
}
);
metricLeft = "=0";
metricRight = "=0";
unicode = 1751;
}
{
glyphname = "meemStopabove-ar";
layers = (
{
anchors = (
{
name = bottom;
pos = (159,-347);
},
{
name = top.far;
pos = (143,1013);
},
{
name = top.near;
pos = (143,1013);
}
);
layerId = master01;
shapes = (
{
closed = 1;
nodes = (
(90,748,o),
(133,780,o),
(161,822,c),
(184,809,o),
(217,800,o),
(245,800,c),
(256,808,o),
(264,819,o),
(264,839,cs),
(264,877,o),
(243,928,o),
(218,928,cs),
(187,928,o),
(176,889,o),
(158,861,cs),
(121,799,o),
(74,762,o),
(0,762,c),
(0,752,l),
(13,750,o),
(24,748,o),
(34,748,cs)
);
},
{
closed = 1;
nodes = (
(213,830,o),
(196,836,o),
(175,848,c),
(183,863,o),
(189,874,o),
(195,882,cs),
(201,890,o),
(206,894,o),
(212,894,cs),
(224,894,o),
(236,855,o),
(237,829,c)
);
}
);
width = 264;
},
{
anchors = (
{
name = bottom;
pos = (163,-353);
},
{
name = top.far;
pos = (147,1007);
},
{
name = top.near;
pos = (147,1007);
}
);
layerId = "26E2967D-790C-4793-AF2A-2D0AD74EDC69";
shapes = (
{
closed = 1;
nodes = (
(96,738,o),
(140,770,o),
(168,810,c),
(192,797,o),
(223,790,o),
(253,790,c),
(268,801,o),
(274,813,o),
(274,831,cs),
(274,876,o),
(250,922,o),
(223,922,cs),
(187,922,o),
(176,880,o),
(159,854,cs),
(120,790,o),
(74,754,o),
(0,756,c),
(0,743,l),
(14,741,o),
(27,738,o),
(39,738,cs)
);
},
{
closed = 1;
nodes = (
(218,825,o),
(204,830,o),
(185,840,c),
(195,860,o),
(200,868,o),
(204,873,cs),
(210,881,o),
(213,884,o),
(217,884,cs),
(223,884,o),
(235,849,o),
(237,823,c)
);
}
);
width = 274;
}
);
metricLeft = "=0";
metricRight = "=0";
unicode = 1752;
}
{
glyphname = "lamAlefabove-ar";
layers = (
{
anchors = (
{
name = bottom;
pos = (111,-303);
},
{
name = top.far;
pos = (95,1057);
},
{
name = top.near;
pos = (95,1057);
}
);
layerId = master01;
shapes = (
{
closed = 1;
nodes = (
(90,748,o),
(128,750,o),
(152,754,cs),
(155,755,o),
(163,772,o),
(163,780,cs),
(163,788,o),
(144,820,o),
(135,836,c),
(144,854,o),
(149,873,o),
(149,892,c),
(147,946,l),
(146,954,l),
(157,963,l),
(151,977,o),
(146,993,o),
(143,1008,c),
(126,1005,o),
(118,997,o),
(118,984,cs),
(118,982,o),
(119,972,o),
(122,955,cs),
(127,918,o),
(130,895,o),
(130,885,cs),
(130,873,o),
(128,864,o),
(123,852,c),
(110,867,o),
(98,880,o),
(87,891,cs),
(64,914,o),
(34,939,o),
(13,953,c),
(2,948,o),
(0,940,o),
(0,932,cs),
(0,921,o),
(5,912,o),
(18,900,c),
(32,901,l),
(59,885,o),
(89,860,o),
(112,834,c),
(97,815,o),
(85,803,o),
(51,777,c),
(43,777,l),
(41,777,o),
(37,759,o),
(37,752,cs),
(37,750,o),
(38,748,o),
(39,748,cs)
);
},
{
closed = 1;
nodes = (
(99,791,o),
(113,805,o),
(124,819,c),
(135,806,o),
(143,794,o),
(148,784,c),
(126,780,o),
(103,778,o),
(81,777,c)
);
}
);
width = 163;
},
{
anchors = (
{
name = bottom;
pos = (113,-313);
},
{
name = top.far;
pos = (97,1047);
},
{
name = top.near;
pos = (97,1047);
}
);
layerId = "26E2967D-790C-4793-AF2A-2D0AD74EDC69";
shapes = (
{
closed = 1;
nodes = (
(88,738,o),
(126,739,o),
(149,744,cs),
(152,744,o),
(163,774,o),
(163,782,cs),
(163,789,o),
(134,830,o),
(131,835,c),
(142,856,o),
(148,878,o),
(148,900,c),
(146,936,l),
(146,942,l),
(158,952,l),
(152,966,o),
(148,982,o),
(144,998,c),
(122,998,o),
(106,985,o),
(106,964,cs),
(106,960,o),
(107,952,o),
(110,936,cs),
(115,906,o),
(118,888,o),
(118,882,cs),
(118,873,o),
(116,864,o),
(114,856,c),
(104,869,o),
(93,881,o),
(81,894,cs),
(58,917,o),
(35,938,o),
(19,949,c),
(6,942,o),
(0,931,o),
(0,918,cs),
(0,903,o),
(6,892,o),
(20,885,c),
(33,886,l),
(61,867,o),
(84,849,o),
(103,830,c),
(94,814,o),
(78,798,o),
(56,779,c),
(41,779,l),
(39,779,o),
(36,750,o),
(36,740,cs),
(36,738,o),
(37,738,o),
(37,738,cs)
);
},
{
closed = 1;
nodes = (
(97,789,o),
(108,800,o),
(118,813,c),
(125,804,o),
(132,795,o),
(140,787,c),
(122,783,o),
(107,782,o),
(85,780,c)
);
}
);
width = 163;
}
);
metricLeft = "=0";
metricRight = "=0";
unicode = 1753;
}
{
glyphname = "jeemabove-ar";
layers = (
{
anchors = (
{
name = bottom;
pos = (25,-430);
},
{
name = top.far;
pos = (9,930);
},
{
name = top.near;
pos = (9,930);
}
);
layerId = master01;
shapes = (
{
closed = 1;
nodes = (
(31,584,o),
(63,593,o),
(100,614,c),
(95,627,l),
(65,620,o),
(34,616,o),
(3,616,cs),
(-55,616,o),
(-83,638,o),
(-83,679,cs),
(-83,705,o),
(-67,730,o),
(-39,749,cs),
(-12,769,o),
(28,784,o),
(59,786,c),
(66,786,o),
(73,786,o),
(80,788,c),
(91,818,l),
(66,817,ls),
(43,816,o),
(22,824,o),
(1,830,cs),
(-21,837,o),
(-41,844,o),
(-63,844,cs),
(-90,844,o),
(-108,831,o),
(-108,811,cs),
(-108,805,o),
(-106,799,o),
(-103,797,c),
(-85,808,o),
(-77,811,o),
(-62,811,cs),
(-45,811,o),
(-18,801,o),
(-8,797,c),
(-24,791,o),
(-39,782,o),
(-53,770,cs),
(-80,745,o),
(-96,712,o),
(-96,679,cs),
(-96,617,o),
(-61,584,o),
(2,584,cs)
);
},
{
closed = 1;
nodes = (
(23,661,o),
(31,670,o),
(38,680,c),
(31,685,o),
(23,694,o),
(13,705,c),
(-13,676,l),
(-7,668,o),
(2,660,o),
(13,650,c)
);
}
);
width = 0;
},
{
anchors = (
{
name = bottom;
pos = (25,-430);
},
{
name = top.far;
pos = (9,930);
},
{
name = top.near;
pos = (9,930);
}
);
layerId = "26E2967D-790C-4793-AF2A-2D0AD74EDC69";
shapes = (
{
closed = 1;
nodes = (
(25,578,o),
(64,593,o),
(105,617,c),
(100,632,l),
(65,625,o),
(36,621,o),
(11,621,cs),
(-37,621,o),
(-70,641,o),
(-70,674,cs),
(-70,695,o),
(-58,715,o),
(-36,733,cs),
(-14,750,o),
(19,765,o),
(44,769,c),
(56,768,o),
(79,768,o),
(88,769,c),
(104,811,l),
(70,810,ls),
(51,809,o),
(32,815,o),
(5,825,cs),
(-22,834,o),
(-37,838,o),
(-54,838,cs),
(-84,838,o),
(-103,824,o),
(-103,801,cs),
(-103,793,o),
(-99,784,o),
(-94,779,c),
(-77,790,o),
(-69,794,o),
(-55,794,cs),
(-41,794,o),
(-27,788,o),
(-10,782,c),
(-26,775,o),
(-39,765,o),
(-50,755,cs),
(-75,731,o),
(-89,701,o),
(-89,669,cs),
(-89,612,o),
(-53,578,o),
(10,578,cs)
);
},
{
closed = 1;
nodes = (
(26,662,o),
(34,672,o),
(42,683,c),
(34,689,o),
(26,699,o),
(15,711,c),
(-13,679,l),
(-7,670,o),
(3,661,o),
(15,650,c)
);
}
);
width = 0;
}
);
unicode = 1754;
}
{
glyphname = "threedotsabove-ar";
layers = (
{
anchors = (
{
name = bottom;
pos = (25,-430);
},
{
name = top.far;
pos = (9,930);
},
{
name = top.near;
pos = (9,930);
}
);
layerId = master01;
shapes = (
{
closed = 1;
nodes = (
(67,696,o),
(80,711,o),
(93,729,c),
(53,769,l),
(33,748,l),
(10,725,l),
(19,715,o),
(33,702,o),
(54,684,c)
);
},
{
closed = 1;
nodes = (
(-37,688,o),
(-24,703,o),
(-12,721,c),
(-52,760,l),
(-76,735,o),
(-90,720,o),
(-95,716,c),
(-82,702,o),
(-68,688,o),
(-51,676,c)
);
},
{
closed = 1;
nodes = (
(2,760,o),
(17,773,o),
(37,794,c),
(-2,834,l),
(-13,821,o),
(-26,808,o),
(-42,794,c),
(-29,778,o),
(-18,765,o),
(-3,757,c)
);
}
);
width = 0;
},
{
anchors = (
{
name = bottom;
pos = (25,-430);
},
{
name = top.far;
pos = (9,930);
},
{
name = top.near;
pos = (9,930);
}
);
layerId = "26E2967D-790C-4793-AF2A-2D0AD74EDC69";
shapes = (
{
closed = 1;
nodes = (
(72,687,o),
(88,702,o),
(102,722,c),
(55,768,l),
(31,743,l),
(5,717,l),
(14,707,o),
(29,692,o),
(53,672,c)
);
},
{
closed = 1;
nodes = (
(-35,678,o),
(-21,691,o),
(-4,714,c),
(-50,759,l),
(-81,727,o),
(-93,715,o),
(-100,709,c),
(-86,693,o),
(-71,677,o),
(-52,664,c)
);
},
{
closed = 1;
nodes = (
(5,747,o),
(20,764,o),
(41,786,c),
(-1,830,l),
(-15,813,o),
(-30,800,o),
(-44,783,c),
(-27,767,o),
(-11,749,o),
(1,745,c)
);
}
);
width = 0;
}
);
unicode = 1755;
}
{
glyphname = "endofayah-ar";
layers = (
{
anchors = (
{
name = digits;
pos = (499,220);
}
);
layerId = master01;
shapes = (
{
closed = 1;
nodes = (
(652,-240,o),
(692,-204,o),
(738,-194,cs),
(932,-149,o),
(1072,-46,o),
(1160,109,c),
(1154,113,o),
(1148,117,o),
(1140,117,cs),
(1135,117,o),
(1128,115,o),
(1120,109,c),
(1168,198,o),
(1189,288,o),
(1189,392,cs),
(1189,493,o),
(1168,583,o),
(1120,671,c),
(1129,668,o),
(1135,667,o),
(1141,667,cs),
(1145,667,o),
(1148,667,o),
(1151,668,cs),
(1154,669,o),
(1157,670,o),
(1160,671,c),
(1116,748,o),
(1056,815,o),
(984,866,cs),
(912,917,o),
(828,954,o),
(738,973,cs),
(688,984,o),
(652,1023,o),
(630,1056,c),
(604,1022,o),
(570,978,o),
(529,973,cs),
(441,961,o),
(358,924,o),
(286,871,cs),
(214,818,o),
(153,748,o),
(111,671,c),
(113,670,o),
(116,669,o),
(119,668,cs),
(122,667,o),
(125,667,o),
(129,667,cs),
(134,667,o),
(141,668,o),
(148,671,c),
(103,583,o),
(71,492,o),
(71,392,cs),
(71,340,o),
(79,292,o),
(93,245,cs),
(106,198,o),
(126,153,o),
(148,109,c),
(141,115,o),
(134,117,o),
(129,117,cs),
(122,117,o),
(115,114,o),
(111,109,c),
(154,32,o),
(208,-35,o),
(277,-86,cs),
(345,-138,o),
(428,-175,o),
(529,-194,cs),
(572,-200,o),
(607,-240,o),
(630,-271,c)
);
},
{
closed = 1;
nodes = (
(413,-122,o),
(351,-93,o),
(296,-53,c),
(287,-48,o),
(282,-39,o),
(282,-29,cs),
(282,-12,o),
(296,5,o),
(312,5,cs),
(320,5,o),
(328,1,o),
(335,-6,c),
(380,-35,o),
(447,-70,o),
(499,-86,c),
(512,-91,o),
(523,-102,o),
(523,-115,cs),
(523,-117,o),
(523,-119,o),
(522,-122,cs),
(517,-141,o),
(499,-146,o),
(482,-146,c)
);
},
{
closed = 1;
nodes = (
(599,-183,o),
(578,-161,o),
(578,-130,cs),
(578,-98,o),
(599,-76,o),
(630,-76,cs),
(662,-76,o),
(686,-100,o),
(686,-130,cs),
(686,-161,o),
(663,-183,o),
(630,-183,cs)
);
},
{
closed = 1;
nodes = (
(760,-144,o),
(739,-136,o),
(739,-112,cs),
(739,-97,o),
(751,-88,o),
(764,-82,c),
(818,-67,o),
(881,-34,o),
(928,-5,c),
(936,3,o),
(944,7,o),
(951,7,cs),
(959,7,o),
(966,3,o),
(973,-5,cs),
(977,-10,o),
(980,-17,o),
(980,-24,cs),
(980,-35,o),
(975,-44,o),
(965,-51,cs),
(911,-88,o),
(850,-120,o),
(780,-144,c)
);
},
{
closed = 1;
nodes = (
(684,-57,o),
(653,-40,o),
(630,-21,c),
(608,-39,o),
(582,-56,o),
(548,-56,cs),
(542,-56,o),
(536,-55,o),
(529,-53,cs),
(433,-29,o),
(365,10,o),
(312,72,c),
(305,68,o),
(292,66,o),
(280,66,c),
(186,150,o),
(140,264,o),
(140,392,cs),
(140,524,o),
(187,631,o),
(280,724,c),
(292,717,o),
(306,716,o),
(312,716,c),
(366,772,o),
(443,817,o),
(529,834,cs),
(540,836,o),
(551,837,o),
(561,837,cs),
(596,837,o),
(617,825,o),
(630,810,c),
(647,826,o),
(671,837,o),
(707,837,cs),
(717,837,o),
(727,836,o),
(738,834,cs),
(815,819,o),
(895,770,o),
(950,716,c),
(956,716,o),
(967,717,o),
(980,724,c),
(1074,631,o),
(1118,524,o),
(1120,392,cs),
(1120,331,o),
(1108,270,o),
(1085,215,cs),
(1062,159,o),
(1027,108,o),
(980,66,c),
(967,66,o),
(957,68,o),
(950,72,c),
(922,40,o),
(892,17,o),
(858,-3,cs),
(824,-22,o),
(785,-38,o),
(738,-53,cs),
(730,-56,o),
(723,-57,o),
(716,-57,cs)
);
},
{
closed = 1;
nodes = (
(299,779,o),
(284,793,o),
(284,809,cs),
(284,820,o),
(289,831,o),
(299,836,c),
(352,875,o),
(414,906,o),
(483,930,c),
(500,930,o),
(518,926,o),
(522,907,cs),
(523,904,o),
(523,902,o),
(523,900,cs),
(523,886,o),
(514,874,o),
(500,868,c),
(446,852,o),
(382,820,o),
(336,790,c),
(329,782,o),
(321,779,o),
(313,779,cs)
);
},
{
closed = 1;
nodes = (
(599,856,o),
(578,878,o),
(578,911,cs),
(578,942,o),
(599,963,o),
(630,963,cs),
(663,963,o),
(686,942,o),
(686,911,cs),
(686,878,o),
(663,856,o),
(630,856,cs)
);
},
{
closed = 1;
nodes = (
(944,776,o),
(936,780,o),
(929,787,c),
(881,819,o),
(821,850,o),
(765,866,cs),
(752,870,o),
(741,886,o),
(741,901,cs),
(741,924,o),
(762,927,o),
(781,927,c),
(850,902,o),
(911,872,o),
(967,834,c),
(976,829,o),
(981,819,o),
(981,808,cs),
(981,800,o),
(978,793,o),
(973,787,cs),
(967,780,o),
(959,776,o),
(952,776,cs)
);
}
);
width = 1260;
},
{
anchors = (
{
name = digits;
pos = (484,220);
}
);
layerId = "26E2967D-790C-4793-AF2A-2D0AD74EDC69";
shapes = (
{
closed = 1;
nodes = (
(652,-240,o),
(692,-204,o),
(738,-194,cs),
(932,-149,o),
(1072,-46,o),
(1160,109,c),
(1154,113,o),
(1148,117,o),
(1140,117,cs),
(1135,117,o),
(1128,115,o),
(1120,109,c),
(1168,198,o),
(1189,288,o),
(1189,392,cs),
(1189,493,o),
(1168,583,o),
(1120,671,c),
(1129,668,o),
(1135,667,o),
(1141,667,cs),
(1145,667,o),
(1148,667,o),
(1151,668,cs),
(1154,669,o),
(1157,670,o),
(1160,671,c),
(1116,748,o),
(1056,815,o),
(984,866,cs),
(912,917,o),
(828,954,o),
(738,973,cs),
(688,984,o),
(652,1023,o),
(630,1056,c),
(604,1022,o),
(570,978,o),
(529,973,cs),
(441,961,o),
(358,924,o),
(286,871,cs),
(214,818,o),
(153,748,o),
(111,671,c),
(113,670,o),
(116,669,o),
(119,668,cs),
(122,667,o),
(125,667,o),
(129,667,cs),
(134,667,o),
(141,668,o),
(148,671,c),
(103,583,o),
(71,492,o),
(71,392,cs),
(71,340,o),
(79,292,o),
(93,245,cs),
(106,198,o),
(126,153,o),
(148,109,c),
(141,115,o),
(134,117,o),
(129,117,cs),
(122,117,o),
(115,114,o),
(111,109,c),
(154,32,o),
(208,-35,o),
(277,-86,cs),
(345,-138,o),
(428,-175,o),
(529,-194,cs),
(572,-200,o),
(607,-240,o),
(630,-271,c)
);
},
{
closed = 1;
nodes = (
(413,-122,o),
(351,-93,o),
(296,-53,c),
(287,-48,o),
(282,-39,o),
(282,-29,cs),
(282,-12,o),
(296,5,o),
(312,5,cs),
(320,5,o),
(328,1,o),
(335,-6,c),
(380,-35,o),
(447,-70,o),
(499,-86,c),
(512,-91,o),
(523,-102,o),
(523,-115,cs),
(523,-117,o),
(523,-119,o),
(522,-122,cs),
(517,-141,o),
(499,-146,o),
(482,-146,c)
);
},
{
closed = 1;
nodes = (
(599,-183,o),
(578,-161,o),
(578,-130,cs),
(578,-98,o),
(599,-76,o),
(630,-76,cs),
(662,-76,o),
(686,-100,o),
(686,-130,cs),
(686,-161,o),
(663,-183,o),
(630,-183,cs)
);
},
{
closed = 1;
nodes = (
(760,-144,o),
(739,-136,o),
(739,-112,cs),
(739,-97,o),
(751,-88,o),
(764,-82,c),
(818,-67,o),
(881,-34,o),
(928,-5,c),
(936,3,o),
(944,7,o),
(951,7,cs),
(959,7,o),
(966,3,o),
(973,-5,cs),
(977,-10,o),
(980,-17,o),
(980,-24,cs),
(980,-35,o),
(975,-44,o),
(965,-51,cs),
(911,-88,o),
(850,-120,o),
(780,-144,c)
);
},
{
closed = 1;
nodes = (
(684,-57,o),
(653,-40,o),
(630,-21,c),
(608,-39,o),
(582,-56,o),
(548,-56,cs),
(542,-56,o),
(536,-55,o),
(529,-53,cs),
(433,-29,o),
(365,10,o),
(312,72,c),
(305,68,o),
(292,66,o),
(280,66,c),
(186,150,o),
(140,264,o),
(140,392,cs),
(140,524,o),
(187,631,o),
(280,724,c),
(292,717,o),
(306,716,o),
(312,716,c),
(366,772,o),
(443,817,o),
(529,834,cs),
(540,836,o),
(551,837,o),
(561,837,cs),
(596,837,o),
(617,825,o),
(630,810,c),
(647,826,o),
(671,837,o),
(707,837,cs),
(717,837,o),
(727,836,o),
(738,834,cs),
(815,819,o),
(895,770,o),
(950,716,c),
(956,716,o),
(967,717,o),
(980,724,c),
(1074,631,o),
(1118,524,o),
(1120,392,cs),
(1120,331,o),
(1108,270,o),
(1085,215,cs),
(1062,159,o),
(1027,108,o),
(980,66,c),
(967,66,o),
(957,68,o),
(950,72,c),
(922,40,o),
(892,17,o),
(858,-3,cs),
(824,-22,o),
(785,-38,o),
(738,-53,cs),
(730,-56,o),
(723,-57,o),
(716,-57,cs)
);
},
{
closed = 1;
nodes = (
(299,779,o),
(284,793,o),
(284,809,cs),
(284,820,o),
(289,831,o),
(299,836,c),
(352,875,o),
(414,906,o),
(483,930,c),
(500,930,o),
(518,926,o),
(522,907,cs),
(523,904,o),
(523,902,o),
(523,900,cs),
(523,886,o),
(514,874,o),
(500,868,c),
(446,852,o),
(382,820,o),
(336,790,c),
(329,782,o),
(321,779,o),
(313,779,cs)
);
},
{
closed = 1;
nodes = (
(599,856,o),
(578,878,o),
(578,911,cs),
(578,942,o),
(599,963,o),
(630,963,cs),
(663,963,o),
(686,942,o),
(686,911,cs),
(686,878,o),
(663,856,o),
(630,856,cs)
);
},
{
closed = 1;
nodes = (
(944,776,o),
(936,780,o),
(929,787,c),
(881,819,o),
(821,850,o),
(765,866,cs),
(752,870,o),
(741,886,o),
(741,901,cs),
(741,924,o),
(762,927,o),
(781,927,c),
(850,902,o),
(911,872,o),
(967,834,c),
(976,829,o),
(981,819,o),
(981,808,cs),
(981,800,o),
(978,793,o),
(973,787,cs),
(967,780,o),
(959,776,o),
(952,776,cs)
);
}
);
width = 1260;
}
);
unicode = 1757;
}
{
glyphname = "hizb-ar";
layers = (
{
layerId = master01;
shapes = (
{
closed = 1;
nodes = (
(590,-60,l),
(773,-60,l),
(773,122,l),
(901,251,l),
(773,380,l),
(773,562,l),
(590,562,l),
(460,691,l),
(333,562,l),
(149,562,l),
(149,380,l),
(21,251,l),
(149,122,l),
(149,-60,l),
(333,-60,l),
(460,-189,l)
);
},
{
closed = 1;
nodes = (
(181,91,l),
(301,-28,l),
(181,-28,l)
);
},
{
closed = 1;
nodes = (
(375,-60,l),
(546,-60,l),
(460,-145,l)
);
},
{
closed = 1;
nodes = (
(65,251,l),
(149,336,l),
(149,166,l)
);
},
{
closed = 1;
nodes = (
(181,531,l),
(301,531,l),
(181,412,l)
);
},
{
closed = 1;
nodes = (
(741,91,l),
(741,-28,l),
(621,-28,l)
);
},
{
closed = 1;
nodes = (
(181,135,l),
(181,367,l),
(345,531,l),
(577,531,l),
(741,367,l),
(741,135,l),
(577,-28,l),
(345,-28,l)
);
},
{
closed = 1;
nodes = (
(511,161,o),
(551,201,o),
(551,251,cs),
(551,301,o),
(511,341,o),
(460,341,cs),
(412,341,o),
(371,301,o),
(371,251,cs),
(371,201,o),
(412,161,o),
(460,161,cs)
);
},
{
closed = 1;
nodes = (
(428,191,o),
(402,218,o),
(402,251,cs),
(402,284,o),
(428,311,o),
(460,311,cs),
(494,311,o),
(520,284,o),
(520,251,cs),
(520,218,o),
(494,191,o),
(460,191,cs)
);
},
{
closed = 1;
nodes = (
(460,648,l),
(546,562,l),
(375,562,l)
);
},
{
closed = 1;
nodes = (
(773,336,l),
(856,251,l),
(773,166,l)
);
},
{
closed = 1;
nodes = (
(621,531,l),
(741,531,l),
(741,412,l)
);
}
);
width = 921;
},
{
layerId = "26E2967D-790C-4793-AF2A-2D0AD74EDC69";
shapes = (
{
closed = 1;
nodes = (
(590,-51,l),
(773,-51,l),
(773,130,l),
(901,260,l),
(773,389,l),
(773,571,l),
(590,571,l),
(460,700,l),
(333,571,l),
(149,571,l),
(149,389,l),
(21,260,l),
(149,130,l),
(149,-51,l),
(333,-51,l),
(460,-180,l)
);
},
{
closed = 1;
nodes = (
(181,100,l),
(301,-20,l),
(181,-20,l)
);
},
{
closed = 1;
nodes = (
(375,-51,l),
(546,-51,l),
(460,-136,l)
);
},
{
closed = 1;
nodes = (
(65,260,l),
(149,345,l),
(149,175,l)
);
},
{
closed = 1;
nodes = (
(181,539,l),
(301,539,l),
(181,420,l)
);
},
{
closed = 1;
nodes = (
(741,100,l),
(741,-20,l),
(621,-20,l)
);
},
{
closed = 1;
nodes = (
(181,144,l),
(181,376,l),
(345,539,l),
(577,539,l),
(741,376,l),
(741,144,l),
(577,-20,l),
(345,-20,l)
);
},
{
closed = 1;
nodes = (
(511,169,o),
(551,210,o),
(551,260,cs),
(551,310,o),
(511,350,o),
(460,350,cs),
(412,350,o),
(371,310,o),
(371,260,cs),
(371,210,o),
(412,169,o),
(460,169,cs)
);
},
{
closed = 1;
nodes = (
(428,200,o),
(402,227,o),
(402,260,cs),
(402,293,o),
(428,319,o),
(460,319,cs),
(494,319,o),
(520,293,o),
(520,260,cs),
(520,227,o),
(494,200,o),
(460,200,cs)
);
},
{
closed = 1;
nodes = (
(460,657,l),
(546,571,l),
(375,571,l)
);
},
{
closed = 1;
nodes = (
(773,345,l),
(856,260,l),
(773,175,l)
);
},
{
closed = 1;
nodes = (
(621,539,l),
(741,539,l),
(741,420,l)
);
}
);
width = 921;
}
);
unicode = 1758;
}
{
glyphname = "sukunround-ar";
layers = (
{
anchors = (
{
name = _top.far;
pos = (54,752);
},
{
name = top.far;
pos = (54,901);
}
);
layerId = master01;
shapes = (
{
closed = 1;
nodes = (
(90,753,o),
(115,777,o),
(115,819,cs),
(115,861,o),
(90,884,o),
(54,884,cs),
(19,884,o),
(-8,864,o),
(-8,819,cs),
(-8,772,o),
(19,753,o),
(54,753,cs)
);
},
{
closed = 1;
nodes = (
(31,782,o),
(19,795,o),
(19,819,cs),
(19,843,o),
(31,855,o),
(54,855,cs),
(72,855,o),
(88,845,o),
(88,819,cs),
(88,793,o),
(72,782,o),
(54,782,cs)
);
}
);
width = 108;
},
{
anchors = (
{
name = _top.far;
pos = (56,741);
},
{
name = top.far;
pos = (56,894);
}
);
layerId = "26E2967D-790C-4793-AF2A-2D0AD74EDC69";
shapes = (
{
closed = 1;
nodes = (
(95,741,o),
(121,764,o),
(121,809,cs),
(121,852,o),
(95,876,o),
(56,876,cs),
(20,876,o),
(-8,855,o),
(-8,809,cs),
(-8,761,o),
(20,741,o),
(56,741,cs)
);
},
{
closed = 1;
nodes = (
(35,776,o),
(25,787,o),
(25,809,cs),
(25,830,o),
(35,843,o),
(56,843,cs),
(73,843,o),
(88,833,o),
(88,809,cs),
(88,785,o),
(73,776,o),
(56,776,cs)
);
}
);
width = 113;
}
);
metricLeft = "=0";
metricRight = "=0";
unicode = 1759;
}
{
glyphname = "sukunoval-ar";
layers = (
{
anchors = (
{
name = _top;
pos = (0,403);
},
{
name = top3;
pos = (0,582);
}
);
layerId = master01;
shapes = (
{
closed = 1;
nodes = (
(36,413,o),
(54,439,o),
(54,490,cs),
(54,542,o),
(36,567,o),
(0,567,cs),
(-36,567,o),
(-54,542,o),
(-54,490,cs),
(-54,439,o),
(-36,413,o),
(0,413,cs)
);
},
{
closed = 1;
nodes = (
(-21,439,o),
(-30,454,o),
(-30,490,cs),
(-30,527,o),
(-21,542,o),
(0,542,cs),
(21,542,o),
(30,527,o),
(30,490,cs),
(30,454,o),
(21,439,o),
(0,439,cs)
);
}
);
width = 0;
},
{
anchors = (
{
name = _top;
pos = (0,412);
},
{
name = top3;
pos = (0,591);
}
);
layerId = "26E2967D-790C-4793-AF2A-2D0AD74EDC69";
shapes = (
{
closed = 1;
nodes = (
(40,423,o),
(60,450,o),
(60,502,cs),
(60,553,o),
(40,580,o),
(1,580,cs),
(-38,580,o),
(-58,553,o),
(-58,502,cs),
(-58,450,o),
(-38,423,o),
(1,423,cs)
);
},
{
closed = 1;
nodes = (
(-18,455,o),
(-27,468,o),
(-27,502,cs),
(-27,535,o),
(-18,549,o),
(1,549,cs),
(20,549,o),
(29,535,o),
(29,502,cs),
(29,468,o),
(20,455,o),
(1,455,cs)
);
}
);
width = 0;
}
);
unicode = 1760;
}
{
glyphname = "jazm-ar";
layers = (
{
anchors = (
{
name = _top.far;
pos = (77,748);
},
{
name = top.far;
pos = (77,908);
}
);
layerId = master01;
shapes = (
{
closed = 1;
nodes = (
(100,748,o),
(131,807,o),
(154,858,c),
(125,872,o),
(99,882,o),
(77,882,cs),
(50,882,o),
(28,868,o),
(1,824,c),
(8,814,l),
(22,822,o),
(38,825,o),
(54,825,cs),
(78,825,o),
(101,818,o),
(115,808,c),
(115,833,l),
(91,789,o),
(60,777,o),
(2,772,c),
(0,758,l),
(19,752,o),
(34,748,o),
(48,748,cs)
);
}
);
width = 154;
},
{
anchors = (
{
name = _top.far;
pos = (82,738);
},
{
name = top.far;
pos = (82,897);
}
);
layerId = "26E2967D-790C-4793-AF2A-2D0AD74EDC69";
shapes = (
{
closed = 1;
nodes = (
(109,738,o),
(142,804,o),
(164,851,c),
(133,866,o),
(106,877,o),
(81,877,cs),
(52,877,o),
(28,861,o),
(1,816,c),
(11,801,l),
(26,811,o),
(43,815,o),
(59,815,cs),
(86,815,o),
(112,804,o),
(124,793,c),
(124,844,l),
(97,786,o),
(70,774,o),
(2,769,c),
(0,752,l),
(22,744,o),
(41,738,o),
(57,738,cs)
);
}
);
width = 164;
}
);
metricLeft = "=0";
metricRight = "=0";
unicode = 1761;
}
{
glyphname = "meemabove-ar";
layers = (
{
anchors = (
{
name = _top.far;
pos = (74,723);
},
{
name = _top.meem;
pos = (140,913);
},
{
name = top.far;
pos = (63,1019);
}
);
layerId = master01;
shapes = (
{
closed = 1;
nodes = (
(9,733,o),
(20,741,o),
(25,748,c),
(23,767,o),
(21,788,o),
(16,812,cs),
(9,853,l),
(49,866,o),
(78,869,o),
(124,869,c),
(140,913,l),
(108,939,o),
(89,990,o),
(63,990,cs),
(39,990,o),
(20,971,o),
(4,931,c),
(17,926,l),
(31,943,o),
(42,952,o),
(53,952,cs),
(57,952,o),
(62,949,o),
(67,945,c),
(72,939,o),
(80,930,o),
(90,914,c),
(100,905,l),
(54,903,o),
(53,902,o),
(5,889,c),
(-4,866,o),
(-9,851,o),
(-9,846,cs),
(-9,834,o),
(-9,818,o),
(-7,799,cs),
(-4,778,o),
(-3,755,o),
(-3,724,c)
);
}
);
width = 131;
},
{
anchors = (
{
name = _top.far;
pos = (72,733);
},
{
name = _top.meem;
pos = (151,923);
},
{
name = top.far;
pos = (68,1034);
}
);
layerId = "26E2967D-790C-4793-AF2A-2D0AD74EDC69";
shapes = (
{
closed = 1;
nodes = (
(15,744,o),
(24,748,o),
(36,757,c),
(33,777,o),
(31,797,o),
(26,822,cs),
(20,860,l),
(58,874,o),
(86,875,o),
(134,875,c),
(151,924,l),
(119,948,o),
(99,1004,o),
(68,1004,cs),
(40,1004,o),
(19,982,o),
(1,940,c),
(24,931,l),
(39,950,o),
(50,958,o),
(57,958,cs),
(60,958,o),
(63,956,o),
(68,952,cs),
(72,948,o),
(79,939,o),
(90,923,c),
(95,918,l),
(55,916,o),
(57,916,o),
(4,900,c),
(-5,876,o),
(-10,861,o),
(-10,855,cs),
(-10,844,o),
(-10,828,o),
(-8,809,cs),
(-5,788,o),
(-4,764,o),
(-4,733,c)
);
}
);
width = 141;
}
);
metricLeft = "=0";
metricRight = "=0";
unicode = 1762;
}
{
glyphname = "wawSmall-ar";
layers = (
{
anchors = (
{
name = bottom;
pos = (93,-94);
},
{
name = top.far;
pos = (101,240);
},
{
name = top.near;
pos = (101,240);
}
);
layerId = master01;
shapes = (
{
closed = 1;
nodes = (
(133,-26,o),
(176,25,o),
(176,86,cs),
(176,143,o),
(144,189,o),
(102,189,cs),
(66,189,o),
(37,151,o),
(37,104,cs),
(37,71,o),
(59,51,o),
(96,51,cs),
(117,51,o),
(141,57,o),
(141,57,c),
(141,74,l),
(127,33,o),
(105,13,o),
(72,13,cs),
(54,13,o),
(40,17,o),
(21,24,c),
(11,3,l),
(22,-10,o),
(61,-26,o),
(81,-26,cs)
);
},
{
closed = 1;
nodes = (
(82,91,o),
(72,98,o),
(72,115,cs),
(72,128,o),
(86,147,o),
(96,147,cs),
(113,147,o),
(127,130,o),
(137,97,c),
(127,93,o),
(118,91,o),
(105,91,cs)
);
}
);
width = 205;
},
{
anchors = (
{
name = bottom;
pos = (93,-85);
},
{
name = top.far;
pos = (101,269);
},
{
name = top.near;
pos = (101,269);
}
);
layerId = "26E2967D-790C-4793-AF2A-2D0AD74EDC69";
shapes = (
{
closed = 1;
nodes = (
(136,-12,o),
(181,41,o),
(181,105,cs),
(181,164,o),
(147,213,o),
(102,213,cs),
(63,213,o),
(32,173,o),
(32,123,cs),
(32,87,o),
(57,64,o),
(96,64,cs),
(117,64,o),
(137,66,o),
(136,66,c),
(136,94,l),
(123,55,o),
(102,37,o),
(72,37,cs),
(54,37,o),
(39,41,o),
(18,50,c),
(5,22,l),
(12,6,o),
(57,-12,o),
(81,-12,cs)
);
},
{
closed = 1;
nodes = (
(85,115,o),
(77,121,o),
(77,134,cs),
(77,145,o),
(89,161,o),
(96,161,cs),
(109,161,o),
(122,147,o),
(131,119,c),
(123,116,o),
(115,115,o),
(105,115,cs)
);
}
);
width = 205;
}
);
unicode = 1765;
}
{
glyphname = "yehSmall-ar";
layers = (
{
anchors = (
{
name = bottom;
pos = (170,-94);
},
{
name = top.far;
pos = (173,440);
},
{
name = top.near;
pos = (163,448);
}
);
layerId = master01;
shapes = (
{
closed = 1;
nodes = (
(194,0,o),
(219,2,o),
(244,6,cs),
(280,12,o),
(303,19,o),
(303,33,cs),
(303,37,o),
(301,42,o),
(297,46,c),
(264,36,o),
(212,29,o),
(175,29,cs),
(124,29,o),
(86,34,o),
(61,44,c),
(83,59,o),
(84,61,o),
(127,74,cs),
(146,79,o),
(154,93,o),
(161,112,c),
(149,119,l),
(144,108,o),
(134,100,o),
(120,95,cs),
(86,83,l),
(74,78,o),
(64,70,o),
(55,62,c),
(50,59,o),
(43,29,o),
(43,20,cs),
(43,15,o),
(57,11,o),
(84,7,cs),
(112,2,o),
(140,0,o),
(170,0,cs)
);
}
);
width = 344;
},
{
anchors = (
{
name = bottom;
pos = (170,-85);
},
{
name = top.far;
pos = (173,449);
},
{
name = top.near;
pos = (175,452);
}
);
layerId = "26E2967D-790C-4793-AF2A-2D0AD74EDC69";
shapes = (
{
closed = 1;
nodes = (
(194,9,o),
(219,11,o),
(244,15,cs),
(280,20,o),
(303,27,o),
(303,42,cs),
(303,46,o),
(301,51,o),
(297,55,c),
(264,45,o),
(212,38,o),
(175,38,cs),
(124,38,o),
(86,43,o),
(61,53,c),
(83,68,o),
(84,69,o),
(127,83,cs),
(146,88,o),
(154,102,o),
(161,121,c),
(149,127,l),
(144,116,o),
(134,109,o),
(120,104,cs),
(86,92,l),
(74,86,o),
(64,79,o),
(55,71,c),
(50,68,o),
(43,38,o),
(43,29,cs),
(43,24,o),
(57,20,o),
(84,15,cs),
(112,11,o),
(140,9,o),
(170,9,cs)
);
}
);
width = 344;
}
);
unicode = 1766;
}
{
glyphname = "noonStopabove-ar";
layers = (
{
anchors = (
{
name = _top;
pos = (84,738);
},
{
name = top3;
pos = (76,980);
}
);
layerId = master01;
shapes = (
{
closed = 1;
nodes = (
(87,748,o),
(105,753,o),
(121,763,cs),
(156,782,o),
(177,814,o),
(177,848,cs),
(177,859,o),
(175,875,o),
(171,894,cs),
(167,920,o),
(164,937,o),
(163,947,c),
(144,935,o),
(138,924,o),
(138,910,cs),
(138,897,o),
(146,871,o),
(163,833,c),
(150,804,o),
(107,782,o),
(69,782,cs),
(37,782,o),
(17,805,o),
(17,845,cs),
(17,852,o),
(19,862,o),
(22,874,c),
(8,878,l),
(2,851,o),
(0,840,o),
(0,825,cs),
(0,776,o),
(26,748,o),
(69,748,cs)
);
},
{
closed = 1;
nodes = (
(84,925,o),
(92,936,o),
(98,945,c),
(89,953,o),
(81,962,o),
(73,971,c),
(68,965,o),
(59,955,o),
(47,941,c),
(53,933,o),
(62,924,o),
(74,915,c)
);
}
);
width = 177;
},
{
anchors = (
{
name = _top;
pos = (81,727);
},
{
name = top3;
pos = (73,969);
}
);
layerId = "26E2967D-790C-4793-AF2A-2D0AD74EDC69";
shapes = (
{
closed = 1;
nodes = (
(87,738,o),
(105,742,o),
(122,751,cs),
(155,768,o),
(176,801,o),
(176,837,cs),
(176,852,o),
(173,871,o),
(171,891,cs),
(168,907,o),
(164,934,o),
(162,951,c),
(137,937,o),
(125,919,o),
(125,897,cs),
(125,886,o),
(139,858,o),
(156,822,c),
(130,796,o),
(106,786,o),
(68,786,cs),
(35,786,o),
(20,804,o),
(20,843,cs),
(20,853,o),
(22,864,o),
(25,876,c),
(9,880,l),
(3,855,o),
(0,835,o),
(0,821,cs),
(0,767,o),
(23,738,o),
(67,738,cs)
);
},
{
closed = 1;
nodes = (
(83,909,o),
(92,920,o),
(98,929,c),
(85,942,o),
(77,952,o),
(71,959,c),
(64,949,o),
(55,938,o),
(44,926,c),
(51,917,o),
(60,908,o),
(72,897,c)
);
}
);
width = 176;
}
);
metricLeft = "=0";
metricRight = "=0";
unicode = 1768;
}
{
glyphname = "sajdah-ar";
layers = (
{
layerId = master01;
shapes = (
{
closed = 1;
nodes = (
(490,-61,l),
(394,47,l),
(394,292,l),
(490,399,l),
(255,635,l),
(21,399,l),
(116,292,l),
(116,47,l),
(21,-61,l)
);
},
{
closed = 1;
nodes = (
(217,365,l),
(187,399,l),
(255,470,l),
(324,399,l),
(292,365,l),
(292,68,l),
(217,68,l)
);
},
{
closed = 1;
nodes = (
(179,342,l),
(127,399,l),
(255,527,l),
(383,399,l),
(331,342,l),
(331,17,l),
(179,17,l)
);
},
{
closed = 1;
nodes = (
(309,50,l),
(309,359,l),
(346,399,l),
(255,492,l),
(164,399,l),
(201,359,l),
(201,50,l)
);
},
{
closed = 1;
nodes = (
(351,-6,l),
(351,329,l),
(413,399,l),
(255,558,l),
(97,399,l),
(159,329,l),
(159,-6,l)
);
},
{
closed = 1;
nodes = (
(140,39,l),
(140,301,l),
(53,399,l),
(255,603,l),
(458,399,l),
(370,301,l),
(370,39,l),
(436,-38,l),
(74,-38,l)
);
}
);
width = 510;
},
{
layerId = "26E2967D-790C-4793-AF2A-2D0AD74EDC69";
shapes = (
{
closed = 1;
nodes = (
(490,-52,l),
(394,56,l),
(394,301,l),
(490,408,l),
(255,644,l),
(21,408,l),
(116,301,l),
(116,56,l),
(21,-52,l)
);
},
{
closed = 1;
nodes = (
(217,374,l),
(187,408,l),
(255,479,l),
(324,408,l),
(292,374,l),
(292,77,l),
(217,77,l)
);
},
{
closed = 1;
nodes = (
(179,351,l),
(127,408,l),
(255,536,l),
(383,408,l),
(331,351,l),
(331,25,l),
(179,25,l)
);
},
{
closed = 1;
nodes = (
(309,59,l),
(309,368,l),
(346,408,l),
(255,500,l),
(164,408,l),
(201,368,l),
(201,59,l)
);
},
{
closed = 1;
nodes = (
(351,2,l),
(351,337,l),
(413,408,l),
(255,566,l),
(97,408,l),
(159,337,l),
(159,2,l)
);
},
{
closed = 1;
nodes = (
(140,48,l),
(140,310,l),
(53,408,l),
(255,611,l),
(458,408,l),
(370,310,l),
(370,48,l),
(436,-29,l),
(74,-29,l)
);
}
);
width = 510;
}
);
unicode = 1769;
}
{
glyphname = "rhombusStopabove-ar";
layers = (
{
anchors = (
{
name = _top.far;
pos = (65,748);
},
{
name = top.far;
pos = (65,904);
}
);
layerId = master01;
shapes = (
{
closed = 1;
nodes = (
(130,814,l),
(65,879,l),
(0,814,l),
(65,748,l)
);
},
{
closed = 1;
nodes = (
(24,814,l),
(65,854,l),
(106,814,l),
(65,773,l)
);
}
);
width = 130;
},
{
anchors = (
{
name = _top.far;
pos = (72,738);
},
{
name = top.far;
pos = (71,910);
}
);
layerId = "26E2967D-790C-4793-AF2A-2D0AD74EDC69";
shapes = (
{
closed = 1;
nodes = (
(144,811,l),
(72,883,l),
(0,811,l),
(72,738,l)
);
},
{
closed = 1;
nodes = (
(38,811,l),
(72,844,l),
(106,811,l),
(72,777,l)
);
}
);
width = 144;
}
);
metricLeft = "=0";
metricRight = "=0";
unicode = 1771;
}
{
glyphname = "rounddotabove-ar";
layers = (
{
anchors = (
{
name = _top.far;
pos = (73,748);
},
{
name = top.far;
pos = (74,919);
}
);
layerId = master01;
shapes = (
{
closed = 1;
nodes = (
(113,748,o),
(146,781,o),
(146,822,cs),
(146,862,o),
(113,895,o),
(73,895,cs),
(33,895,o),
(0,862,o),
(0,822,cs),
(0,781,o),
(33,748,o),
(73,748,cs)
);
}
);
width = 146;
},
{
anchors = (
{
name = _top.far;
pos = (78,738);
},
{
name = top.far;
pos = (79,916);
}
);
layerId = "26E2967D-790C-4793-AF2A-2D0AD74EDC69";
shapes = (
{
closed = 1;
nodes = (
(120,738,o),
(155,773,o),
(155,816,cs),
(155,859,o),
(120,894,o),
(78,894,cs),
(35,894,o),
(0,859,o),
(0,816,cs),
(0,773,o),
(35,738,o),
(78,738,cs)
);
}
);
width = 155;
}
);
metricLeft = "=0";
metricRight = "=0";
unicode = 1772;
}
{
glyphname = "meembelow-ar";
layers = (
{
anchors = (
{
name = _bottom;
pos = (0,-100);
},
{
name = bottom3;
pos = (15,-327);
}
);
layerId = master01;
shapes = (
{
closed = 1;
nodes = (
(-48,-344,o),
(-39,-337,o),
(-34,-331,c),
(-36,-314,o),
(-38,-296,o),
(-42,-275,cs),
(-48,-239,l),
(-13,-227,o),
(12,-225,o),
(53,-225,c),
(67,-186,l),
(39,-163,o),
(22,-118,o),
(-1,-118,cs),
(-22,-118,o),
(-39,-135,o),
(-53,-170,c),
(-41,-175,l),
(-29,-160,o),
(-19,-152,o),
(-10,-152,cs),
(-6,-152,o),
(-2,-154,o),
(3,-158,cs),
(7,-163,o),
(14,-171,o),
(23,-185,c),
(32,-193,l),
(-9,-195,o),
(-10,-196,o),
(-52,-207,c),
(-60,-227,o),
(-64,-240,o),
(-64,-245,cs),
(-64,-255,o),
(-64,-269,o),
(-62,-286,cs),
(-60,-304,o),
(-59,-325,o),
(-59,-352,c)
);
}
);
width = 0;
},
{
anchors = (
{
name = _bottom;
pos = (0,-91);
},
{
name = bottom3;
pos = (15,-318);
}
);
layerId = "26E2967D-790C-4793-AF2A-2D0AD74EDC69";
shapes = (
{
closed = 1;
nodes = (
(-46,-334,o),
(-38,-330,o),
(-28,-322,c),
(-30,-305,o),
(-32,-287,o),
(-36,-265,cs),
(-42,-232,l),
(-8,-220,o),
(16,-219,o),
(58,-219,c),
(73,-176,l),
(45,-155,o),
(28,-106,o),
(0,-106,cs),
(-24,-106,o),
(-43,-125,o),
(-58,-162,c),
(-38,-170,l),
(-25,-153,o),
(-15,-146,o),
(-9,-146,cs),
(-7,-146,o),
(-4,-148,o),
(0,-151,cs),
(4,-155,o),
(10,-163,o),
(20,-177,c),
(24,-181,l),
(-11,-183,o),
(-9,-183,o),
(-56,-197,c),
(-64,-218,o),
(-68,-231,o),
(-68,-236,cs),
(-68,-246,o),
(-68,-260,o),
(-66,-277,cs),
(-64,-295,o),
(-63,-316,o),
(-63,-343,c)
);
}
);
width = 0;
}
);
unicode = 1773;
}
{
glyphname = "five-persian";
layers = (
{
layerId = master01;
shapes = (
{
closed = 1;
nodes = (
(186,7,o),
(208,20,o),
(226,44,c),
(245,20,o),
(270,7,o),
(298,7,cs),
(319,7,o),
(338,15,o),
(355,31,cs),
(388,64,o),
(407,125,o),
(407,190,cs),
(407,236,o),
(400,278,o),
(387,317,cs),
(359,394,o),
(308,463,o),
(174,585,c),
(161,563,o),
(154,538,o),
(154,511,cs),
(154,496,o),
(156,484,o),
(161,475,c),
(118,405,o),
(112,396,o),
(100,371,cs),
(64,301,o),
(47,237,o),
(47,178,cs),
(47,70,o),
(88,7,o),
(159,7,cs)
);
},
{
closed = 1;
nodes = (
(116,92,o),
(86,134,o),
(86,181,cs),
(86,257,o),
(136,359,o),
(203,436,c),
(302,343,o),
(367,234,o),
(367,165,cs),
(367,125,o),
(340,92,o),
(305,92,cs),
(264,92,o),
(246,127,o),
(246,184,c),
(210,165,l),
(206,116,o),
(188,92,o),
(156,92,cs)
);
}
);
width = 454;
},
{
layerId = "26E2967D-790C-4793-AF2A-2D0AD74EDC69";
shapes = (
{
closed = 1;
nodes = (
(205,-1,o),
(232,19,o),
(239,54,c),
(248,19,o),
(278,-1,o),
(309,-1,cs),
(333,-1,o),
(355,6,o),
(374,21,cs),
(410,51,o),
(433,107,o),
(433,180,cs),
(433,231,o),
(424,280,o),
(406,327,cs),
(369,423,o),
(308,509,o),
(177,632,c),
(158,602,o),
(141,552,o),
(141,512,cs),
(141,493,o),
(145,478,o),
(152,466,c),
(127,429,o),
(107,396,o),
(93,368,cs),
(65,311,o),
(47,248,o),
(47,178,cs),
(47,68,o),
(93,-1,o),
(171,-1,cs)
);
},
{
closed = 1;
nodes = (
(130,120,o),
(105,152,o),
(105,200,cs),
(105,265,o),
(142,345,o),
(205,420,c),
(315,325,o),
(372,243,o),
(372,184,cs),
(372,143,o),
(351,120,o),
(317,120,cs),
(280,120,o),
(263,148,o),
(263,212,c),
(217,193,l),
(212,145,o),
(201,120,o),
(167,120,cs)
);
}
);
width = 479;
}
);
unicode = 1781;
}
{
glyphname = "verticalTail-ar";
layers = (
{
layerId = master01;
shapes = (
{
closed = 1;
nodes = (
(163,-342,o),
(191,-202,o),
(178,7,c),
(198,3,o),
(222,0,o),
(251,0,cs),
(256,0,o),
(259,3,o),
(259,8,cs),
(259,68,ls),
(259,73,o),
(256,76,o),
(251,76,cs),
(212,76,o),
(195,88,o),
(178,113,cs),
(167,126,o),
(147,170,o),
(114,245,c),
(94,218,o),
(79,187,o),
(68,154,c),
(136,4,o),
(113,-239,o),
(95,-344,c)
);
}
);
width = 242;
},
{
layerId = "26E2967D-790C-4793-AF2A-2D0AD74EDC69";
shapes = (
{
closed = 1;
nodes = (
(210,-342,o),
(225,-109,o),
(214,16,c),
(237,11,o),
(258,9,o),
(292,9,cs),
(297,9,o),
(300,12,o),
(300,17,cs),
(300,119,ls),
(300,125,o),
(297,127,o),
(292,127,cs),
(247,127,o),
(224,144,o),
(209,168,cs),
(199,183,o),
(176,230,o),
(141,308,c),
(117,276,o),
(82,238,o),
(68,196,c),
(115,89,o),
(145,-150,o),
(116,-344,c)
);
}
);
width = 283;
}
);
unicode = 2190;
}
{
glyphname = "piastre-ar";
layers = (
{
anchors = (
{
name = digits;
pos = (622,0);
}
);
layerId = master01;
shapes = (
{
closed = 1;
nodes = (
(46,872,ls),
(44,872,o),
(41,871,o),
(40,869,cs),
(1,802,ls),
(-1,799,o),
(0,796,o),
(4,796,cs),
(1604,796,ls),
(1606,796,o),
(1610,797,o),
(1611,799,cs),
(1649,866,ls),
(1651,869,o),
(1650,872,o),
(1646,872,cs),
(1031,872,l),
(1060,927,o),
(1074,976,o),
(1074,1018,cs),
(1074,1091,o),
(1024,1135,o),
(963,1136,cs),
(876,1138,o),
(787,1065,o),
(702,998,cs),
(637,948,o),
(535,872,o),
(443,872,cs)
);
},
{
closed = 1;
nodes = (
(664,874,l),
(742,913,o),
(866,1053,o),
(961,1050,cs),
(999,1049,o),
(1028,1029,o),
(1028,977,cs),
(1028,934,o),
(1018,903,o),
(1006,872,c)
);
}
);
width = 1650;
},
{
anchors = (
{
name = digits;
pos = (599,0);
}
);
layerId = "26E2967D-790C-4793-AF2A-2D0AD74EDC69";
shapes = (
{
closed = 1;
nodes = (
(70,893,ls),
(68,893,o),
(65,892,o),
(64,890,cs),
(1,781,ls),
(-1,777,o),
(0,775,o),
(4,775,cs),
(1581,775,ls),
(1583,775,o),
(1586,776,o),
(1587,778,cs),
(1649,887,ls),
(1651,891,o),
(1649,893,o),
(1645,893,cs),
(1050,893,l),
(1068,935,o),
(1079,979,o),
(1079,1018,cs),
(1079,1104,o),
(1025,1156,o),
(963,1157,cs),
(879,1159,o),
(790,1086,o),
(699,1015,cs),
(640,969,o),
(538,893,o),
(443,893,cs)
);
},
{
closed = 1;
nodes = (
(724,895,l),
(795,949,o),
(885,1031,o),
(961,1029,cs),
(1001,1028,o),
(1023,1014,o),
(1023,977,cs),
(1023,945,o),
(1017,922,o),
(1006,893,c)
);
}
);
width = 1650;
}
);
metricLeft = "=0";
metricRight = "=0";
unicode = 2193;
}
{
glyphname = "maddaWaajib-ar";
layers = (
{
anchors = (
{
name = _top;
pos = (129,711);
},
{
name = _top.far;
pos = (129,711);
},
{
name = top.far;
pos = (130,836);
},
{
name = top.near;
pos = (130,836);
}
);
layerId = master01;
shapes = (
{
closed = 1;
nodes = (
(70,711,l),
(60,759,o),
(45,790,o),
(42,798,c),
(21,768,l),
(50,755,o),
(82,748,o),
(114,748,cs),
(164,748,o),
(214,765,o),
(249,800,c),
(241,822,l),
(213,808,o),
(173,802,o),
(134,802,cs),
(95,802,o),
(57,808,o),
(31,821,c),
(0,799,l),
(15,770,o),
(36,732,o),
(47,702,c)
);
}
);
width = 249;
},
{
anchors = (
{
name = _top;
pos = (128,708);
},
{
name = _top.far;
pos = (128,708);
},
{
name = top.far;
pos = (129,835);
},
{
name = top.near;
pos = (129,835);
}
);
layerId = "26E2967D-790C-4793-AF2A-2D0AD74EDC69";
shapes = (
{
closed = 1;
nodes = (
(80,703,l),
(71,749,o),
(54,780,o),
(51,788,c),
(21,758,l),
(50,745,o),
(82,738,o),
(114,738,cs),
(164,738,o),
(214,755,o),
(249,790,c),
(241,812,l),
(213,798,o),
(173,792,o),
(134,792,cs),
(94,792,o),
(67,804,o),
(42,819,c),
(0,789,l),
(15,760,o),
(40,721,o),
(51,691,c)
);
}
);
width = 249;
},
{
anchors = (
{
name = _top;
pos = (135,711);
},
{
name = _top.near;
pos = (135,711);
},
{
name = top.far;
pos = (136,836);
},
{
name = top.near;
pos = (136,836);
}
);
associatedMasterId = master01;
layerId = "95EB1937-5CCC-43F6-BA4D-7DCE218B9CE6";
name = "14 Aug 23 at 01:30";
shapes = (
{
closed = 1;
nodes = (
(60,771,l),
(98,757,o),
(132,750,o),
(163,750,cs),
(187,750,o),
(228,769,o),
(255,796,c),
(247,818,l),
(228,809,o),
(189,800,o),
(167,800,cs),
(150,800,o),
(122,805,o),
(83,814,c),
(66,816,l),
(61,816,o),
(39,800,o),
(0,769,c),
(12,748,l)
);
}
);
visible = 1;
width = 255;
},
{
anchors = (
{
name = _top;
pos = (138,708);
},
{
name = _top.near;
pos = (138,708);
},
{
name = top.far;
pos = (139,835);
},
{
name = top.near;
pos = (139,835);
}
);
associatedMasterId = "26E2967D-790C-4793-AF2A-2D0AD74EDC69";
layerId = "1E0AB370-4FEE-44DF-B2D2-A8BC1B999E65";
name = "14 Aug 23 at 01:36";
shapes = (
{
closed = 1;
nodes = (
(61,760,l),
(100,745,o),
(134,738,o),
(166,738,cs),
(190,738,o),
(232,758,o),
(259,787,c),
(251,810,l),
(232,800,o),
(192,791,o),
(170,791,cs),
(152,791,o),
(124,796,o),
(85,806,c),
(67,808,l),
(62,808,o),
(40,791,o),
(0,758,c),
(12,736,l)
);
}
);
width = 259;
}
);
metricLeft = "=0";
metricRight = "=0";
unicode = 2204;
}
{
glyphname = "alefMokhassas-ar";
layers = (
{
anchors = (
{
name = _top;
pos = (161,748);
},
{
name = _top.far;
pos = (161,748);
},
{
name = top.far;
pos = (161,973);
},
{
name = top.near;
pos = (161,973);
}
);
layerId = master01;
shapes = (
{
ref = "alefabove-ar";
},
{
alignment = -1;
pos = (142,129);
ref = "fatha-ar";
},
{
closed = 1;
nodes = (
(83,902,o),
(37,853,o),
(20,750,c),
(26,748,l),
(74,825,o),
(109,864,o),
(168,885,c),
(159,924,l)
);
}
);
width = 324;
},
{
anchors = (
{
name = _top;
pos = (161,738);
},
{
name = _top.far;
pos = (161,738);
},
{
name = top.far;
pos = (161,963);
},
{
name = top.near;
pos = (161,963);
}
);
layerId = "26E2967D-790C-4793-AF2A-2D0AD74EDC69";
shapes = (
{
ref = "alefabove-ar";
},
{
alignment = -1;
pos = (142,114);
ref = "fatha-ar";
},
{
closed = 1;
nodes = (
(71,875,o),
(41,842,o),
(24,739,c),
(30,738,l),
(85,815,o),
(124,846,o),
(183,867,c),
(156,905,l)
);
}
);
width = 330;
}
);
metricLeft = "=0";
metricRight = "=0";
unicode = 2205;
}
{
glyphname = "doubleMadda-ar";
layers = (
{
anchors = (
{
name = _top.far;
pos = (135,748);
},
{
name = top.far;
pos = (136,886);
}
);
layerId = master01;
shapes = (
{
alignment = 1;
ref = "maddalong-ar";
},
{
closed = 1;
nodes = (
(-1,806,l),
(31,832,o),
(49,843,o),
(54,847,c),
(118,832,o),
(161,815,o),
(244,849,c),
(238,876,l),
(166,846,o),
(119,860,o),
(48,878,c),
(38,870,o),
(9,845,o),
(-16,830,c)
);
}
);
width = 255;
},
{
anchors = (
{
name = _top.far;
pos = (138,738);
},
{
name = top.far;
pos = (139,865);
}
);
layerId = "26E2967D-790C-4793-AF2A-2D0AD74EDC69";
shapes = (
{
alignment = 1;
ref = "maddalong-ar";
},
{
closed = 1;
nodes = (
(-1,806,l),
(31,832,o),
(49,843,o),
(54,847,c),
(118,832,o),
(161,815,o),
(244,849,c),
(238,876,l),
(166,846,o),
(119,860,o),
(48,878,c),
(38,870,o),
(9,845,o),
(-16,830,c)
);
}
);
width = 259;
}
);
metricLeft = "=0";
metricRight = "=0";
unicode = 2206;
}
{
glyphname = "doubleHafmadda-ar";
layers = (
{
anchors = (
{
name = _top.far;
pos = (135,748);
},
{
name = top.far;
pos = (136,886);
}
);
layerId = master01;
shapes = (
{
alignment = 1;
ref = "maddalong-ar";
},
{
closed = 1;
nodes = (
(-3,805,l),
(29,831,o),
(47,842,o),
(52,846,c),
(75,837,o),
(97,831,o),
(121,831,c),
(122,858,l),
(96,858,o),
(73,865,o),
(46,875,c),
(36,868,o),
(9,847,o),
(-16,829,c)
);
}
);
width = 255;
},
{
anchors = (
{
name = _top.far;
pos = (138,738);
},
{
name = top.far;
pos = (136,866);
}
);
layerId = "26E2967D-790C-4793-AF2A-2D0AD74EDC69";
shapes = (
{
alignment = 1;
ref = "maddalong-ar";
},
{
closed = 1;
nodes = (
(5,806,l),
(37,832,o),
(55,843,o),
(60,847,c),
(84,839,o),
(106,833,o),
(131,832,c),
(132,856,l),
(106,857,o),
(81,864,o),
(54,874,c),
(43,867,o),
(16,846,o),
(-10,827,c)
);
}
);
width = 259;
}
);
metricLeft = "=0";
metricRight = "=0";
unicode = 2207;
}
{
glyphname = "rehLoop-ar";
layers = (
{
anchors = (
{
name = bottom;
pos = (182,-258);
},
{
name = top.far;
pos = (267,538);
},
{
name = top.near;
pos = (267,538);
}
);
layerId = master01;
shapes = (
{
closed = 1;
nodes = (
(427,-215,l),
(397,-175,o),
(366,-131,o),
(330,-91,c),
(358,-42,o),
(373,17,o),
(373,81,cs),
(373,118,o),
(359,165,o),
(342,212,cs),
(328,250,o),
(305,309,o),
(296,341,c),
(259,323,o),
(238,305,o),
(238,271,cs),
(238,241,o),
(253,210,o),
(266,184,cs),
(282,154,o),
(318,93,o),
(335,49,c),
(323,12,o),
(307,-21,o),
(286,-48,c),
(239,-8,o),
(187,20,o),
(127,20,cs),
(68,20,o),
(5,-20,o),
(5,-84,cs),
(5,-152,o),
(79,-204,o),
(148,-204,cs),
(208,-204,o),
(257,-179,o),
(296,-137,c),
(314,-154,o),
(333,-171,o),
(350,-189,cs),
(368,-207,o),
(385,-224,o),
(402,-240,c)
);
},
{
closed = 1;
nodes = (
(98,-126,o),
(62,-110,o),
(41,-87,c),
(67,-67,o),
(96,-55,o),
(131,-55,cs),
(168,-55,o),
(204,-70,o),
(239,-93,c),
(208,-114,o),
(170,-126,o),
(125,-126,cs)
);
}
);
width = 424;
},
{
anchors = (
{
name = bottom;
pos = (202,-258);
},
{
name = top.far;
pos = (299,592);
},
{
name = top.near;
pos = (299,592);
}
);
layerId = "26E2967D-790C-4793-AF2A-2D0AD74EDC69";
shapes = (
{
closed = 1;
nodes = (
(468,-200,l),
(442,-161,o),
(413,-117,o),
(379,-76,c),
(403,-26,o),
(416,31,o),
(416,89,cs),
(416,132,o),
(403,180,o),
(386,230,cs),
(372,271,o),
(348,341,o),
(337,383,c),
(299,364,o),
(254,323,o),
(254,278,cs),
(254,247,o),
(270,216,o),
(284,190,cs),
(314,138,o),
(343,99,o),
(363,58,c),
(354,28,o),
(341,3,o),
(326,-20,c),
(279,23,o),
(225,54,o),
(162,54,cs),
(85,54,o),
(20,1,o),
(20,-71,cs),
(20,-154,o),
(100,-215,o),
(183,-215,cs),
(247,-215,o),
(300,-184,o),
(339,-137,c),
(357,-152,o),
(373,-168,o),
(389,-185,cs),
(406,-201,o),
(421,-216,o),
(437,-231,c)
);
},
{
closed = 1;
nodes = (
(137,-105,o),
(106,-97,o),
(76,-78,c),
(102,-58,o),
(128,-46,o),
(166,-46,cs),
(199,-46,o),
(232,-59,o),
(264,-78,c),
(234,-96,o),
(200,-105,o),
(165,-105,cs)
);
}
);
width = 458;
}
);
unicode = 2218;
}
{
glyphname = "yehRohingya-ar";
layers = (
{
anchors = (
{
name = bottom;
pos = (357,-236);
}
);
layerId = master01;
shapes = (
{
closed = 1;
nodes = (
(540,0,o),
(569,20,o),
(585,69,c),
(549,70,o),
(488,78,o),
(423,101,cs),
(370,120,o),
(315,149,o),
(269,192,c),
(298,249,o),
(358,306,o),
(398,306,cs),
(422,306,o),
(469,230,o),
(473,181,c),
(435,148,o),
(389,124,o),
(335,106,cs),
(293,92,o),
(221,76,o),
(177,76,cs),
(131,76,o),
(94,79,o),
(66,84,c),
(57,50,l),
(117,17,o),
(162,0,o),
(191,0,c),
(258,1,o),
(361,23,o),
(432,73,cs),
(479,106,o),
(512,151,o),
(512,211,cs),
(512,254,o),
(500,299,o),
(481,333,cs),
(462,367,o),
(436,391,o),
(408,391,cs),
(341,391,o),
(283,348,o),
(250,287,cs),
(239,269,o),
(231,206,o),
(231,183,cs),
(231,127,o),
(272,85,o),
(325,55,cs),
(384,23,o),
(458,6,o),
(508,2,cs)
);
},
{
pos = (220,-24);
ref = "twodotshorizontalbelow-ar";
}
);
width = 642;
},
{
anchors = (
{
name = bottom;
pos = (373,-237);
}
);
layerId = "26E2967D-790C-4793-AF2A-2D0AD74EDC69";
shapes = (
{
closed = 1;
nodes = (
(564,1,o),
(594,37,o),
(603,116,c),
(564,114,o),
(499,110,o),
(449,114,cs),
(379,120,o),
(312,147,o),
(280,184,c),
(321,243,o),
(361,277,o),
(400,277,cs),
(424,277,o),
(458,219,o),
(471,173,c),
(438,144,o),
(355,106,o),
(277,118,c),
(256,116,o),
(232,114,o),
(208,114,cs),
(170,114,o),
(134,118,o),
(98,125,c),
(78,85,l),
(112,47,o),
(177,4,o),
(198,4,cs),
(258,4,o),
(405,40,o),
(476,104,cs),
(507,132,o),
(527,171,o),
(527,204,cs),
(527,247,o),
(513,296,o),
(491,334,cs),
(470,372,o),
(441,400,o),
(411,400,cs),
(344,400,o),
(277,339,o),
(244,279,cs),
(233,259,o),
(226,199,o),
(226,174,cs),
(226,151,o),
(249,111,o),
(277,90,cs),
(354,31,o),
(430,1,o),
(518,1,cs)
);
},
{
pos = (229,-27);
ref = "twodotshorizontalbelow-ar";
}
);
width = 681;
}
);
unicode = 2220;
}
{
glyphname = "sahabove-ar";
layers = (
{
anchors = (
{
name = _top;
pos = (169,727);
}
);
layerId = master01;
shapes = (
{
closed = 1;
nodes = (
(107,791,l),
(146,833,o),
(180,860,o),
(205,860,cs),
(224,860,o),
(245,846,o),
(261,824,c),
(228,808,o),
(199,801,o),
(168,801,cs),
(137,801,o),
(105,808,o),
(69,817,c),
(64,818,o),
(39,799,o),
(0,768,c),
(12,747,l),
(60,770,l),
(93,758,o),
(132,748,o),
(169,748,cs),
(191,748,o),
(213,752,o),
(232,760,cs),
(272,774,o),
(292,798,o),
(292,829,cs),
(292,836,o),
(288,865,o),
(280,873,cs),
(265,891,o),
(240,906,o),
(225,906,cs),
(190,906,o),
(147,873,o),
(93,799,c)
);
}
);
width = 292;
},
{
anchors = (
{
name = _top;
pos = (169,727);
}
);
layerId = "26E2967D-790C-4793-AF2A-2D0AD74EDC69";
shapes = (
{
closed = 1;
nodes = (
(106,783,l),
(132,815,o),
(168,850,o),
(197,850,cs),
(215,850,o),
(236,838,o),
(257,815,c),
(226,801,o),
(195,794,o),
(164,794,cs),
(133,794,o),
(102,801,o),
(70,812,c),
(65,813,o),
(40,793,o),
(0,760,c),
(12,738,l),
(61,762,l),
(95,749,o),
(128,740,o),
(163,740,cs),
(184,740,o),
(206,743,o),
(229,751,cs),
(271,766,o),
(293,793,o),
(293,826,cs),
(293,833,o),
(288,855,o),
(279,866,cs),
(261,888,o),
(234,905,o),
(216,905,cs),
(184,905,o),
(141,868,o),
(87,793,c)
);
}
);
width = 293;
}
);
metricLeft = "=0";
metricRight = "=0";
unicode = 2252;
}
{
glyphname = "largerounddotabove-ar";
layers = (
{
anchors = (
{
name = _top;
pos = (114,739);
},
{
name = top3;
pos = (114,999);
}
);
layerId = master01;
shapes = (
{
closed = 1;
nodes = (
(177,748,o),
(228,799,o),
(228,862,cs),
(228,925,o),
(177,976,o),
(114,976,cs),
(51,976,o),
(0,925,o),
(0,862,cs),
(0,799,o),
(51,748,o),
(114,748,cs)
);
}
);
width = 228;
},
{
anchors = (
{
name = _top;
pos = (125,735);
},
{
name = top3;
pos = (125,1007);
}
);
layerId = "26E2967D-790C-4793-AF2A-2D0AD74EDC69";
shapes = (
{
closed = 1;
nodes = (
(195,736,o),
(251,792,o),
(251,861,cs),
(251,931,o),
(195,987,o),
(125,987,cs),
(56,987,o),
(0,931,o),
(0,861,cs),
(0,792,o),
(56,736,o),
(125,736,cs)
);
}
);
width = 251;
},
{
anchors = (
{
name = _top;
pos = (114,606);
},
{
name = _top.tashkil;
pos = (114,706);
},
{
name = top.tashkil;
pos = (114,944);
}
);
associatedMasterId = master01;
layerId = "51E85270-978E-45E6-9D8D-F5CEB6001BC2";
name = "Text Regular";
shapes = (
{
closed = 1;
nodes = (
(177,716,o),
(228,767,o),
(228,830,cs),
(228,893,o),
(177,944,o),
(114,944,cs),
(51,944,o),
(0,893,o),
(0,830,cs),
(0,767,o),
(51,716,o),
(114,716,cs)
);
}
);
width = 228;
},
{
anchors = (
{
name = _top;
pos = (126,606);
},
{
name = _top.tashkil;
pos = (126,706);
},
{
name = top.tashkil;
pos = (125,967);
}
);
associatedMasterId = master01;
layerId = "EB9C6FAF-A60D-4D67-A452-2612375DF00F";
name = "Text Bold";
shapes = (
{
closed = 1;
nodes = (
(195,716,o),
(251,772,o),
(251,841,cs),
(251,911,o),
(195,967,o),
(125,967,cs),
(56,967,o),
(0,911,o),
(0,841,cs),
(0,772,o),
(56,716,o),
(125,716,cs)
);
}
);
width = 251;
}
);
metricLeft = "=0";
metricRight = "=0";
unicode = 2254;
}
{
glyphname = "circlebelow-ar";
layers = (
{
anchors = (
{
name = _bottom;
pos = (114,-37);
}
);
layerId = master01;
shapes = (
{
closed = 1;
nodes = (
(177,-265,o),
(228,-214,o),
(228,-151,cs),
(228,-88,o),
(177,-37,o),
(114,-37,cs),
(51,-37,o),
(0,-88,o),
(0,-151,cs),
(0,-214,o),
(51,-265,o),
(114,-265,cs)
);
},
{
closed = 1;
nodes = (
(62,-245,o),
(20,-203,o),
(20,-151,cs),
(20,-99,o),
(62,-57,o),
(114,-57,cs),
(166,-57,o),
(208,-99,o),
(208,-151,cs),
(208,-203,o),
(166,-245,o),
(114,-245,cs)
);
}
);
width = 228;
},
{
anchors = (
{
name = _bottom;
pos = (125,-33);
}
);
layerId = "26E2967D-790C-4793-AF2A-2D0AD74EDC69";
shapes = (
{
closed = 1;
nodes = (
(195,-284,o),
(251,-228,o),
(251,-159,cs),
(251,-89,o),
(195,-33,o),
(125,-33,cs),
(56,-33,o),
(0,-89,o),
(0,-159,cs),
(0,-228,o),
(56,-284,o),
(125,-284,cs)
);
},
{
closed = 1;
nodes = (
(72,-254,o),
(30,-212,o),
(30,-159,cs),
(30,-105,o),
(72,-63,o),
(125,-63,cs),
(179,-63,o),
(221,-105,o),
(221,-159,cs),
(221,-212,o),
(179,-254,o),
(125,-254,cs)
);
}
);
width = 251;
}
);
metricLeft = "=0";
metricRight = "=0";
unicode = 2257;
}
{
glyphname = "dotcirclebelow-ar";
layers = (
{
anchors = (
{
name = _bottom;
pos = (114,-37);
}
);
layerId = master01;
shapes = (
{
closed = 1;
nodes = (
(177,-265,o),
(228,-214,o),
(228,-151,cs),
(228,-88,o),
(177,-37,o),
(114,-37,cs),
(51,-37,o),
(0,-88,o),
(0,-151,cs),
(0,-214,o),
(51,-265,o),
(114,-265,cs)
);
},
{
closed = 1;
nodes = (
(62,-245,o),
(20,-203,o),
(20,-151,cs),
(20,-99,o),
(62,-57,o),
(114,-57,cs),
(166,-57,o),
(208,-99,o),
(208,-151,cs),
(208,-203,o),
(166,-245,o),
(114,-245,cs)
);
},
{
closed = 1;
nodes = (
(155,-225,o),
(188,-192,o),
(188,-151,cs),
(188,-110,o),
(155,-77,o),
(114,-77,cs),
(73,-77,o),
(40,-110,o),
(40,-151,cs),
(40,-192,o),
(73,-225,o),
(114,-225,cs)
);
}
);
width = 228;
},
{
anchors = (
{
name = _bottom;
pos = (125,-33);
}
);
layerId = "26E2967D-790C-4793-AF2A-2D0AD74EDC69";
shapes = (
{
closed = 1;
nodes = (
(195,-284,o),
(251,-228,o),
(251,-159,cs),
(251,-89,o),
(195,-33,o),
(125,-33,cs),
(56,-33,o),
(0,-89,o),
(0,-159,cs),
(0,-228,o),
(56,-284,o),
(125,-284,cs)
);
},
{
closed = 1;
nodes = (
(72,-254,o),
(30,-212,o),
(30,-159,cs),
(30,-105,o),
(72,-63,o),
(125,-63,cs),
(179,-63,o),
(221,-105,o),
(221,-159,cs),
(221,-212,o),
(179,-254,o),
(125,-254,cs)
);
},
{
closed = 1;
nodes = (
(168,-234,o),
(201,-201,o),
(201,-159,cs),
(201,-116,o),
(168,-83,o),
(125,-83,cs),
(83,-83,o),
(50,-116,o),
(50,-159,cs),
(50,-201,o),
(83,-234,o),
(125,-234,cs)
);
}
);
width = 251;
}
);
metricLeft = "=0";
metricRight = "=0";
unicode = 2258;
}
